{
.appVersion = "3099";
DisplayStrings = (
g
);
copyright = "Copyright 2021 The Urbanist Project Authors (https://github.com/coreyhu/Urbanist)";
customParameters = (
{
name = fsType;
value = (
);
},
{
name = "Enforce Compatibility Check";
value = 1;
},
{
name = "Variable Font Origin";
value = "F7B0483F-D4AC-485F-91A2-832BFA93C9DB";
},
{
name = "GASP Table";
value = {
};
},
{
name = "Axis Mappings";
value = {
ital = {
0 = 0;
1 = 1;
};
wght = {
100 = 30;
200 = 43;
300 = 54;
400 = 70;
500 = 84;
600 = 104;
700 = 122;
800 = 138;
900 = 150;
};
};
},
{
name = panose;
value = (
2,
11,
10,
4,
4,
2,
0,
0,
2,
3
);
},
{
name = "Use Typo Metrics";
value = 1;
},
{
name = "Make morx table";
value = 1;
},
{
name = licenseURL;
value = "https://scripts.sil.org/OFL";
},
{
name = vendorID;
value = KERN;
},
{
name = license;
value = "This Font Software is licensed under the SIL Open Font License, Version 1.1. This license is available with a FAQ at: https://scripts.sil.org/OFL";
},
{
name = description;
value = "Urbanist is an open source low-contrast, geometric sans serif inspired by Modernist typography.";
},
{
name = Axes;
value = (
{
Name = Weight;
Tag = wght;
},
{
Name = Italic;
Tag = ital;
}
);
}
);
date = "2020-03-28 06:10:06 +0000";
designer = "Corey Hu";
designerURL = "https://www.coreyhu.com";
familyName = Urbanist;
featurePrefixes = (
{
automatic = 1;
code = "languagesystem DFLT dflt;\012";
name = Languagesystems;
}
);
features = (
{
automatic = 1;
code = "feature subs;\012feature sinf;\012feature sups;\012feature frac;\012feature ordn;\012";
name = aalt;
},
{
automatic = 1;
code = "lookup ccmp_Other_1 {\012	@CombiningTopAccents = [acutecomb circumflexcomb dieresiscomb dotaccentcomb gravecomb ringcomb tildecomb];\012	@CombiningNonTopAccents = [cedillacomb];\012	sub [i]' @CombiningTopAccents by [idotless];\012	sub [i]' @CombiningNonTopAccents @CombiningTopAccents by [idotless];\012} ccmp_Other_1;\012";
name = ccmp;
},
{
automatic = 1;

glyphs = (
{
glyphname = A;
lastChange = "2021-10-25 19:38:01 +0000";
layers = (
{
anchors = (
{
name = bottom;
position = "{757, 0}";
},
{
name = ogonek;
position = "{1434, 0}";
},
{
name = top;
position = "{757, 1400}";
}
);
hints = (
{
horizontal = 1;
origin = "{0, 0}";
target = up;
type = BottomGhost;
},
{
horizontal = 1;
origin = "{0, 2}";
target = "{1, 2}";
type = Stem;
},
{
horizontal = 1;
origin = "{0, 7}";
target = down;
type = TopGhost;
}
);
layerId = "10BC12B3-5274-42E3-B5BC-F74F362F0DF4";
paths = (
{
closed = 1;
nodes = (
"80 0 LINE",
"398 0 LINE",
"478 220 LINE",
"1036 220 LINE",
"1116 0 LINE",
"1434 0 LINE",
"926 1400 LINE",
"588 1400 LINE"
);
},
{
closed = 1;
nodes = (
"756 984 LINE",
"926 520 LINE",
"588 520 LINE"
);
}
);
width = 1514;
},
{
anchors = (
{
name = bottom;
position = "{636, 0}";
},
{
name = ogonek;
position = "{1192, 0}";
},
{
name = top;
position = "{636, 1400}";
}
);
hints = (
{
horizontal = 1;
origin = "{0, 0}";
target = up;
type = BottomGhost;
},
{
horizontal = 1;
origin = "{0, 2}";
target = "{1, 2}";
type = Stem;
},
{
horizontal = 1;
origin = "{0, 7}";
target = "{1, 0}";
type = Stem;
}
);
layerId = "9AF1F7D9-E035-453E-B2A8-46DE370997D0";
paths = (
{
closed = 1;
nodes = (
"80 0 LINE",
"144 0 LINE",
"268 340 LINE",
"1004 340 LINE",
"1128 0 LINE",
"1192 0 LINE",
"682 1400 LINE",
"590 1400 LINE"
);
},
{
closed = 1;
nodes = (
"636 1350 LINE",
"982 400 LINE",
"290 400 LINE"
);
}
);
width = 1272;
},
{
anchors = (
{
name = bottom;
position = "{538, 0}";
},
{
name = ogonek;
position = "{1094, 0}";
},
{
name = top;
position = "{734, 1400}";
}
);
hints = (
{
horizontal = 1;
origin = "{0, 0}";
target = up;
type = BottomGhost;
},
{
horizontal = 1;
origin = "{0, 2}";
target = "{1, 2}";
type = Stem;
},
{
horizontal = 1;
origin = "{0, 7}";
target = "{1, 0}";
type = Stem;
}
);
layerId = m003;
paths = (
{
closed = 1;
nodes = (
"-18 0 LINE",
"46 0 LINE",
"217 340 LINE",
"953 340 LINE",
"1030 0 LINE",
"1094 0 LINE",
"780 1400 LINE",
"688 1400 LINE"
);
},
{
closed = 1;
nodes = (
"727 1350 LINE",
"940 400 LINE",
"248 400 LINE"
);
}
);
width = 1272;
},
{
anchors = (
{
name = bottom;
position = "{659, 0}";
},
{
name = ogonek;
position = "{1336, 0}";
},
{
name = top;
position = "{855, 1400}";
}
);
hints = (
{
horizontal = 1;
origin = "{0, 0}";
target = up;
type = BottomGhost;
},
{
horizontal = 1;
origin = "{0, 2}";
target = "{1, 2}";
type = Stem;
},
{
horizontal = 1;
origin = "{0, 7}";
target = down;
type = TopGhost;
}
);
layerId = m004;
paths = (
{
closed = 1;
nodes = (
"-18 0 LINE",
"300 0 LINE",
"411 220 LINE",
"969 220 LINE",
"1018 0 LINE",
"1336 0 LINE",
"1024 1400 LINE",
"686 1400 LINE"
);
},
{
closed = 1;
nodes = (
"796 984 LINE",
"901 520 LINE",
"563 520 LINE"
);
}
);
width = 1514;
},
{
anchors = (
{
name = bottom;
position = "{676, 0}";
},
{
name = ogonek;
position = "{1273, 0}";
},
{
name = top;
position = "{676, 1400}";
}
);
hints = (
{
horizontal = 1;
origin = "{0, 0}";
target = up;
type = BottomGhost;
},
{
horizontal = 1;
origin = "{0, 2}";
target = "{1, 2}";
type = Stem;
},
{
horizontal = 1;
origin = "{0, 7}";
target = "{1, 0}";
type = Stem;
}
);
layerId = "F7B0483F-D4AC-485F-91A2-832BFA93C9DB";
paths = (
{
closed = 1;
nodes = (
"80 0 LINE",
"229 0 LINE",
"338 300 LINE",
"1015 300 LINE",
"1124 0 LINE",
"1273 0 LINE",
"763 1400 LINE",
"589 1400 LINE"
);
},
{
closed = 1;
nodes = (
"676 1228 LINE",
"963 440 LINE",
"389 440 LINE"
);
}
);
width = 1352.66667;
},
{
anchors = (
{
name = bottom;
position = "{578, 0}";
},
{
name = ogonek;
position = "{1175, 0}";
},
{
name = top;
position = "{774, 1400}";
}
);
hints = (
{
horizontal = 1;
origin = "{0, 0}";
target = up;
type = BottomGhost;
},
{
horizontal = 1;
origin = "{0, 2}";
target = "{1, 2}";
type = Stem;
},
{
horizontal = 1;
origin = "{0, 7}";
target = "{1, 0}";
type = Stem;
}
);
layerId = "A034D368-5B08-4DC5-B558-B81FD113CC46";
paths = (
{
closed = 1;
nodes = (
"-18 0 LINE",
"131 0 LINE",
"282 300 LINE",
"958 300 LINE",
"1026 0 LINE",
"1175 0 LINE",
"861 1400 LINE",
"687 1400 LINE"
);
},
{
closed = 1;
nodes = (
"750 1228 LINE",
"927 440 LINE",
"353 440 LINE"
);
}
);
width = 1352.66667;
}
);
leftKerningGroup = A;
rightKerningGroup = A;
unicode = 0041;
},
{
glyphname = AE;
lastChange = "2021-10-25 19:38:01 +0000";
layers = (
{
anchors = (
{
name = bottom;
position = "{855, 0}";
},
{
name = top;
position = "{1099, 1400}";
}
);
hints = (
{
horizontal = 1;
origin = "{0, 15}";
target = "{0, 6}";
type = Stem;
},
{
horizontal = 1;
origin = "{0, 7}";
target = "{0, 10}";
type = Stem;
},
{
horizontal = 1;
origin = "{0, 14}";
target = "{1, 0}";
type = Stem;
},
{
horizontal = 1;
origin = "{0, 1}";
target = "{1, 3}";
type = Stem;
},
{
origin = "{0, 3}";
target = "{0, 6}";
type = Stem;
}
);
layerId = "10BC12B3-5274-42E3-B5BC-F74F362F0DF4";
paths = (
{
closed = 1;
nodes = (
"398 0 LINE",
"478 220 LINE",
"858 220 LINE",
"858 0 LINE",
"1610 0 LINE",
"1610 300 LINE",
"1158 300 LINE",
"1158 550 LINE",
"1514 550 LINE",
"1514 850 LINE",
"1158 850 LINE",
"1158 1100 LINE",
"1610 1100 LINE",
"1610 1400 LINE",
"588 1400 LINE",
"80 0 LINE"
);
},
{
closed = 1;
nodes = (
"798 1100 LINE",
"858 1100 LINE",
"858 520 LINE",
"588 520 LINE"
);
}
);
width = 1710;
},
{
anchors = (
{
name = bottom;
position = "{787, 0}";
},
{
name = top;
position = "{1032, 1400}";
}
);
hints = (
{
horizontal = 1;
origin = "{0, 15}";
target = "{0, 6}";
type = Stem;
},
{
horizontal = 1;
origin = "{0, 1}";
target = "{1, 3}";
type = Stem;
},
{
horizontal = 1;
origin = "{0, 7}";
target = "{0, 10}";
type = Stem;
},
{
horizontal = 1;
origin = "{0, 14}";
target = "{1, 0}";
type = Stem;
},
{
origin = "{0, 3}";
target = "{0, 6}";
type = Stem;
}
);
layerId = "9AF1F7D9-E035-453E-B2A8-46DE370997D0";
paths = (
{
closed = 1;
nodes = (
"144 0 LINE",
"268 340 LINE",
"782 340 LINE",
"782 0 LINE",
"1474 0 LINE",
"1474 60 LINE",
"842 60 LINE",
"842 670 LINE",
"1378 670 LINE",
"1378 730 LINE",
"842 730 LINE",
"842 1340 LINE",
"1474 1340 LINE",
"1474 1400 LINE",
"590 1400 LINE",
"80 0 LINE"
);
},
{
closed = 1;
nodes = (
"634 1340 LINE",
"782 1340 LINE",
"782 400 LINE",
"290 400 LINE"
);
}
);
width = 1574;
},
{
anchors = (
{
name = bottom;
position = "{689, 0}";
},
{
name = top;
position = "{1130, 1400}";
}
);
hints = (
{
horizontal = 1;
origin = "{0, 15}";
target = "{0, 6}";
type = Stem;
},
{
horizontal = 1;
origin = "{0, 1}";
target = "{1, 3}";
type = Stem;
},
{
horizontal = 1;
origin = "{0, 7}";
target = "{0, 10}";
type = Stem;
},
{
horizontal = 1;
origin = "{0, 14}";
target = "{1, 0}";
type = Stem;
},
{
origin = "{0, 3}";
target = "{0, 6}";
type = Stem;
}
);
layerId = m003;
paths = (
{
closed = 1;
nodes = (
"46 0 LINE",
"217 340 LINE",
"731 340 LINE",
"684 0 LINE",
"1376 0 LINE",
"1384 60 LINE",
"752 60 LINE",
"838 670 LINE",
"1374 670 LINE",
"1382 730 LINE",
"846 730 LINE",
"932 1340 LINE",
"1564 1340 LINE",
"1572 1400 LINE",
"688 1400 LINE",
"-18 0 LINE"
);
},
{
closed = 1;
nodes = (
"724 1340 LINE",
"872 1340 LINE",
"740 400 LINE",
"248 400 LINE"
);
}
);
width = 1574;
},
{
anchors = (
{
name = bottom;
position = "{757, 0}";
},
{
name = top;
position = "{1197, 1400}";
}
);
hints = (
{
horizontal = 1;
origin = "{0, 15}";
target = "{0, 6}";
type = Stem;
},
{
horizontal = 1;
origin = "{0, 7}";
target = "{0, 10}";
type = Stem;
},
{
horizontal = 1;
origin = "{0, 14}";
target = "{1, 0}";
type = Stem;
},
{
horizontal = 1;
origin = "{0, 1}";
target = "{1, 3}";
type = Stem;
},
{
origin = "{0, 3}";
target = "{0, 6}";
type = Stem;
}
);
layerId = m004;
paths = (
{
closed = 1;
nodes = (
"300 0 LINE",
"411 220 LINE",
"791 220 LINE",
"760 0 LINE",
"1512 0 LINE",
"1554 300 LINE",
"1102 300 LINE",
"1137 550 LINE",
"1493 550 LINE",
"1535 850 LINE",
"1179 850 LINE",
"1214 1100 LINE",
"1666 1100 LINE",
"1708 1400 LINE",
"686 1400 LINE",
"-18 0 LINE"
);
},
{
closed = 1;
nodes = (
"854 1100 LINE",
"914 1100 LINE",
"833 520 LINE",
"563 520 LINE"
);
}
);
width = 1710;
},
{
anchors = (
{
name = bottom;
position = "{810, 0}";
},
{
name = top;
position = "{1054, 1400}";
}
);
hints = (
{
horizontal = 1;
origin = "{0, 15}";
target = "{0, 6}";
type = Stem;
},
{
horizontal = 1;
origin = "{0, 1}";
target = "{1, 3}";
type = Stem;
},
{
horizontal = 1;
origin = "{0, 7}";
target = "{0, 10}";
type = Stem;
},
{
horizontal = 1;
origin = "{0, 14}";
target = "{1, 0}";
type = Stem;
},
{
origin = "{0, 3}";
target = "{0, 6}";
type = Stem;
}
);
layerId = "F7B0483F-D4AC-485F-91A2-832BFA93C9DB";
paths = (
{
closed = 1;
nodes = (
"229 0 LINE",
"338 300 LINE",
"807 300 LINE",
"807 0 LINE",
"1519 0 LINE",
"1519 140 LINE",
"947 140 LINE",
"947 630 LINE",
"1423 630 LINE",
"1423 770 LINE",
"947 770 LINE",
"947 1260 LINE",
"1519 1260 LINE",
"1519 1400 LINE",
"589 1400 LINE",
"80 0 LINE"
);
},
{
closed = 1;
nodes = (
"689 1260 LINE",
"807 1260 LINE",
"807 440 LINE",
"389 440 LINE"
);
}
);
width = 1619.33333;
},
{
anchors = (
{
name = bottom;
position = "{712, 0}";
},
{
name = top;
position = "{1152, 1400}";
}
);
hints = (
{
horizontal = 1;
origin = "{0, 15}";
target = "{0, 6}";
type = Stem;
},
{
horizontal = 1;
origin = "{0, 1}";
target = "{1, 3}";
type = Stem;
},
{
horizontal = 1;
origin = "{0, 7}";
target = "{0, 10}";
type = Stem;
},
{
horizontal = 1;
origin = "{0, 14}";
target = "{1, 0}";
type = Stem;
},
{
origin = "{0, 3}";
target = "{0, 6}";
type = Stem;
}
);
layerId = "A034D368-5B08-4DC5-B558-B81FD113CC46";
paths = (
{
closed = 1;
nodes = (
"131 0 LINE",
"282 300 LINE",
"751 300 LINE",
"709 0 LINE",
"1421 0 LINE",
"1441 140 LINE",
"869 140 LINE",
"938 630 LINE",
"1414 630 LINE",
"1433 770 LINE",
"957 770 LINE",
"1026 1260 LINE",
"1598 1260 LINE",
"1617 1400 LINE",
"687 1400 LINE",
"-18 0 LINE"
);
},
{
closed = 1;
nodes = (
"767 1260 LINE",
"886 1260 LINE",
"771 440 LINE",
"353 440 LINE"
);
}
);
width = 1619.33333;
}
);
leftKerningGroup = A;
leftMetricsKey = A;
rightKerningGroup = E;
rightMetricsKey = E;
unicode = 00C6;
},
{
glyphname = B;
lastChange = "2021-10-25 19:38:01 +0000";
layers = (
{
anchors = (
{
name = bottom;
position = "{603, 0}";
},
{
name = top;
position = "{603, 1400}";
}
);
hints = (
{
horizontal = 1;
origin = "{0, 14}";
target = "{1, 8}";
type = Stem;
},
{
horizontal = 1;
origin = "{1, 0}";
target = "{2, 8}";
type = Stem;
},
{
horizontal = 1;
origin = "{0, 13}";
target = "{2, 0}";
type = Stem;
},
{
origin = "{0, 14}";
target = "{1, 8}";
type = Stem;
},
{
origin = "{2, 4}";
target = "{0, 9}";
type = Stem;
},
{
origin = "{1, 4}";
target = "{0, 3}";
type = Stem;
}
);
layerId = "10BC12B3-5274-42E3-B5BC-F74F362F0DF4";
paths = (
{
closed = 1;
nodes = (
"704 0 LINE SMOOTH",
"936 0 OFFCURVE",
"1126 170 OFFCURVE",
"1126 382 CURVE SMOOTH",
"1126 506 OFFCURVE",
"1108 721 OFFCURVE",
"930 765 CURVE",
"1034 813 OFFCURVE",
"1060 926 OFFCURVE",
"1060 1014 CURVE SMOOTH",
"1060 1248 OFFCURVE",
"880 1400 OFFCURVE",
"650 1400 CURVE SMOOTH",
"120 1400 LINE",
"120 0 LINE"
);
},
{
closed = 1;
nodes = (
"420 625 LINE",
"672 625 LINE SMOOTH",
"776 625 OFFCURVE",
"860 536 OFFCURVE",
"860 444 CURVE SMOOTH",
"860 334 OFFCURVE",
"776 254 OFFCURVE",
"672 254 CURVE SMOOTH",
"420 254 LINE"
);
},
{
closed = 1;
nodes = (
"420 1144 LINE",
"614 1144 LINE SMOOTH",
"694 1144 OFFCURVE",
"760 1098 OFFCURVE",
"760 1016 CURVE SMOOTH",
"760 934 OFFCURVE",
"694 875 OFFCURVE",
"614 875 CURVE SMOOTH",
"420 875 LINE"
);
}
);
width = 1206;
},
{
anchors = (
{
name = bottom;
position = "{535, 0}";
},
{
name = top;
position = "{535, 1400}";
}
);
hints = (
{
horizontal = 1;
origin = "{0, 14}";
target = "{1, 8}";
type = Stem;
},
{
horizontal = 1;
origin = "{1, 0}";
target = "{2, 8}";
type = Stem;
},
{
horizontal = 1;
origin = "{2, 0}";
target = "{0, 13}";
type = Stem;
},
{
origin = "{0, 14}";
target = "{1, 8}";
type = Stem;
},
{
origin = "{1, 4}";
target = "{0, 3}";
type = Stem;
},
{
origin = "{2, 4}";
target = "{0, 9}";
type = Stem;
}
);
layerId = "9AF1F7D9-E035-453E-B2A8-46DE370997D0";
paths = (
{
closed = 1;
nodes = (
"630 0 LINE SMOOTH",
"828 0 OFFCURVE",
"990 152 OFFCURVE",
"990 402 CURVE SMOOTH",
"990 566 OFFCURVE",
"892 731 OFFCURVE",
"732 776 CURVE",
"808 788 OFFCURVE",
"912 913 OFFCURVE",
"912 1061 CURVE SMOOTH",
"912 1283 OFFCURVE",
"756 1400 OFFCURVE",
"564 1400 CURVE SMOOTH",
"120 1400 LINE",
"120 0 LINE"
);
},
{
closed = 1;
nodes = (
"180 740 LINE",
"630 740 LINE SMOOTH",
"796 740 OFFCURVE",
"930 578 OFFCURVE",
"930 402 CURVE SMOOTH",
"930 206 OFFCURVE",
"796 60 OFFCURVE",
"630 60 CURVE SMOOTH",
"180 60 LINE"
);
},
{
closed = 1;
nodes = (
"180 1340 LINE",
"564 1340 LINE SMOOTH",
"722 1340 OFFCURVE",
"852 1251 OFFCURVE",
"852 1061 CURVE SMOOTH",
"852 891 OFFCURVE",
"722 800 OFFCURVE",
"564 800 CURVE SMOOTH",
"180 800 LINE"
);
}
);
width = 1070;
},
{
anchors = (
{
name = bottom;
position = "{437, 0}";
},
{
name = top;
position = "{633, 1400}";
}
);
hints = (
{
horizontal = 1;
origin = "{0, 14}";
target = "{1, 8}";
type = Stem;
},
{
horizontal = 1;
origin = "{1, 0}";
target = "{2, 8}";
type = Stem;
},
{
horizontal = 1;
origin = "{2, 0}";
target = "{0, 13}";
type = Stem;
},
{
origin = "{0, 14}";
target = "{1, 8}";
type = Stem;
},
{
origin = "{1, 4}";
target = "{0, 3}";
type = Stem;
},
{
origin = "{2, 4}";
target = "{0, 9}";
type = Stem;
}
);
layerId = m003;
paths = (
{
closed = 1;
nodes = (
"532 0 LINE SMOOTH",
"730 0 OFFCURVE",
"913 152 OFFCURVE",
"948 402 CURVE SMOOTH",
"971 566 OFFCURVE",
"896 731 OFFCURVE",
"743 776 CURVE",
"820 788 OFFCURVE",
"942 913 OFFCURVE",
"963 1061 CURVE SMOOTH",
"994 1283 OFFCURVE",
"854 1400 OFFCURVE",
"662 1400 CURVE SMOOTH",
"218 1400 LINE",
"22 0 LINE"
);
},
{
closed = 1;
nodes = (
"186 740 LINE",
"636 740 LINE SMOOTH",
"802 740 OFFCURVE",
"913 578 OFFCURVE",
"888 402 CURVE SMOOTH",
"861 206 OFFCURVE",
"706 60 OFFCURVE",
"540 60 CURVE SMOOTH",
"90 60 LINE"
);
},
{
closed = 1;
nodes = (
"270 1340 LINE",
"654 1340 LINE SMOOTH",
"812 1340 OFFCURVE",
"929 1251 OFFCURVE",
"903 1061 CURVE SMOOTH",
"879 891 OFFCURVE",
"736 800 OFFCURVE",
"578 800 CURVE SMOOTH",
"194 800 LINE"
);
}
);
width = 1070;
},
{
anchors = (
{
name = bottom;
position = "{505, 0}";
},
{
name = top;
position = "{701, 1400}";
}
);
hints = (
{
horizontal = 1;
origin = "{0, 14}";
target = "{1, 8}";
type = Stem;
},
{
horizontal = 1;
origin = "{1, 0}";
target = "{2, 8}";
type = Stem;
},
{
horizontal = 1;
origin = "{0, 13}";
target = "{2, 0}";
type = Stem;
},
{
origin = "{0, 14}";
target = "{1, 8}";
type = Stem;
},
{
origin = "{2, 4}";
target = "{0, 9}";
type = Stem;
},
{
origin = "{1, 4}";
target = "{0, 3}";
type = Stem;
}
);
layerId = m004;
paths = (
{
closed = 1;
nodes = (
"606 0 LINE SMOOTH",
"838 0 OFFCURVE",
"1052 170 OFFCURVE",
"1081 382 CURVE SMOOTH",
"1099 506 OFFCURVE",
"1111 721 OFFCURVE",
"939 765 CURVE",
"1050 813 OFFCURVE",
"1092 926 OFFCURVE",
"1104 1014 CURVE SMOOTH",
"1137 1248 OFFCURVE",
"978 1400 OFFCURVE",
"748 1400 CURVE SMOOTH",
"218 1400 LINE",
"22 0 LINE"
);
},
{
closed = 1;
nodes = (
"409 625 LINE",
"661 625 LINE SMOOTH",
"765 625 OFFCURVE",
"837 536 OFFCURVE",
"824 444 CURVE SMOOTH",
"809 334 OFFCURVE",
"713 254 OFFCURVE",
"609 254 CURVE SMOOTH",
"357 254 LINE"
);
},
{
closed = 1;
nodes = (
"482 1144 LINE",
"676 1144 LINE SMOOTH",
"756 1144 OFFCURVE",
"816 1098 OFFCURVE",
"804 1016 CURVE SMOOTH",
"793 934 OFFCURVE",
"719 875 OFFCURVE",
"639 875 CURVE SMOOTH",
"445 875 LINE"
);
}
);
width = 1206;
},
{
anchors = (
{
name = bottom;
position = "{558, 0}";
},
{
name = top;
position = "{558, 1400}";
}
);
hints = (
{
horizontal = 1;
origin = "{0, 14}";
target = "{1, 8}";
type = Stem;
},
{
horizontal = 1;
origin = "{1, 0}";
target = "{2, 8}";
type = Stem;
},
{
horizontal = 1;
origin = "{2, 0}";
target = "{0, 13}";
type = Stem;
},
{
origin = "{0, 14}";
target = "{1, 8}";
type = Stem;
},
{
origin = "{1, 4}";
target = "{0, 3}";
type = Stem;
},
{
origin = "{2, 4}";
target = "{0, 9}";
type = Stem;
}
);
layerId = "F7B0483F-D4AC-485F-91A2-832BFA93C9DB";
paths = (
{
closed = 1;
nodes = (
"655 0 LINE SMOOTH",
"864 0 OFFCURVE",
"1035 158 OFFCURVE",
"1035 395 CURVE SMOOTH",
"1035 546 OFFCURVE",
"964 728 OFFCURVE",
"798 772 CURVE",
"883 796 OFFCURVE",
"961 917 OFFCURVE",
"961 1045 CURVE SMOOTH",
"961 1271 OFFCURVE",
"797 1400 OFFCURVE",
"593 1400 CURVE SMOOTH",
"120 1400 LINE",
"120 0 LINE"
);
},
{
closed = 1;
nodes = (
"260 702 LINE",
"644 702 LINE SMOOTH",
"789 702 OFFCURVE",
"907 564 OFFCURVE",
"907 416 CURVE SMOOTH",
"907 249 OFFCURVE",
"789 125 OFFCURVE",
"644 125 CURVE SMOOTH",
"260 125 LINE"
);
},
{
closed = 1;
nodes = (
"260 1275 LINE",
"581 1275 LINE SMOOTH",
"713 1275 OFFCURVE",
"821 1200 OFFCURVE",
"821 1046 CURVE SMOOTH",
"821 905 OFFCURVE",
"713 825 OFFCURVE",
"581 825 CURVE SMOOTH",
"260 825 LINE"
);
}
);
width = 1115.33333;
},
{
anchors = (
{
name = bottom;
position = "{460, 0}";
},
{
name = top;
position = "{656, 1400}";
}
);
hints = (
{
horizontal = 1;
origin = "{0, 14}";
target = "{1, 8}";
type = Stem;
},
{
horizontal = 1;
origin = "{1, 0}";
target = "{2, 8}";
type = Stem;
},
{
horizontal = 1;
origin = "{2, 0}";
target = "{0, 13}";
type = Stem;
},
{
origin = "{0, 14}";
target = "{1, 8}";
type = Stem;
},
{
origin = "{1, 4}";
target = "{0, 3}";
type = Stem;
},
{
origin = "{2, 4}";
target = "{0, 9}";
type = Stem;
}
);
layerId = "A034D368-5B08-4DC5-B558-B81FD113CC46";
paths = (
{
closed = 1;
nodes = (
"557 0 LINE SMOOTH",
"766 0 OFFCURVE",
"959 158 OFFCURVE",
"992 395 CURVE SMOOTH",
"1014 546 OFFCURVE",
"968 728 OFFCURVE",
"808 772 CURVE",
"897 796 OFFCURVE",
"992 917 OFFCURVE",
"1010 1045 CURVE SMOOTH",
"1042 1271 OFFCURVE",
"895 1400 OFFCURVE",
"691 1400 CURVE SMOOTH",
"218 1400 LINE",
"22 0 LINE"
);
},
{
closed = 1;
nodes = (
"260 702 LINE",
"644 702 LINE SMOOTH",
"790 702 OFFCURVE",
"888 564 OFFCURVE",
"867 416 CURVE SMOOTH",
"844 249 OFFCURVE",
"708 125 OFFCURVE",
"563 125 CURVE SMOOTH",
"179 125 LINE"
);
},
{
closed = 1;
nodes = (
"341 1275 LINE",
"661 1275 LINE SMOOTH",
"793 1275 OFFCURVE",
"891 1200 OFFCURVE",
"870 1046 CURVE SMOOTH",
"850 905 OFFCURVE",
"730 825 OFFCURVE",
"598 825 CURVE SMOOTH",
"278 825 LINE"
);
}
);
width = 1115.33333;
}
);
leftKerningGroup = H;
leftMetricsKey = H;
rightKerningGroup = B;
unicode = 0042;
},
{
glyphname = C;
lastChange = "2021-10-25 19:38:01 +0000";
layers = (
{
anchors = (
{
name = bottom;
position = "{768, 0}";
},
{
name = top;
position = "{768, 1400}";
}
);
hints = (
{
horizontal = 1;
origin = "{0, 25}";
target = "{0, 6}";
type = Stem;
},
{
horizontal = 1;
origin = "{0, 19}";
target = "{0, 12}";
type = Stem;
},
{
origin = "{0, 22}";
target = "{0, 9}";
type = Stem;
}
);
layerId = "10BC12B3-5274-42E3-B5BC-F74F362F0DF4";
paths = (
{
closed = 1;
nodes = (
"994 -26 OFFCURVE",
"1192 88 OFFCURVE",
"1318 262 CURVE",
"1050 408 LINE",
"980 326 OFFCURVE",
"880 274 OFFCURVE",
"768 274 CURVE SMOOTH",
"554 274 OFFCURVE",
"380 466 OFFCURVE",
"380 700 CURVE SMOOTH",
"380 936 OFFCURVE",
"554 1126 OFFCURVE",
"768 1126 CURVE SMOOTH",
"880 1126 OFFCURVE",
"980 1074 OFFCURVE",
"1050 994 CURVE",
"1318 1138 LINE",
"1192 1312 OFFCURVE",
"994 1426 OFFCURVE",
"768 1426 CURVE SMOOTH",
"388 1426 OFFCURVE",
"80 1102 OFFCURVE",
"80 700 CURVE SMOOTH",
"80 300 OFFCURVE",
"388 -26 OFFCURVE",
"768 -26 CURVE SMOOTH"
);
}
);
width = 1418;
},
{
anchors = (
{
name = bottom;
position = "{768, 0}";
},
{
name = top;
position = "{768, 1400}";
}
);
hints = (
{
horizontal = 1;
origin = "{0, 25}";
target = "{0, 6}";
type = Stem;
},
{
horizontal = 1;
origin = "{0, 19}";
target = "{0, 12}";
type = Stem;
},
{
origin = "{0, 22}";
target = "{0, 9}";
type = Stem;
}
);
layerId = "9AF1F7D9-E035-453E-B2A8-46DE370997D0";
paths = (
{
closed = 1;
nodes = (
"994 -26 OFFCURVE",
"1192 86 OFFCURVE",
"1318 262 CURVE",
"1266 290 LINE",
"1156 138 OFFCURVE",
"972 34 OFFCURVE",
"768 34 CURVE SMOOTH",
"422 34 OFFCURVE",
"140 332 OFFCURVE",
"140 700 CURVE SMOOTH",
"140 1058 OFFCURVE",
"416 1366 OFFCURVE",
"768 1366 CURVE SMOOTH",
"962 1366 OFFCURVE",
"1152 1266 OFFCURVE",
"1266 1108 CURVE",
"1318 1136 LINE",
"1192 1312 OFFCURVE",
"994 1426 OFFCURVE",
"768 1426 CURVE SMOOTH",
"388 1426 OFFCURVE",
"80 1100 OFFCURVE",
"80 700 CURVE SMOOTH",
"80 298 OFFCURVE",
"388 -26 OFFCURVE",
"768 -26 CURVE SMOOTH"
);
}
);
width = 1418;
},
{
anchors = (
{
name = bottom;
position = "{670, 0}";
},
{
name = top;
position = "{866, 1400}";
}
);
hints = (
{
horizontal = 1;
origin = "{0, 25}";
target = "{0, 6}";
type = Stem;
},
{
horizontal = 1;
origin = "{0, 19}";
target = "{0, 12}";
type = Stem;
},
{
origin = "{0, 22}";
target = "{0, 9}";
type = Stem;
}
);
layerId = m003;
paths = (
{
closed = 1;
nodes = (
"892 -26 OFFCURVE",
"1106 86 OFFCURVE",
"1256 262 CURVE",
"1208 290 LINE",
"1077 138 OFFCURVE",
"878 34 OFFCURVE",
"674 34 CURVE SMOOTH",
"328 34 OFFCURVE",
"88 332 OFFCURVE",
"140 700 CURVE SMOOTH",
"190 1058 OFFCURVE",
"510 1366 OFFCURVE",
"862 1366 CURVE SMOOTH",
"1056 1366 OFFCURVE",
"1232 1266 OFFCURVE",
"1323 1108 CURVE",
"1379 1136 LINE",
"1278 1312 OFFCURVE",
"1096 1426 OFFCURVE",
"870 1426 CURVE SMOOTH",
"490 1426 OFFCURVE",
"136 1100 OFFCURVE",
"80 700 CURVE SMOOTH",
"24 298 OFFCURVE",
"286 -26 OFFCURVE",
"666 -26 CURVE SMOOTH"
);
}
);
width = 1418;
},
{
anchors = (
{
name = bottom;
position = "{670, 0}";
},
{
name = top;
position = "{866, 1400}";
}
);
hints = (
{
horizontal = 1;
origin = "{0, 25}";
target = "{0, 6}";
type = Stem;
},
{
horizontal = 1;
origin = "{0, 19}";
target = "{0, 12}";
type = Stem;
},
{
origin = "{0, 22}";
target = "{0, 9}";
type = Stem;
}
);
layerId = m004;
paths = (
{
closed = 1;
nodes = (
"892 -26 OFFCURVE",
"1106 88 OFFCURVE",
"1256 262 CURVE",
"1009 408 LINE",
"927 326 OFFCURVE",
"820 274 OFFCURVE",
"708 274 CURVE SMOOTH",
"494 274 OFFCURVE",
"347 466 OFFCURVE",
"380 700 CURVE SMOOTH",
"413 936 OFFCURVE",
"614 1126 OFFCURVE",
"828 1126 CURVE SMOOTH",
"940 1126 OFFCURVE",
"1033 1074 OFFCURVE",
"1091 994 CURVE",
"1380 1138 LINE",
"1278 1312 OFFCURVE",
"1096 1426 OFFCURVE",
"870 1426 CURVE SMOOTH",
"490 1426 OFFCURVE",
"136 1102 OFFCURVE",
"80 700 CURVE SMOOTH",
"24 300 OFFCURVE",
"286 -26 OFFCURVE",
"666 -26 CURVE SMOOTH"
);
}
);
width = 1418;
},
{
anchors = (
{
name = bottom;
position = "{768, 0}";
},
{
name = top;
position = "{768, 1400}";
}
);
hints = (
{
horizontal = 1;
origin = "{0, 25}";
target = "{0, 6}";
type = Stem;
},
{
horizontal = 1;
origin = "{0, 19}";
target = "{0, 12}";
type = Stem;
},
{
origin = "{0, 22}";
target = "{0, 9}";
type = Stem;
}
);
layerId = "F7B0483F-D4AC-485F-91A2-832BFA93C9DB";
paths = (
{
closed = 1;
nodes = (
"994 -26 OFFCURVE",
"1192 87 OFFCURVE",
"1318 262 CURVE",
"1194 329 LINE",
"1097 201 OFFCURVE",
"941 114 OFFCURVE",
"768 114 CURVE SMOOTH",
"466 114 OFFCURVE",
"220 377 OFFCURVE",
"220 700 CURVE SMOOTH",
"220 1017 OFFCURVE",
"462 1286 OFFCURVE",
"768 1286 CURVE SMOOTH",
"935 1286 OFFCURVE",
"1095 1202 OFFCURVE",
"1194 1070 CURVE",
"1318 1137 LINE",
"1192 1312 OFFCURVE",
"994 1426 OFFCURVE",
"768 1426 CURVE SMOOTH",
"388 1426 OFFCURVE",
"80 1101 OFFCURVE",
"80 700 CURVE SMOOTH",
"80 299 OFFCURVE",
"388 -26 OFFCURVE",
"768 -26 CURVE SMOOTH"
);
}
);
width = 1418;
},
{
anchors = (
{
name = bottom;
position = "{670, 0}";
},
{
name = top;
position = "{866, 1400}";
}
);
hints = (
{
horizontal = 1;
origin = "{0, 25}";
target = "{0, 6}";
type = Stem;
},
{
horizontal = 1;
origin = "{0, 19}";
target = "{0, 12}";
type = Stem;
},
{
origin = "{0, 22}";
target = "{0, 9}";
type = Stem;
}
);
layerId = "A034D368-5B08-4DC5-B558-B81FD113CC46";
paths = (
{
closed = 1;
nodes = (
"892 -26 OFFCURVE",
"1106 87 OFFCURVE",
"1256 262 CURVE",
"1142 329 LINE",
"1027 201 OFFCURVE",
"859 114 OFFCURVE",
"685 114 CURVE SMOOTH",
"383 114 OFFCURVE",
"174 377 OFFCURVE",
"220 700 CURVE SMOOTH",
"264 1017 OFFCURVE",
"545 1286 OFFCURVE",
"851 1286 CURVE SMOOTH",
"1017 1286 OFFCURVE",
"1166 1202 OFFCURVE",
"1246 1070 CURVE",
"1379 1137 LINE",
"1278 1312 OFFCURVE",
"1096 1426 OFFCURVE",
"870 1426 CURVE SMOOTH",
"490 1426 OFFCURVE",
"136 1101 OFFCURVE",
"80 700 CURVE SMOOTH",
"24 299 OFFCURVE",
"286 -26 OFFCURVE",
"666 -26 CURVE SMOOTH"
);
}
);
width = 1418;
}
);
leftKerningGroup = O;
leftMetricsKey = O;
rightKerningGroup = C;
unicode = 0043;
},
{
glyphname = D;
lastChange = "2021-10-25 19:38:01 +0000";
layers = (
{
anchors = (
{
name = bottom;
position = "{652, 0}";
},
{
name = center;
position = "{672, 700}";
},
{
name = top;
position = "{652, 1400}";
}
);
hints = (
{
horizontal = 1;
origin = "{0, 8}";
target = "{1, 8}";
type = Stem;
},
{
horizontal = 1;
origin = "{0, 7}";
target = "{1, 0}";
type = Stem;
},
{
origin = "{0, 8}";
target = "{1, 8}";
type = Stem;
},
{
origin = "{1, 4}";
target = "{0, 3}";
type = Stem;
}
);
layerId = "10BC12B3-5274-42E3-B5BC-F74F362F0DF4";
paths = (
{
closed = 1;
nodes = (
"584 0 LINE SMOOTH",
"970 0 OFFCURVE",
"1284 314 OFFCURVE",
"1284 700 CURVE SMOOTH",
"1284 1086 OFFCURVE",
"970 1400 OFFCURVE",
"584 1400 CURVE SMOOTH",
"120 1400 LINE",
"120 0 LINE"
);
},
{
closed = 1;
nodes = (
"420 1100 LINE",
"584 1100 LINE SMOOTH",
"802 1100 OFFCURVE",
"984 920 OFFCURVE",
"984 700 CURVE SMOOTH",
"984 478 OFFCURVE",
"800 300 OFFCURVE",
"584 300 CURVE SMOOTH",
"420 300 LINE"
);
}
);
width = 1344;
},
{
anchors = (
{
name = bottom;
position = "{672, 0}";
},
{
name = center;
position = "{671, 700}";
},
{
name = top;
position = "{652, 1400}";
}
);
hints = (
{
horizontal = 1;
origin = "{0, 8}";
target = "{1, 8}";
type = Stem;
},
{
horizontal = 1;
origin = "{0, 7}";
target = "{1, 0}";
type = Stem;
},
{
origin = "{0, 8}";
target = "{1, 8}";
type = Stem;
},
{
origin = "{1, 4}";
target = "{0, 3}";
type = Stem;
}
);
layerId = "9AF1F7D9-E035-453E-B2A8-46DE370997D0";
paths = (
{
closed = 1;
nodes = (
"582 0 LINE SMOOTH",
"970 0 OFFCURVE",
"1282 314 OFFCURVE",
"1282 700 CURVE SMOOTH",
"1282 1086 OFFCURVE",
"970 1400 OFFCURVE",
"582 1400 CURVE SMOOTH",
"120 1400 LINE",
"120 0 LINE"
);
},
{
closed = 1;
nodes = (
"180 1340 LINE",
"582 1340 LINE SMOOTH",
"936 1340 OFFCURVE",
"1222 1054 OFFCURVE",
"1222 700 CURVE SMOOTH",
"1222 346 OFFCURVE",
"938 60 OFFCURVE",
"582 60 CURVE SMOOTH",
"180 60 LINE"
);
}
);
width = 1342;
},
{
anchors = (
{
name = bottom;
position = "{574, 0}";
},
{
name = center;
position = "{671, 700}";
},
{
name = top;
position = "{750, 1400}";
}
);
hints = (
{
horizontal = 1;
origin = "{0, 8}";
target = "{1, 8}";
type = Stem;
},
{
horizontal = 1;
origin = "{0, 7}";
target = "{1, 0}";
type = Stem;
},
{
origin = "{0, 8}";
target = "{1, 8}";
type = Stem;
},
{
origin = "{1, 4}";
target = "{0, 3}";
type = Stem;
}
);
layerId = m003;
paths = (
{
closed = 1;
nodes = (
"484 0 LINE SMOOTH",
"872 0 OFFCURVE",
"1228 314 OFFCURVE",
"1282 700 CURVE SMOOTH",
"1336 1086 OFFCURVE",
"1068 1400 OFFCURVE",
"680 1400 CURVE SMOOTH",
"218 1400 LINE",
"22 0 LINE"
);
},
{
closed = 1;
nodes = (
"270 1340 LINE",
"672 1340 LINE SMOOTH",
"1026 1340 OFFCURVE",
"1272 1054 OFFCURVE",
"1222 700 CURVE SMOOTH",
"1172 346 OFFCURVE",
"848 60 OFFCURVE",
"492 60 CURVE SMOOTH",
"90 60 LINE"
);
}
);
width = 1342;
},
{
anchors = (
{
name = bottom;
position = "{554, 0}";
},
{
name = center;
position = "{672, 700}";
},
{
name = top;
position = "{750, 1400}";
}
);
hints = (
{
horizontal = 1;
origin = "{0, 8}";
target = "{1, 8}";
type = Stem;
},
{
horizontal = 1;
origin = "{0, 7}";
target = "{1, 0}";
type = Stem;
},
{
origin = "{0, 8}";
target = "{1, 8}";
type = Stem;
},
{
origin = "{1, 4}";
target = "{0, 3}";
type = Stem;
}
);
layerId = m004;
paths = (
{
closed = 1;
nodes = (
"486 0 LINE SMOOTH",
"872 0 OFFCURVE",
"1230 314 OFFCURVE",
"1284 700 CURVE SMOOTH",
"1338 1086 OFFCURVE",
"1068 1400 OFFCURVE",
"682 1400 CURVE SMOOTH",
"218 1400 LINE",
"22 0 LINE"
);
},
{
closed = 1;
nodes = (
"476 1100 LINE",
"640 1100 LINE SMOOTH",
"858 1100 OFFCURVE",
"1015 920 OFFCURVE",
"984 700 CURVE SMOOTH",
"953 478 OFFCURVE",
"744 300 OFFCURVE",
"528 300 CURVE SMOOTH",
"364 300 LINE"
);
}
);
width = 1344;
},
{
anchors = (
{
name = bottom;
position = "{665, 0}";
},
{
name = center;
position = "{671, 700}";
},
{
name = top;
position = "{652, 1400}";
}
);
hints = (
{
horizontal = 1;
origin = "{0, 8}";
target = "{1, 8}";
type = Stem;
},
{
horizontal = 1;
origin = "{0, 7}";
target = "{1, 0}";
type = Stem;
},
{
origin = "{0, 8}";
target = "{1, 8}";
type = Stem;
},
{
origin = "{1, 4}";
target = "{0, 3}";
type = Stem;
}
);
layerId = "F7B0483F-D4AC-485F-91A2-832BFA93C9DB";
paths = (
{
closed = 1;
nodes = (
"583 0 LINE SMOOTH",
"970 0 OFFCURVE",
"1283 314 OFFCURVE",
"1283 700 CURVE SMOOTH",
"1283 1086 OFFCURVE",
"970 1400 OFFCURVE",
"583 1400 CURVE SMOOTH",
"120 1400 LINE",
"120 0 LINE"
);
},
{
closed = 1;
nodes = (
"260 1260 LINE",
"583 1260 LINE SMOOTH",
"891 1260 OFFCURVE",
"1143 1009 OFFCURVE",
"1143 700 CURVE SMOOTH",
"1143 390 OFFCURVE",
"892 140 OFFCURVE",
"583 140 CURVE SMOOTH",
"260 140 LINE"
);
}
);
width = 1342.66667;
},
{
anchors = (
{
name = bottom;
position = "{567, 0}";
},
{
name = center;
position = "{671, 700}";
},
{
name = top;
position = "{750, 1400}";
}
);
hints = (
{
horizontal = 1;
origin = "{0, 8}";
target = "{1, 8}";
type = Stem;
},
{
horizontal = 1;
origin = "{0, 7}";
target = "{1, 0}";
type = Stem;
},
{
origin = "{0, 8}";
target = "{1, 8}";
type = Stem;
},
{
origin = "{1, 4}";
target = "{0, 3}";
type = Stem;
}
);
layerId = "A034D368-5B08-4DC5-B558-B81FD113CC46";
paths = (
{
closed = 1;
nodes = (
"485 0 LINE SMOOTH",
"872 0 OFFCURVE",
"1229 314 OFFCURVE",
"1283 700 CURVE SMOOTH",
"1337 1086 OFFCURVE",
"1068 1400 OFFCURVE",
"681 1400 CURVE SMOOTH",
"218 1400 LINE",
"22 0 LINE"
);
},
{
closed = 1;
nodes = (
"339 1260 LINE",
"661 1260 LINE SMOOTH",
"970 1260 OFFCURVE",
"1186 1009 OFFCURVE",
"1143 700 CURVE SMOOTH",
"1099 390 OFFCURVE",
"813 140 OFFCURVE",
"504 140 CURVE SMOOTH",
"181 140 LINE"
);
}
);
width = 1342.66667;
}
);
leftKerningGroup = H;
leftMetricsKey = H;
rightKerningGroup = O;
unicode = 0044;
},
{
glyphname = Eth;
lastChange = "2021-10-25 19:38:01 +0000";
layers = (
{
hints = (
{
horizontal = 1;
origin = "{0, 12}";
target = "{1, 12}";
type = Stem;
},
{
horizontal = 1;
origin = "{0, 10}";
target = "{0, 9}";
type = Stem;
},
{
horizontal = 1;
origin = "{0, 7}";
target = "{1, 4}";
type = Stem;
},
{
origin = "{0, 12}";
target = "{1, 12}";
type = Stem;
},
{
origin = "{1, 8}";
target = "{0, 3}";
type = Stem;
}
);
layerId = "10BC12B3-5274-42E3-B5BC-F74F362F0DF4";
paths = (
{
closed = 1;
nodes = (
"702 0 LINE SMOOTH",
"1088 0 OFFCURVE",
"1402 314 OFFCURVE",
"1402 700 CURVE SMOOTH",
"1402 1086 OFFCURVE",
"1088 1400 OFFCURVE",
"702 1400 CURVE SMOOTH",
"240 1400 LINE",
"240 900 LINE",
"100 900 LINE",
"100 600 LINE",
"240 600 LINE",
"240 0 LINE"
);
},
{
closed = 1;
nodes = (
"540 600 LINE",
"778 600 LINE",
"778 900 LINE",
"540 900 LINE",
"540 1100 LINE",
"702 1100 LINE SMOOTH",
"922 1100 OFFCURVE",
"1102 920 OFFCURVE",
"1102 700 CURVE SMOOTH",
"1102 480 OFFCURVE",
"922 300 OFFCURVE",
"702 300 CURVE SMOOTH",
"540 300 LINE"
);
}
);
width = 1462;
},
{
hints = (
{
horizontal = 1;
origin = "{0, 12}";
target = "{1, 12}";
type = Stem;
},
{
horizontal = 1;
origin = "{0, 10}";
target = "{0, 9}";
type = Stem;
},
{
horizontal = 1;
origin = "{0, 7}";
target = "{1, 4}";
type = Stem;
},
{
origin = "{0, 12}";
target = "{1, 12}";
type = Stem;
},
{
origin = "{1, 8}";
target = "{0, 3}";
type = Stem;
}
);
layerId = "9AF1F7D9-E035-453E-B2A8-46DE370997D0";
paths = (
{
closed = 1;
nodes = (
"692 0 LINE SMOOTH",
"1078 0 OFFCURVE",
"1392 314 OFFCURVE",
"1392 700 CURVE SMOOTH",
"1392 1086 OFFCURVE",
"1078 1400 OFFCURVE",
"692 1400 CURVE SMOOTH",
"228 1400 LINE",
"228 780 LINE",
"100 780 LINE",
"100 720 LINE",
"228 720 LINE",
"228 0 LINE"
);
},
{
closed = 1;
nodes = (
"288 720 LINE",
"686 720 LINE",
"686 780 LINE",
"288 780 LINE",
"288 1340 LINE",
"692 1340 LINE SMOOTH",
"1036 1340 OFFCURVE",
"1332 1060 OFFCURVE",
"1332 700 CURVE SMOOTH",
"1332 354 OFFCURVE",
"1052 60 OFFCURVE",
"692 60 CURVE SMOOTH",
"288 60 LINE"
);
}
);
width = 1452;
},
{
hints = (
{
horizontal = 1;
origin = "{0, 12}";
target = "{1, 12}";
type = Stem;
},
{
horizontal = 1;
origin = "{0, 10}";
target = "{0, 9}";
type = Stem;
},
{
horizontal = 1;
origin = "{0, 7}";
target = "{1, 4}";
type = Stem;
},
{
origin = "{0, 12}";
target = "{1, 12}";
type = Stem;
},
{
origin = "{1, 8}";
target = "{0, 3}";
type = Stem;
}
);
layerId = m003;
paths = (
{
closed = 1;
nodes = (
"594 0 LINE SMOOTH",
"980 0 OFFCURVE",
"1338 314 OFFCURVE",
"1392 700 CURVE SMOOTH",
"1446 1086 OFFCURVE",
"1176 1400 OFFCURVE",
"790 1400 CURVE SMOOTH",
"326 1400 LINE",
"239 780 LINE",
"111 780 LINE",
"103 720 LINE",
"231 720 LINE",
"130 0 LINE"
);
},
{
closed = 1;
nodes = (
"291 720 LINE",
"689 720 LINE",
"697 780 LINE",
"299 780 LINE",
"378 1340 LINE",
"782 1340 LINE SMOOTH",
"1126 1340 OFFCURVE",
"1383 1060 OFFCURVE",
"1332 700 CURVE SMOOTH",
"1283 354 OFFCURVE",
"962 60 OFFCURVE",
"602 60 CURVE SMOOTH",
"198 60 LINE"
);
}
);
width = 1452;
},
{
hints = (
{
horizontal = 1;
origin = "{0, 12}";
target = "{1, 12}";
type = Stem;
},
{
horizontal = 1;
origin = "{0, 10}";
target = "{0, 9}";
type = Stem;
},
{
horizontal = 1;
origin = "{0, 7}";
target = "{1, 4}";
type = Stem;
},
{
origin = "{0, 12}";
target = "{1, 12}";
type = Stem;
},
{
origin = "{1, 8}";
target = "{0, 3}";
type = Stem;
}
);
layerId = m004;
paths = (
{
closed = 1;
nodes = (
"604 0 LINE SMOOTH",
"990 0 OFFCURVE",
"1348 314 OFFCURVE",
"1402 700 CURVE SMOOTH",
"1456 1086 OFFCURVE",
"1186 1400 OFFCURVE",
"800 1400 CURVE SMOOTH",
"338 1400 LINE",
"268 900 LINE",
"128 900 LINE",
"86 600 LINE",
"226 600 LINE",
"142 0 LINE"
);
},
{
closed = 1;
nodes = (
"526 600 LINE",
"764 600 LINE",
"806 900 LINE",
"568 900 LINE",
"596 1100 LINE",
"758 1100 LINE SMOOTH",
"978 1100 OFFCURVE",
"1133 920 OFFCURVE",
"1102 700 CURVE SMOOTH",
"1071 480 OFFCURVE",
"866 300 OFFCURVE",
"646 300 CURVE SMOOTH",
"484 300 LINE"
);
}
);
width = 1462;
},
{
hints = (
{
horizontal = 1;
origin = "{0, 12}";
target = "{1, 12}";
type = Stem;
},
{
horizontal = 1;
origin = "{0, 10}";
target = "{0, 9}";
type = Stem;
},
{
horizontal = 1;
origin = "{0, 7}";
target = "{1, 4}";
type = Stem;
},
{
origin = "{0, 12}";
target = "{1, 12}";
type = Stem;
},
{
origin = "{1, 8}";
target = "{0, 3}";
type = Stem;
}
);
layerId = "F7B0483F-D4AC-485F-91A2-832BFA93C9DB";
paths = (
{
closed = 1;
nodes = (
"695 0 LINE SMOOTH",
"1081 0 OFFCURVE",
"1395 314 OFFCURVE",
"1395 700 CURVE SMOOTH",
"1395 1086 OFFCURVE",
"1081 1400 OFFCURVE",
"695 1400 CURVE SMOOTH",
"232 1400 LINE",
"232 820 LINE",
"100 820 LINE",
"100 680 LINE",
"232 680 LINE",
"232 0 LINE"
);
},
{
closed = 1;
nodes = (
"372 680 LINE",
"717 680 LINE",
"717 820 LINE",
"372 820 LINE",
"372 1260 LINE",
"695 1260 LINE SMOOTH",
"998 1260 OFFCURVE",
"1255 1013 OFFCURVE",
"1255 700 CURVE SMOOTH",
"1255 396 OFFCURVE",
"1009 140 OFFCURVE",
"695 140 CURVE SMOOTH",
"372 140 LINE"
);
}
);
width = 1455.33333;
},
{
hints = (
{
horizontal = 1;
origin = "{0, 12}";
target = "{1, 12}";
type = Stem;
},
{
horizontal = 1;
origin = "{0, 10}";
target = "{0, 9}";
type = Stem;
},
{
horizontal = 1;
origin = "{0, 7}";
target = "{1, 4}";
type = Stem;
},
{
origin = "{0, 12}";
target = "{1, 12}";
type = Stem;
},
{
origin = "{1, 8}";
target = "{0, 3}";
type = Stem;
}
);
layerId = "A034D368-5B08-4DC5-B558-B81FD113CC46";
paths = (
{
closed = 1;
nodes = (
"597 0 LINE SMOOTH",
"983 0 OFFCURVE",
"1341 314 OFFCURVE",
"1395 700 CURVE SMOOTH",
"1449 1086 OFFCURVE",
"1179 1400 OFFCURVE",
"793 1400 CURVE SMOOTH",
"330 1400 LINE",
"249 820 LINE",
"117 820 LINE",
"97 680 LINE",
"229 680 LINE",
"134 0 LINE"
);
},
{
closed = 1;
nodes = (
"369 680 LINE",
"714 680 LINE",
"733 820 LINE",
"389 820 LINE",
"451 1260 LINE",
"774 1260 LINE SMOOTH",
"1077 1260 OFFCURVE",
"1300 1013 OFFCURVE",
"1255 700 CURVE SMOOTH",
"1212 396 OFFCURVE",
"930 140 OFFCURVE",
"617 140 CURVE SMOOTH",
"293 140 LINE"
);
}
);
width = 1455.33333;
}
);
leftKerningGroup = H;
leftMetricsKey = "=D-20";
rightKerningGroup = O;
rightMetricsKey = D;
unicode = 00D0;
},
{
glyphname = E;
lastChange = "2021-10-25 19:38:01 +0000";
layers = (
{
anchors = (
{
name = bottom;
position = "{556, 0}";
},
{
name = ogonek;
position = "{910, 0}";
},
{
name = top;
position = "{556, 1400}";
},
{
name = topleft;
position = "{20, 1400}";
}
);
hints = (
{
horizontal = 1;
origin = "{0, 11}";
target = "{0, 2}";
type = Stem;
},
{
horizontal = 1;
origin = "{0, 3}";
target = "{0, 6}";
type = Stem;
},
{
horizontal = 1;
origin = "{0, 10}";
target = "{0, 7}";
type = Stem;
},
{
origin = "{0, 11}";
target = "{0, 2}";
type = Stem;
}
);
layerId = "10BC12B3-5274-42E3-B5BC-F74F362F0DF4";
paths = (
{
closed = 1;
nodes = (
"1012 0 LINE",
"1012 300 LINE",
"420 300 LINE",
"420 600 LINE",
"876 600 LINE",
"876 900 LINE",
"420 900 LINE",
"420 1100 LINE",
"1012 1100 LINE",
"1012 1400 LINE",
"120 1400 LINE",
"120 0 LINE"
);
}
);
width = 1112;
},
{
anchors = (
{
name = bottom;
position = "{526, 0}";
},
{
name = ogonek;
position = "{823, 0}";
},
{
name = top;
position = "{526, 1400}";
},
{
name = topleft;
position = "{20, 1400}";
}
);
hints = (
{
horizontal = 1;
origin = "{0, 11}";
target = "{0, 2}";
type = Stem;
},
{
horizontal = 1;
origin = "{0, 3}";
target = "{0, 6}";
type = Stem;
},
{
horizontal = 1;
origin = "{0, 10}";
target = "{0, 7}";
type = Stem;
},
{
origin = "{0, 11}";
target = "{0, 2}";
type = Stem;
}
);
layerId = "9AF1F7D9-E035-453E-B2A8-46DE370997D0";
paths = (
{
closed = 1;
nodes = (
"952 0 LINE",
"952 60 LINE",
"180 60 LINE",
"180 720 LINE",
"836 720 LINE",
"836 780 LINE",
"180 780 LINE",
"180 1340 LINE",
"952 1340 LINE",
"952 1400 LINE",
"120 1400 LINE",
"120 0 LINE"
);
}
);
width = 1052;
},
{
anchors = (
{
name = bottom;
position = "{428, 0}";
},
{
name = ogonek;
position = "{725, 0}";
},
{
name = top;
position = "{624, 1400}";
},
{
name = topleft;
position = "{118, 1400}";
}
);
hints = (
{
horizontal = 1;
origin = "{0, 11}";
target = "{0, 2}";
type = Stem;
},
{
horizontal = 1;
origin = "{0, 3}";
target = "{0, 6}";
type = Stem;
},
{
horizontal = 1;
origin = "{0, 10}";
target = "{0, 7}";
type = Stem;
},
{
origin = "{0, 11}";
target = "{0, 2}";
type = Stem;
}
);
layerId = m003;
paths = (
{
closed = 1;
nodes = (
"854 0 LINE",
"862 60 LINE",
"90 60 LINE",
"183 720 LINE",
"839 720 LINE",
"847 780 LINE",
"191 780 LINE",
"270 1340 LINE",
"1042 1340 LINE",
"1050 1400 LINE",
"218 1400 LINE",
"22 0 LINE"
);
}
);
width = 1052;
},
{
anchors = (
{
name = bottom;
position = "{458, 0}";
},
{
name = ogonek;
position = "{812, 0}";
},
{
name = top;
position = "{654, 1400}";
},
{
name = topleft;
position = "{118, 1400}";
}
);
hints = (
{
horizontal = 1;
origin = "{0, 11}";
target = "{0, 2}";
type = Stem;
},
{
horizontal = 1;
origin = "{0, 3}";
target = "{0, 6}";
type = Stem;
},
{
horizontal = 1;
origin = "{0, 10}";
target = "{0, 7}";
type = Stem;
},
{
origin = "{0, 11}";
target = "{0, 2}";
type = Stem;
}
);
layerId = m004;
paths = (
{
closed = 1;
nodes = (
"914 0 LINE",
"956 300 LINE",
"364 300 LINE",
"406 600 LINE",
"862 600 LINE",
"904 900 LINE",
"448 900 LINE",
"476 1100 LINE",
"1068 1100 LINE",
"1110 1400 LINE",
"218 1400 LINE",
"22 0 LINE"
);
}
);
width = 1112;
},
{
anchors = (
{
name = bottom;
position = "{536, 0}";
},
{
name = ogonek;
position = "{852, 0}";
},
{
name = top;
position = "{536, 1400}";
},
{
name = topleft;
position = "{20, 1400}";
}
);
hints = (
{
horizontal = 1;
origin = "{0, 11}";
target = "{0, 2}";
type = Stem;
},
{
horizontal = 1;
origin = "{0, 3}";
target = "{0, 6}";
type = Stem;
},
{
horizontal = 1;
origin = "{0, 10}";
target = "{0, 7}";
type = Stem;
},
{
origin = "{0, 11}";
target = "{0, 2}";
type = Stem;
}
);
layerId = "F7B0483F-D4AC-485F-91A2-832BFA93C9DB";
paths = (
{
closed = 1;
nodes = (
"972 0 LINE",
"972 140 LINE",
"260 140 LINE",
"260 680 LINE",
"849 680 LINE",
"849 820 LINE",
"260 820 LINE",
"260 1260 LINE",
"972 1260 LINE",
"972 1400 LINE",
"120 1400 LINE",
"120 0 LINE"
);
}
);
width = 1072;
},
{
anchors = (
{
name = bottom;
position = "{438, 0}";
},
{
name = ogonek;
position = "{754, 0}";
},
{
name = top;
position = "{634, 1400}";
},
{
name = topleft;
position = "{118, 1400}";
}
);
hints = (
{
horizontal = 1;
origin = "{0, 11}";
target = "{0, 2}";
type = Stem;
},
{
horizontal = 1;
origin = "{0, 3}";
target = "{0, 6}";
type = Stem;
},
{
horizontal = 1;
origin = "{0, 10}";
target = "{0, 7}";
type = Stem;
},
{
origin = "{0, 11}";
target = "{0, 2}";
type = Stem;
}
);
layerId = "A034D368-5B08-4DC5-B558-B81FD113CC46";
paths = (
{
closed = 1;
nodes = (
"874 0 LINE",
"893 140 LINE",
"181 140 LINE",
"257 680 LINE",
"847 680 LINE",
"866 820 LINE",
"277 820 LINE",
"339 1260 LINE",
"1051 1260 LINE",
"1070 1400 LINE",
"218 1400 LINE",
"22 0 LINE"
);
}
);
width = 1072;
}
);
leftKerningGroup = H;
leftMetricsKey = H;
rightKerningGroup = E;
unicode = 0045;
},
{
glyphname = F;
lastChange = "2021-10-25 19:38:01 +0000";
layers = (
{
anchors = (
{
name = bottom;
position = "{486, 0}";
},
{
name = top;
position = "{486, 1400}";
}
);
hints = (
{
horizontal = 1;
origin = "{0, 9}";
target = up;
type = BottomGhost;
},
{
horizontal = 1;
origin = "{0, 1}";
target = "{0, 4}";
type = Stem;
},
{
horizontal = 1;
origin = "{0, 8}";
target = "{0, 5}";
type = Stem;
},
{
origin = "{0, 9}";
target = "{0, 0}";
type = Stem;
}
);
layerId = "10BC12B3-5274-42E3-B5BC-F74F362F0DF4";
paths = (
{
closed = 1;
nodes = (
"420 0 LINE",
"420 600 LINE",
"856 600 LINE",
"856 900 LINE",
"420 900 LINE",
"420 1100 LINE",
"952 1100 LINE",
"952 1400 LINE",
"120 1400 LINE",
"120 0 LINE"
);
}
);
width = 972;
},
{
anchors = (
{
name = bottom;
position = "{476, 0}";
},
{
name = top;
position = "{476, 1400}";
}
);
hints = (
{
horizontal = 1;
origin = "{0, 9}";
target = up;
type = BottomGhost;
},
{
horizontal = 1;
origin = "{0, 1}";
target = "{0, 4}";
type = Stem;
},
{
horizontal = 1;
origin = "{0, 8}";
target = "{0, 5}";
type = Stem;
},
{
origin = "{0, 9}";
target = "{0, 0}";
type = Stem;
}
);
layerId = "9AF1F7D9-E035-453E-B2A8-46DE370997D0";
paths = (
{
closed = 1;
nodes = (
"180 0 LINE",
"180 720 LINE",
"836 720 LINE",
"836 780 LINE",
"180 780 LINE",
"180 1340 LINE",
"932 1340 LINE",
"932 1400 LINE",
"120 1400 LINE",
"120 0 LINE"
);
}
);
width = 952;
},
{
anchors = (
{
name = bottom;
position = "{378, 0}";
},
{
name = top;
position = "{574, 1400}";
}
);
hints = (
{
horizontal = 1;
origin = "{0, 9}";
target = up;
type = BottomGhost;
},
{
horizontal = 1;
origin = "{0, 1}";
target = "{0, 4}";
type = Stem;
},
{
horizontal = 1;
origin = "{0, 8}";
target = "{0, 5}";
type = Stem;
},
{
origin = "{0, 9}";
target = "{0, 0}";
type = Stem;
}
);
layerId = m003;
paths = (
{
closed = 1;
nodes = (
"82 0 LINE",
"183 720 LINE",
"839 720 LINE",
"847 780 LINE",
"191 780 LINE",
"270 1340 LINE",
"1022 1340 LINE",
"1030 1400 LINE",
"218 1400 LINE",
"22 0 LINE"
);
}
);
width = 952;
},
{
anchors = (
{
name = bottom;
position = "{388, 0}";
},
{
name = top;
position = "{584, 1400}";
}
);
hints = (
{
horizontal = 1;
origin = "{0, 9}";
target = up;
type = BottomGhost;
},
{
horizontal = 1;
origin = "{0, 1}";
target = "{0, 4}";
type = Stem;
},
{
horizontal = 1;
origin = "{0, 8}";
target = "{0, 5}";
type = Stem;
},
{
origin = "{0, 9}";
target = "{0, 0}";
type = Stem;
}
);
layerId = m004;
paths = (
{
closed = 1;
nodes = (
"322 0 LINE",
"406 600 LINE",
"842 600 LINE",
"884 900 LINE",
"448 900 LINE",
"476 1100 LINE",
"1008 1100 LINE",
"1050 1400 LINE",
"218 1400 LINE",
"22 0 LINE"
);
}
);
width = 972;
},
{
anchors = (
{
name = bottom;
position = "{479, 0}";
},
{
name = top;
position = "{479, 1400}";
}
);
hints = (
{
horizontal = 1;
origin = "{0, 9}";
target = up;
type = BottomGhost;
},
{
horizontal = 1;
origin = "{0, 1}";
target = "{0, 4}";
type = Stem;
},
{
horizontal = 1;
origin = "{0, 8}";
target = "{0, 5}";
type = Stem;
},
{
origin = "{0, 9}";
target = "{0, 0}";
type = Stem;
}
);
layerId = "F7B0483F-D4AC-485F-91A2-832BFA93C9DB";
paths = (
{
closed = 1;
nodes = (
"260 0 LINE",
"260 680 LINE",
"843 680 LINE",
"843 820 LINE",
"260 820 LINE",
"260 1260 LINE",
"939 1260 LINE",
"939 1400 LINE",
"120 1400 LINE",
"120 0 LINE"
);
}
);
width = 958.66667;
},
{
anchors = (
{
name = bottom;
position = "{381, 0}";
},
{
name = top;
position = "{577, 1400}";
}
);
hints = (
{
horizontal = 1;
origin = "{0, 9}";
target = up;
type = BottomGhost;
},
{
horizontal = 1;
origin = "{0, 1}";
target = "{0, 4}";
type = Stem;
},
{
horizontal = 1;
origin = "{0, 8}";
target = "{0, 5}";
type = Stem;
},
{
origin = "{0, 9}";
target = "{0, 0}";
type = Stem;
}
);
layerId = "A034D368-5B08-4DC5-B558-B81FD113CC46";
paths = (
{
closed = 1;
nodes = (
"162 0 LINE",
"257 680 LINE",
"840 680 LINE",
"859 820 LINE",
"277 820 LINE",
"339 1260 LINE",
"1017 1260 LINE",
"1037 1400 LINE",
"218 1400 LINE",
"22 0 LINE"
);
}
);
width = 958.66667;
}
);
leftKerningGroup = H;
leftMetricsKey = H;
rightKerningGroup = F;
unicode = 0046;
},
{
glyphname = G;
lastChange = "2021-10-25 19:38:01 +0000";
layers = (
{
anchors = (
{
name = bottom;
position = "{769, 0}";
},
{
name = top;
position = "{769, 1400}";
}
);
hints = (
{
horizontal = 1;
origin = "{0, 27}";
target = "{0, 8}";
type = Stem;
},
{
horizontal = 1;
origin = "{0, 4}";
target = "{0, 3}";
type = Stem;
},
{
horizontal = 1;
origin = "{0, 21}";
target = "{0, 14}";
type = Stem;
},
{
origin = "{0, 24}";
target = "{0, 11}";
type = Stem;
}
);
layerId = "10BC12B3-5274-42E3-B5BC-F74F362F0DF4";
paths = (
{
closed = 1;
nodes = (
"1164 -26 OFFCURVE",
"1476 322 OFFCURVE",
"1456 740 CURVE",
"914 740 LINE",
"914 480 LINE",
"1102 480 LINE",
"1020 338 OFFCURVE",
"894 274 OFFCURVE",
"772 274 CURVE SMOOTH",
"556 274 OFFCURVE",
"380 460 OFFCURVE",
"380 696 CURVE SMOOTH",
"380 952 OFFCURVE",
"570 1126 OFFCURVE",
"770 1126 CURVE SMOOTH",
"868 1126 OFFCURVE",
"968 1084 OFFCURVE",
"1050 992 CURVE",
"1318 1136 LINE",
"1166 1338 OFFCURVE",
"968 1424 OFFCURVE",
"774 1424 CURVE SMOOTH",
"418 1424 OFFCURVE",
"80 1130 OFFCURVE",
"80 702 CURVE SMOOTH",
"80 304 OFFCURVE",
"376 -26 OFFCURVE",
"768 -26 CURVE SMOOTH"
);
}
);
width = 1537;
},
{
anchors = (
{
name = bottom;
position = "{768, 0}";
},
{
name = top;
position = "{770, 1400}";
}
);
hints = (
{
horizontal = 1;
origin = "{0, 27}";
target = "{0, 8}";
type = Stem;
},
{
horizontal = 1;
origin = "{0, 4}";
target = "{0, 3}";
type = Stem;
},
{
horizontal = 1;
origin = "{0, 21}";
target = "{0, 14}";
type = Stem;
},
{
origin = "{0, 24}";
target = "{0, 11}";
type = Stem;
}
);
layerId = "9AF1F7D9-E035-453E-B2A8-46DE370997D0";
paths = (
{
closed = 1;
nodes = (
"1130 -26 OFFCURVE",
"1432 272 OFFCURVE",
"1456 642 CURVE",
"916 642 LINE",
"916 582 LINE",
"1388 582 LINE",
"1342 282 OFFCURVE",
"1084 34 OFFCURVE",
"770 34 CURVE SMOOTH",
"422 34 OFFCURVE",
"140 336 OFFCURVE",
"140 700 CURVE SMOOTH",
"140 1058 OFFCURVE",
"418 1366 OFFCURVE",
"770 1366 CURVE SMOOTH",
"960 1366 OFFCURVE",
"1146 1272 OFFCURVE",
"1266 1108 CURVE",
"1320 1138 LINE",
"1194 1312 OFFCURVE",
"994 1426 OFFCURVE",
"770 1426 CURVE SMOOTH",
"388 1426 OFFCURVE",
"80 1100 OFFCURVE",
"80 700 CURVE SMOOTH",
"80 300 OFFCURVE",
"388 -26 OFFCURVE",
"770 -26 CURVE SMOOTH"
);
}
);
width = 1536;
},
{
anchors = (
{
name = bottom;
position = "{670, 0}";
},
{
name = top;
position = "{868, 1400}";
}
);
hints = (
{
horizontal = 1;
origin = "{0, 27}";
target = "{0, 8}";
type = Stem;
},
{
horizontal = 1;
origin = "{0, 4}";
target = "{0, 3}";
type = Stem;
},
{
horizontal = 1;
origin = "{0, 21}";
target = "{0, 14}";
type = Stem;
},
{
origin = "{0, 24}";
target = "{0, 11}";
type = Stem;
}
);
layerId = m003;
paths = (
{
closed = 1;
nodes = (
"1028 -26 OFFCURVE",
"1372 272 OFFCURVE",
"1448 642 CURVE",
"908 642 LINE",
"899 582 LINE",
"1371 582 LINE",
"1283 282 OFFCURVE",
"990 34 OFFCURVE",
"676 34 CURVE SMOOTH",
"328 34 OFFCURVE",
"89 336 OFFCURVE",
"140 700 CURVE SMOOTH",
"190 1058 OFFCURVE",
"512 1366 OFFCURVE",
"864 1366 CURVE SMOOTH",
"1054 1366 OFFCURVE",
"1226 1272 OFFCURVE",
"1323 1108 CURVE",
"1382 1138 LINE",
"1280 1312 OFFCURVE",
"1096 1426 OFFCURVE",
"872 1426 CURVE SMOOTH",
"490 1426 OFFCURVE",
"136 1100 OFFCURVE",
"80 700 CURVE SMOOTH",
"24 300 OFFCURVE",
"286 -26 OFFCURVE",
"668 -26 CURVE SMOOTH"
);
}
);
width = 1536;
},
{
anchors = (
{
name = bottom;
position = "{671, 0}";
},
{
name = top;
position = "{867, 1400}";
}
);
hints = (
{
horizontal = 1;
origin = "{0, 27}";
target = "{0, 8}";
type = Stem;
},
{
horizontal = 1;
origin = "{0, 4}";
target = "{0, 3}";
type = Stem;
},
{
horizontal = 1;
origin = "{0, 21}";
target = "{0, 14}";
type = Stem;
},
{
origin = "{0, 24}";
target = "{0, 11}";
type = Stem;
}
);
layerId = m004;
paths = (
{
closed = 1;
nodes = (
"1062 -26 OFFCURVE",
"1423 322 OFFCURVE",
"1462 740 CURVE",
"920 740 LINE",
"883 480 LINE",
"1071 480 LINE",
"969 338 OFFCURVE",
"834 274 OFFCURVE",
"712 274 CURVE SMOOTH",
"496 274 OFFCURVE",
"346 460 OFFCURVE",
"379 696 CURVE SMOOTH",
"415 952 OFFCURVE",
"630 1126 OFFCURVE",
"830 1126 CURVE SMOOTH",
"928 1126 OFFCURVE",
"1022 1084 OFFCURVE",
"1091 992 CURVE",
"1379 1136 LINE",
"1256 1338 OFFCURVE",
"1070 1424 OFFCURVE",
"876 1424 CURVE SMOOTH",
"520 1424 OFFCURVE",
"140 1130 OFFCURVE",
"80 702 CURVE SMOOTH",
"24 304 OFFCURVE",
"274 -26 OFFCURVE",
"666 -26 CURVE SMOOTH"
);
}
);
width = 1537;
},
{
anchors = (
{
name = bottom;
position = "{768, 0}";
},
{
name = top;
position = "{770, 1400}";
}
);
hints = (
{
horizontal = 1;
origin = "{0, 27}";
target = "{0, 8}";
type = Stem;
},
{
horizontal = 1;
origin = "{0, 4}";
target = "{0, 3}";
type = Stem;
},
{
horizontal = 1;
origin = "{0, 21}";
target = "{0, 14}";
type = Stem;
},
{
origin = "{0, 24}";
target = "{0, 11}";
type = Stem;
}
);
layerId = "F7B0483F-D4AC-485F-91A2-832BFA93C9DB";
paths = (
{
closed = 1;
nodes = (
"1141 -26 OFFCURVE",
"1447 289 OFFCURVE",
"1456 675 CURVE",
"915 675 LINE",
"915 548 LINE",
"1293 548 LINE",
"1235 301 OFFCURVE",
"1021 114 OFFCURVE",
"771 114 CURVE SMOOTH",
"467 114 OFFCURVE",
"220 377 OFFCURVE",
"220 699 CURVE SMOOTH",
"220 1023 OFFCURVE",
"469 1286 OFFCURVE",
"770 1286 CURVE SMOOTH",
"929 1286 OFFCURVE",
"1087 1209 OFFCURVE",
"1194 1069 CURVE",
"1319 1137 LINE",
"1185 1321 OFFCURVE",
"985 1425 OFFCURVE",
"771 1425 CURVE SMOOTH",
"398 1425 OFFCURVE",
"80 1110 OFFCURVE",
"80 701 CURVE SMOOTH",
"80 301 OFFCURVE",
"384 -26 OFFCURVE",
"769 -26 CURVE SMOOTH"
);
}
);
width = 1536.33333;
},
{
anchors = (
{
name = bottom;
position = "{670, 0}";
},
{
name = top;
position = "{868, 1400}";
}
);
hints = (
{
horizontal = 1;
origin = "{0, 27}";
target = "{0, 8}";
type = Stem;
},
{
horizontal = 1;
origin = "{0, 4}";
target = "{0, 3}";
type = Stem;
},
{
horizontal = 1;
origin = "{0, 21}";
target = "{0, 14}";
type = Stem;
},
{
origin = "{0, 24}";
target = "{0, 11}";
type = Stem;
}
);
layerId = "A034D368-5B08-4DC5-B558-B81FD113CC46";
paths = (
{
closed = 1;
nodes = (
"1039 -26 OFFCURVE",
"1389 289 OFFCURVE",
"1453 675 CURVE",
"912 675 LINE",
"894 548 LINE",
"1271 548 LINE",
"1178 301 OFFCURVE",
"938 114 OFFCURVE",
"688 114 CURVE SMOOTH",
"384 114 OFFCURVE",
"175 377 OFFCURVE",
"220 699 CURVE SMOOTH",
"265 1023 OFFCURVE",
"551 1286 OFFCURVE",
"853 1286 CURVE SMOOTH",
"1012 1286 OFFCURVE",
"1158 1209 OFFCURVE",
"1246 1069 CURVE",
"1381 1137 LINE",
"1272 1321 OFFCURVE",
"1087 1425 OFFCURVE",
"873 1425 CURVE SMOOTH",
"500 1425 OFFCURVE",
"137 1110 OFFCURVE",
"80 701 CURVE SMOOTH",
"24 301 OFFCURVE",
"282 -26 OFFCURVE",
"667 -26 CURVE SMOOTH"
);
}
);
width = 1536.33333;
}
);
leftKerningGroup = O;
leftMetricsKey = O;
rightKerningGroup = O;
rightMetricsKey = O;
unicode = 0047;
},
{
glyphname = H;
lastChange = "2021-10-25 19:38:01 +0000";
layers = (
{
anchors = (
{
name = bottom;
position = "{668, 0}";
},
{
name = center;
position = "{668, 700}";
},
{
name = top;
position = "{668, 1400}";
},
{
name = topleft;
position = "{20, 1400}";
}
);
hints = (
{
horizontal = 1;
origin = "{0, 4}";
target = up;
type = BottomGhost;
},
{
horizontal = 1;
origin = "{0, 6}";
target = "{0, 1}";
type = Stem;
},
{
horizontal = 1;
origin = "{0, 3}";
target = down;
type = TopGhost;
},
{
origin = "{0, 4}";
target = "{0, 5}";
type = Stem;
},
{
origin = "{0, 8}";
target = "{0, 9}";
type = Stem;
}
);
layerId = "10BC12B3-5274-42E3-B5BC-F74F362F0DF4";
paths = (
{
closed = 1;
nodes = (
"916 900 LINE",
"420 900 LINE",
"420 1400 LINE",
"120 1400 LINE",
"120 0 LINE",
"420 0 LINE",
"420 600 LINE",
"916 600 LINE",
"916 0 LINE",
"1216 0 LINE",
"1216 1400 LINE",
"916 1400 LINE"
);
}
);
width = 1336;
},
{
anchors = (
{
name = bottom;
position = "{607, 0}";
},
{
name = center;
position = "{607, 700}";
},
{
name = top;
position = "{607, 1400}";
},
{
name = topleft;
position = "{20, 1400}";
}
);
hints = (
{
horizontal = 1;
origin = "{0, 4}";
target = up;
type = BottomGhost;
},
{
horizontal = 1;
origin = "{0, 6}";
target = "{0, 1}";
type = Stem;
},
{
horizontal = 1;
origin = "{0, 3}";
target = down;
type = TopGhost;
},
{
origin = "{0, 4}";
target = "{0, 5}";
type = Stem;
},
{
origin = "{0, 8}";
target = "{0, 9}";
type = Stem;
}
);
layerId = "9AF1F7D9-E035-453E-B2A8-46DE370997D0";
paths = (
{
closed = 1;
nodes = (
"1034 780 LINE",
"180 780 LINE",
"180 1400 LINE",
"120 1400 LINE",
"120 0 LINE",
"180 0 LINE",
"180 720 LINE",
"1034 720 LINE",
"1034 0 LINE",
"1094 0 LINE",
"1094 1400 LINE",
"1034 1400 LINE"
);
}
);
width = 1214;
},
{
anchors = (
{
name = bottom;
position = "{509, 0}";
},
{
name = center;
position = "{607, 700}";
},
{
name = top;
position = "{705, 1400}";
},
{
name = topleft;
position = "{118, 1400}";
}
);
hints = (
{
horizontal = 1;
origin = "{0, 4}";
target = up;
type = BottomGhost;
},
{
horizontal = 1;
origin = "{0, 6}";
target = "{0, 1}";
type = Stem;
},
{
horizontal = 1;
origin = "{0, 3}";
target = down;
type = TopGhost;
},
{
origin = "{0, 4}";
target = "{0, 5}";
type = Stem;
},
{
origin = "{0, 8}";
target = "{0, 9}";
type = Stem;
}
);
layerId = m003;
paths = (
{
closed = 1;
nodes = (
"1045 780 LINE",
"191 780 LINE",
"278 1400 LINE",
"218 1400 LINE",
"22 0 LINE",
"82 0 LINE",
"183 720 LINE",
"1037 720 LINE",
"936 0 LINE",
"996 0 LINE",
"1192 1400 LINE",
"1132 1400 LINE"
);
}
);
width = 1214;
},
{
anchors = (
{
name = bottom;
position = "{570, 0}";
},
{
name = center;
position = "{668, 700}";
},
{
name = top;
position = "{766, 1400}";
},
{
name = topleft;
position = "{118, 1400}";
}
);
hints = (
{
horizontal = 1;
origin = "{0, 4}";
target = up;
type = BottomGhost;
},
{
horizontal = 1;
origin = "{0, 6}";
target = "{0, 1}";
type = Stem;
},
{
horizontal = 1;
origin = "{0, 3}";
target = down;
type = TopGhost;
},
{
origin = "{0, 4}";
target = "{0, 5}";
type = Stem;
},
{
origin = "{0, 8}";
target = "{0, 9}";
type = Stem;
}
);
layerId = m004;
paths = (
{
closed = 1;
nodes = (
"944 900 LINE",
"448 900 LINE",
"518 1400 LINE",
"218 1400 LINE",
"22 0 LINE",
"322 0 LINE",
"406 600 LINE",
"902 600 LINE",
"818 0 LINE",
"1118 0 LINE",
"1314 1400 LINE",
"1014 1400 LINE"
);
}
);
width = 1336;
},
{
anchors = (
{
name = bottom;
position = "{627, 0}";
},
{
name = center;
position = "{627, 700}";
},
{
name = top;
position = "{627, 1400}";
},
{
name = topleft;
position = "{20, 1400}";
}
);
hints = (
{
horizontal = 1;
origin = "{0, 4}";
target = up;
type = BottomGhost;
},
{
horizontal = 1;
origin = "{0, 6}";
target = "{0, 1}";
type = Stem;
},
{
horizontal = 1;
origin = "{0, 3}";
target = down;
type = TopGhost;
},
{
origin = "{0, 4}";
target = "{0, 5}";
type = Stem;
},
{
origin = "{0, 8}";
target = "{0, 9}";
type = Stem;
}
);
layerId = "F7B0483F-D4AC-485F-91A2-832BFA93C9DB";
paths = (
{
closed = 1;
nodes = (
"995 820 LINE",
"260 820 LINE",
"260 1400 LINE",
"120 1400 LINE",
"120 0 LINE",
"260 0 LINE",
"260 680 LINE",
"995 680 LINE",
"995 0 LINE",
"1135 0 LINE",
"1135 1400 LINE",
"995 1400 LINE"
);
}
);
width = 1254.66667;
},
{
anchors = (
{
name = bottom;
position = "{529, 0}";
},
{
name = center;
position = "{627, 700}";
},
{
name = top;
position = "{725, 1400}";
},
{
name = topleft;
position = "{118, 1400}";
}
);
hints = (
{
horizontal = 1;
origin = "{0, 4}";
target = up;
type = BottomGhost;
},
{
horizontal = 1;
origin = "{0, 6}";
target = "{0, 1}";
type = Stem;
},
{
horizontal = 1;
origin = "{0, 3}";
target = down;
type = TopGhost;
},
{
origin = "{0, 4}";
target = "{0, 5}";
type = Stem;
},
{
origin = "{0, 8}";
target = "{0, 9}";
type = Stem;
}
);
layerId = "A034D368-5B08-4DC5-B558-B81FD113CC46";
paths = (
{
closed = 1;
nodes = (
"1011 820 LINE",
"277 820 LINE",
"358 1400 LINE",
"218 1400 LINE",
"22 0 LINE",
"162 0 LINE",
"257 680 LINE",
"992 680 LINE",
"897 0 LINE",
"1037 0 LINE",
"1233 1400 LINE",
"1093 1400 LINE"
);
}
);
width = 1254.66667;
}
);
leftKerningGroup = H;
rightKerningGroup = H;
unicode = 0048;
},
{
glyphname = I;
lastChange = "2021-10-25 19:38:01 +0000";
layers = (
{
anchors = (
{
name = bottom;
position = "{300, 0}";
},
{
name = ogonek;
position = "{450, 0}";
},
{
name = top;
position = "{300, 1400}";
},
{
name = topleft;
position = "{20, 1400}";
}
);
hints = (
{
horizontal = 1;
origin = "{0, 3}";
target = up;
type = BottomGhost;
},
{
horizontal = 1;
origin = "{0, 2}";
target = down;
type = TopGhost;
},
{
origin = "{0, 3}";
target = "{0, 0}";
type = Stem;
}
);
layerId = "10BC12B3-5274-42E3-B5BC-F74F362F0DF4";
paths = (
{
closed = 1;
nodes = (
"450 0 LINE",
"450 1400 LINE",
"150 1400 LINE",
"150 0 LINE"
);
}
);
width = 600;
},
{
anchors = (
{
name = bottom;
position = "{180, 0}";
},
{
name = ogonek;
position = "{210, 0}";
},
{
name = top;
position = "{180, 1400}";
},
{
name = topleft;
position = "{20, 1400}";
}
);
hints = (
{
horizontal = 1;
origin = "{0, 3}";
target = up;
type = BottomGhost;
},
{
horizontal = 1;
origin = "{0, 2}";
target = down;
type = TopGhost;
},
{
origin = "{0, 3}";
target = "{0, 0}";
type = Stem;
}
);
layerId = "9AF1F7D9-E035-453E-B2A8-46DE370997D0";
paths = (
{
closed = 1;
nodes = (
"210 0 LINE",
"210 1400 LINE",
"150 1400 LINE",
"150 0 LINE"
);
}
);
width = 360;
},
{
anchors = (
{
name = bottom;
position = "{82, 0}";
},
{
name = ogonek;
position = "{112, 0}";
},
{
name = top;
position = "{278, 1400}";
},
{
name = topleft;
position = "{118, 1400}";
}
);
hints = (
{
horizontal = 1;
origin = "{0, 3}";
target = up;
type = BottomGhost;
},
{
horizontal = 1;
origin = "{0, 2}";
target = down;
type = TopGhost;
},
{
origin = "{0, 3}";
target = "{0, 0}";
type = Stem;
}
);
layerId = m003;
paths = (
{
closed = 1;
nodes = (
"112 0 LINE",
"308 1400 LINE",
"248 1400 LINE",
"52 0 LINE"
);
}
);
width = 360;
},
{
anchors = (
{
name = bottom;
position = "{202, 0}";
},
{
name = ogonek;
position = "{352, 0}";
},
{
name = top;
position = "{398, 1400}";
},
{
name = topleft;
position = "{118, 1400}";
}
);
hints = (
{
horizontal = 1;
origin = "{0, 3}";
target = up;
type = BottomGhost;
},
{
horizontal = 1;
origin = "{0, 2}";
target = down;
type = TopGhost;
},
{
origin = "{0, 3}";
target = "{0, 0}";
type = Stem;
}
);
layerId = m004;
paths = (
{
closed = 1;
nodes = (
"352 0 LINE",
"548 1400 LINE",
"248 1400 LINE",
"52 0 LINE"
);
}
);
width = 600;
},
{
anchors = (
{
name = bottom;
position = "{220, 0}";
},
{
name = ogonek;
position = "{290, 0}";
},
{
name = top;
position = "{220, 1400}";
},
{
name = topleft;
position = "{20, 1400}";
}
);
hints = (
{
horizontal = 1;
origin = "{0, 3}";
target = up;
type = BottomGhost;
},
{
horizontal = 1;
origin = "{0, 2}";
target = down;
type = TopGhost;
},
{
origin = "{0, 3}";
target = "{0, 0}";
type = Stem;
}
);
layerId = "F7B0483F-D4AC-485F-91A2-832BFA93C9DB";
paths = (
{
closed = 1;
nodes = (
"290 0 LINE",
"290 1400 LINE",
"150 1400 LINE",
"150 0 LINE"
);
}
);
width = 440;
},
{
anchors = (
{
name = bottom;
position = "{122, 0}";
},
{
name = ogonek;
position = "{192, 0}";
},
{
name = top;
position = "{318, 1400}";
},
{
name = topleft;
position = "{118, 1400}";
}
);
hints = (
{
horizontal = 1;
origin = "{0, 3}";
target = up;
type = BottomGhost;
},
{
horizontal = 1;
origin = "{0, 2}";
target = down;
type = TopGhost;
},
{
origin = "{0, 3}";
target = "{0, 0}";
type = Stem;
}
);
layerId = "A034D368-5B08-4DC5-B558-B81FD113CC46";
paths = (
{
closed = 1;
nodes = (
"192 0 LINE",
"388 1400 LINE",
"248 1400 LINE",
"52 0 LINE"
);
}
);
width = 440;
}
);
leftKerningGroup = H;
rightKerningGroup = H;
unicode = 0049;
},
{
glyphname = J;
lastChange = "2021-10-25 19:38:01 +0000";
layers = (
{
anchors = (
{
name = bottom;
position = "{467, 0}";
},
{
name = top;
position = "{664, 1400}";
}
);
hints = (
{
horizontal = 1;
origin = "{0, 15}";
target = "{0, 8}";
type = Stem;
},
{
horizontal = 1;
origin = "{0, 4}";
target = down;
type = TopGhost;
},
{
origin = "{0, 5}";
target = "{0, 2}";
type = Stem;
}
);
layerId = "10BC12B3-5274-42E3-B5BC-F74F362F0DF4";
paths = (
{
closed = 1;
nodes = (
"602 -26 OFFCURVE",
"814 186 OFFCURVE",
"814 446 CURVE SMOOTH",
"814 1400 LINE",
"514 1400 LINE",
"514 446 LINE SMOOTH",
"514 352 OFFCURVE",
"436 274 OFFCURVE",
"342 274 CURVE SMOOTH",
"290 274 OFFCURVE",
"254 296 OFFCURVE",
"232 314 CURVE",
"40 84 LINE",
"124 12 OFFCURVE",
"232 -26 OFFCURVE",
"342 -26 CURVE SMOOTH"
);
}
);
width = 934;
},
{
anchors = (
{
name = bottom;
position = "{369, 0}";
},
{
name = top;
position = "{588, 1400}";
}
);
hints = (
{
horizontal = 1;
origin = "{0, 15}";
target = "{0, 8}";
type = Stem;
},
{
horizontal = 1;
origin = "{0, 4}";
target = down;
type = TopGhost;
},
{
origin = "{0, 5}";
target = "{0, 2}";
type = Stem;
}
);
layerId = "9AF1F7D9-E035-453E-B2A8-46DE370997D0";
paths = (
{
closed = 1;
nodes = (
"460 -26 OFFCURVE",
"618 152 OFFCURVE",
"618 346 CURVE SMOOTH",
"618 1400 LINE",
"558 1400 LINE",
"558 346 LINE SMOOTH",
"558 184 OFFCURVE",
"426 34 OFFCURVE",
"264 34 CURVE SMOOTH",
"196 34 OFFCURVE",
"130 58 OFFCURVE",
"78 102 CURVE",
"40 56 LINE",
"104 0 OFFCURVE",
"182 -26 OFFCURVE",
"264 -26 CURVE SMOOTH"
);
}
);
width = 738;
},
{
anchors = (
{
name = bottom;
position = "{271, 0}";
},
{
name = top;
position = "{686, 1400}";
}
);
hints = (
{
horizontal = 1;
origin = "{0, 15}";
target = "{0, 8}";
type = Stem;
},
{
horizontal = 1;
origin = "{0, 4}";
target = down;
type = TopGhost;
},
{
origin = "{0, 5}";
target = "{0, 2}";
type = Stem;
}
);
layerId = m003;
paths = (
{
closed = 1;
nodes = (
"358 -26 OFFCURVE",
"541 152 OFFCURVE",
"568 346 CURVE SMOOTH",
"716 1400 LINE",
"656 1400 LINE",
"508 346 LINE SMOOTH",
"485 184 OFFCURVE",
"332 34 OFFCURVE",
"170 34 CURVE SMOOTH",
"102 34 OFFCURVE",
"40 58 OFFCURVE",
"-6 102 CURVE",
"-51 56 LINE",
"6 0 OFFCURVE",
"80 -26 OFFCURVE",
"162 -26 CURVE SMOOTH"
);
}
);
width = 738;
},
{
anchors = (
{
name = bottom;
position = "{369, 0}";
},
{
name = top;
position = "{762, 1400}";
}
);
hints = (
{
horizontal = 1;
origin = "{0, 15}";
target = "{0, 8}";
type = Stem;
},
{
horizontal = 1;
origin = "{0, 4}";
target = down;
type = TopGhost;
},
{
origin = "{0, 5}";
target = "{0, 2}";
type = Stem;
}
);
layerId = m004;
paths = (
{
closed = 1;
nodes = (
"500 -26 OFFCURVE",
"742 186 OFFCURVE",
"778 446 CURVE SMOOTH",
"912 1400 LINE",
"612 1400 LINE",
"478 446 LINE SMOOTH",
"465 352 OFFCURVE",
"376 274 OFFCURVE",
"282 274 CURVE SMOOTH",
"230 274 OFFCURVE",
"197 296 OFFCURVE",
"178 314 CURVE",
"-47 84 LINE",
"27 12 OFFCURVE",
"130 -26 OFFCURVE",
"240 -26 CURVE SMOOTH"
);
}
);
width = 934;
},
{
anchors = (
{
name = bottom;
position = "{402, 0}";
},
{
name = top;
position = "{613, 1400}";
}
);
hints = (
{
horizontal = 1;
origin = "{0, 15}";
target = "{0, 8}";
type = Stem;
},
{
horizontal = 1;
origin = "{0, 4}";
target = down;
type = TopGhost;
},
{
origin = "{0, 5}";
target = "{0, 2}";
type = Stem;
}
);
layerId = "F7B0483F-D4AC-485F-91A2-832BFA93C9DB";
paths = (
{
closed = 1;
nodes = (
"507 -26 OFFCURVE",
"683 163 OFFCURVE",
"683 379 CURVE SMOOTH",
"683 1400 LINE",
"543 1400 LINE",
"543 379 LINE SMOOTH",
"543 240 OFFCURVE",
"429 114 OFFCURVE",
"290 114 CURVE SMOOTH",
"227 114 OFFCURVE",
"171 137 OFFCURVE",
"129 173 CURVE",
"40 65 LINE",
"111 4 OFFCURVE",
"199 -26 OFFCURVE",
"290 -26 CURVE SMOOTH"
);
}
);
width = 803.33333;
},
{
anchors = (
{
name = bottom;
position = "{304, 0}";
},
{
name = top;
position = "{711, 1400}";
}
);
hints = (
{
horizontal = 1;
origin = "{0, 15}";
target = "{0, 8}";
type = Stem;
},
{
horizontal = 1;
origin = "{0, 4}";
target = down;
type = TopGhost;
},
{
origin = "{0, 5}";
target = "{0, 2}";
type = Stem;
}
);
layerId = "A034D368-5B08-4DC5-B558-B81FD113CC46";
paths = (
{
closed = 1;
nodes = (
"405 -26 OFFCURVE",
"608 163 OFFCURVE",
"638 379 CURVE SMOOTH",
"781 1400 LINE",
"641 1400 LINE",
"498 379 LINE SMOOTH",
"478 240 OFFCURVE",
"347 114 OFFCURVE",
"207 114 CURVE SMOOTH",
"145 114 OFFCURVE",
"92 137 OFFCURVE",
"55 173 CURVE",
"-50 65 LINE",
"13 4 OFFCURVE",
"97 -26 OFFCURVE",
"188 -26 CURVE SMOOTH"
);
}
);
width = 803.33333;
}
);
leftKerningGroup = J;
rightKerningGroup = J;
unicode = 004A;
},
{
glyphname = K;
lastChange = "2021-10-25 19:38:01 +0000";
layers = (
{
anchors = (
{
name = bottom;
position = "{615, 0}";
},
{
name = top;
position = "{615, 1400}";
}
);
hints = (
{
horizontal = 1;
origin = "{0, 6}";
target = up;
type = BottomGhost;
},
{
horizontal = 1;
origin = "{0, 5}";
target = down;
type = TopGhost;
},
{
origin = "{0, 6}";
target = "{0, 7}";
type = Stem;
}
);
layerId = "10BC12B3-5274-42E3-B5BC-F74F362F0DF4";
paths = (
{
closed = 1;
nodes = (
"656 740 LINE",
"1210 1400 LINE",
"818 1400 LINE",
"420 924 LINE",
"420 1400 LINE",
"120 1400 LINE",
"120 0 LINE",
"420 0 LINE",
"420 458 LINE",
"460 506 LINE",
"818 0 LINE",
"1210 0 LINE"
);
}
);
width = 1230;
},
{
anchors = (
{
name = bottom;
position = "{492, 0}";
},
{
name = top;
position = "{492, 1400}";
}
);
hints = (
{
horizontal = 1;
origin = "{0, 6}";
target = up;
type = BottomGhost;
},
{
horizontal = 1;
origin = "{0, 5}";
target = down;
type = TopGhost;
},
{
origin = "{0, 6}";
target = "{0, 7}";
type = Stem;
}
);
layerId = "9AF1F7D9-E035-453E-B2A8-46DE370997D0";
paths = (
{
closed = 1;
nodes = (
"378 738 LINE",
"934 1400 LINE",
"856 1400 LINE",
"180 594 LINE",
"180 1400 LINE",
"120 1400 LINE",
"120 0 LINE",
"180 0 LINE",
"180 500 LINE",
"338 690 LINE",
"848 0 LINE",
"924 0 LINE"
);
}
);
width = 984;
},
{
anchors = (
{
name = bottom;
position = "{394, 0}";
},
{
name = top;
position = "{590, 1400}";
}
);
hints = (
{
horizontal = 1;
origin = "{0, 6}";
target = up;
type = BottomGhost;
},
{
horizontal = 1;
origin = "{0, 5}";
target = down;
type = TopGhost;
},
{
origin = "{0, 6}";
target = "{0, 7}";
type = Stem;
}
);
layerId = m003;
paths = (
{
closed = 1;
nodes = (
"383 738 LINE",
"1032 1400 LINE",
"954 1400 LINE",
"165 594 LINE",
"278 1400 LINE",
"218 1400 LINE",
"22 0 LINE",
"82 0 LINE",
"152 500 LINE",
"337 690 LINE",
"750 0 LINE",
"826 0 LINE"
);
}
);
width = 984;
},
{
anchors = (
{
name = bottom;
position = "{517, 0}";
},
{
name = top;
position = "{713, 1400}";
}
);
hints = (
{
horizontal = 1;
origin = "{0, 6}";
target = up;
type = BottomGhost;
},
{
horizontal = 1;
origin = "{0, 5}";
target = down;
type = TopGhost;
},
{
origin = "{0, 6}";
target = "{0, 7}";
type = Stem;
}
);
layerId = m004;
paths = (
{
closed = 1;
nodes = (
"662 740 LINE",
"1308 1400 LINE",
"916 1400 LINE",
"451 924 LINE",
"518 1400 LINE",
"218 1400 LINE",
"22 0 LINE",
"322 0 LINE",
"386 458 LINE",
"433 506 LINE",
"720 0 LINE",
"1112 0 LINE"
);
}
);
width = 1230;
},
{
anchors = (
{
name = bottom;
position = "{533, 0}";
},
{
name = top;
position = "{533, 1400}";
}
);
hints = (
{
horizontal = 1;
origin = "{0, 6}";
target = up;
type = BottomGhost;
},
{
horizontal = 1;
origin = "{0, 5}";
target = down;
type = TopGhost;
},
{
origin = "{0, 6}";
target = "{0, 7}";
type = Stem;
}
);
layerId = "F7B0483F-D4AC-485F-91A2-832BFA93C9DB";
paths = (
{
closed = 1;
nodes = (
"471 739 LINE",
"1026 1400 LINE",
"843 1400 LINE",
"260 704 LINE",
"260 1400 LINE",
"120 1400 LINE",
"120 0 LINE",
"260 0 LINE",
"260 486 LINE",
"379 629 LINE",
"838 0 LINE",
"1019 0 LINE"
);
}
);
width = 1066;
},
{
anchors = (
{
name = bottom;
position = "{435, 0}";
},
{
name = top;
position = "{631, 1400}";
}
);
hints = (
{
horizontal = 1;
origin = "{0, 6}";
target = up;
type = BottomGhost;
},
{
horizontal = 1;
origin = "{0, 5}";
target = down;
type = TopGhost;
},
{
origin = "{0, 6}";
target = "{0, 7}";
type = Stem;
}
);
layerId = "A034D368-5B08-4DC5-B558-B81FD113CC46";
paths = (
{
closed = 1;
nodes = (
"476 739 LINE",
"1124 1400 LINE",
"941 1400 LINE",
"260 704 LINE",
"358 1400 LINE",
"218 1400 LINE",
"22 0 LINE",
"162 0 LINE",
"230 486 LINE",
"369 629 LINE",
"740 0 LINE",
"921 0 LINE"
);
}
);
width = 1066;
}
);
leftKerningGroup = H;
rightKerningGroup = K;
unicode = 004B;
},
{
glyphname = L;
lastChange = "2021-10-25 19:38:01 +0000";
layers = (
{
anchors = (
{
name = bottom;
position = "{545, 0}";
},
{
name = center;
position = "{535, 700}";
},
{
name = top;
position = "{270, 1400}";
},
{
name = topright;
position = "{674, 1102}";
}
);
hints = (
{
horizontal = 1;
origin = "{0, 5}";
target = "{0, 2}";
type = Stem;
},
{
horizontal = 1;
origin = "{0, 4}";
target = down;
type = TopGhost;
},
{
origin = "{0, 5}";
target = "{0, 2}";
type = Stem;
}
);
layerId = "10BC12B3-5274-42E3-B5BC-F74F362F0DF4";
paths = (
{
closed = 1;
nodes = (
"970 0 LINE",
"970 300 LINE",
"420 300 LINE",
"420 1400 LINE",
"120 1400 LINE",
"120 0 LINE"
);
}
);
width = 1070;
},
{
anchors = (
{
name = bottom;
position = "{495, 0}";
},
{
name = center;
position = "{485, 700}";
},
{
name = top;
position = "{150, 1400}";
},
{
name = topright;
position = "{554, 1102}";
}
);
hints = (
{
horizontal = 1;
origin = "{0, 5}";
target = "{0, 2}";
type = Stem;
},
{
horizontal = 1;
origin = "{0, 4}";
target = down;
type = TopGhost;
},
{
origin = "{0, 5}";
target = "{0, 2}";
type = Stem;
}
);
layerId = "9AF1F7D9-E035-453E-B2A8-46DE370997D0";
paths = (
{
closed = 1;
nodes = (
"870 0 LINE",
"870 60 LINE",
"180 60 LINE",
"180 1400 LINE",
"120 1400 LINE",
"120 0 LINE"
);
}
);
width = 970;
},
{
anchors = (
{
name = bottom;
position = "{397, 0}";
},
{
name = center;
position = "{485, 700}";
},
{
name = top;
position = "{248, 1400}";
},
{
name = topright;
position = "{610, 1102}";
}
);
hints = (
{
horizontal = 1;
origin = "{0, 5}";
target = "{0, 2}";
type = Stem;
},
{
horizontal = 1;
origin = "{0, 4}";
target = down;
type = TopGhost;
},
{
origin = "{0, 5}";
target = "{0, 2}";
type = Stem;
}
);
layerId = m003;
paths = (
{
closed = 1;
nodes = (
"772 0 LINE",
"780 60 LINE",
"90 60 LINE",
"278 1400 LINE",
"218 1400 LINE",
"22 0 LINE"
);
}
);
width = 970;
},
{
anchors = (
{
name = bottom;
position = "{447, 0}";
},
{
name = center;
position = "{535, 700}";
},
{
name = top;
position = "{368, 1400}";
},
{
name = topright;
position = "{730, 1102}";
}
);
hints = (
{
horizontal = 1;
origin = "{0, 5}";
target = "{0, 2}";
type = Stem;
},
{
horizontal = 1;
origin = "{0, 4}";
target = down;
type = TopGhost;
},
{
origin = "{0, 5}";
target = "{0, 2}";
type = Stem;
}
);
layerId = m004;
paths = (
{
closed = 1;
nodes = (
"872 0 LINE",
"914 300 LINE",
"364 300 LINE",
"518 1400 LINE",
"218 1400 LINE",
"22 0 LINE"
);
}
);
width = 1070;
},
{
anchors = (
{
name = bottom;
position = "{512, 0}";
},
{
name = center;
position = "{502, 700}";
},
{
name = top;
position = "{190, 1400}";
},
{
name = topright;
position = "{594, 1102}";
}
);
hints = (
{
horizontal = 1;
origin = "{0, 5}";
target = "{0, 2}";
type = Stem;
},
{
horizontal = 1;
origin = "{0, 4}";
target = down;
type = TopGhost;
},
{
origin = "{0, 5}";
target = "{0, 2}";
type = Stem;
}
);
layerId = "F7B0483F-D4AC-485F-91A2-832BFA93C9DB";
paths = (
{
closed = 1;
nodes = (
"903 0 LINE",
"903 140 LINE",
"260 140 LINE",
"260 1400 LINE",
"120 1400 LINE",
"120 0 LINE"
);
}
);
width = 1003.33333;
},
{
anchors = (
{
name = bottom;
position = "{414, 0}";
},
{
name = center;
position = "{502, 700}";
},
{
name = top;
position = "{288, 1400}";
},
{
name = topright;
position = "{650, 1102}";
}
);
hints = (
{
horizontal = 1;
origin = "{0, 5}";
target = "{0, 2}";
type = Stem;
},
{
horizontal = 1;
origin = "{0, 4}";
target = down;
type = TopGhost;
},
{
origin = "{0, 5}";
target = "{0, 2}";
type = Stem;
}
);
layerId = "A034D368-5B08-4DC5-B558-B81FD113CC46";
paths = (
{
closed = 1;
nodes = (
"805 0 LINE",
"825 140 LINE",
"181 140 LINE",
"358 1400 LINE",
"218 1400 LINE",
"22 0 LINE"
);
}
);
width = 1003.33333;
}
);
leftKerningGroup = H;
leftMetricsKey = H;
rightKerningGroup = L;
unicode = 004C;
},
{
glyphname = M;
lastChange = "2021-10-25 19:38:01 +0000";
layers = (
{
anchors = (
{
name = bottom;
position = "{962, 0}";
},
{
name = top;
position = "{962, 1400}";
}
);
hints = (
{
horizontal = 1;
origin = "{0, 12}";
target = up;
type = BottomGhost;
},
{
horizontal = 1;
origin = "{0, 11}";
target = down;
type = TopGhost;
}
);
layerId = "10BC12B3-5274-42E3-B5BC-F74F362F0DF4";
paths = (
{
closed = 1;
nodes = (
"426 0 LINE",
"572 756 LINE",
"858 0 LINE",
"1066 0 LINE",
"1352 756 LINE",
"1498 0 LINE",
"1804 0 LINE",
"1532 1400 LINE",
"1276 1400 LINE",
"962 574 LINE",
"648 1400 LINE",
"392 1400 LINE",
"120 0 LINE"
);
}
);
width = 1924;
},
{
anchors = (
{
name = bottom;
position = "{846, 0}";
},
{
name = top;
position = "{846, 1400}";
}
);
hints = (
{
horizontal = 1;
origin = "{0, 12}";
target = up;
type = BottomGhost;
},
{
horizontal = 1;
origin = "{0, 11}";
target = down;
type = TopGhost;
}
);
layerId = "9AF1F7D9-E035-453E-B2A8-46DE370997D0";
paths = (
{
closed = 1;
nodes = (
"180 0 LINE",
"418 1228 LINE",
"830 138 LINE",
"860 138 LINE",
"1272 1228 LINE",
"1510 0 LINE",
"1572 0 LINE",
"1300 1400 LINE",
"1274 1400 LINE",
"846 268 LINE",
"416 1400 LINE",
"390 1400 LINE",
"120 0 LINE"
);
}
);
width = 1692;
},
{
anchors = (
{
name = bottom;
position = "{748, 0}";
},
{
name = top;
position = "{944, 1400}";
}
);
hints = (
{
horizontal = 1;
origin = "{0, 12}";
target = up;
type = BottomGhost;
},
{
horizontal = 1;
origin = "{0, 11}";
target = down;
type = TopGhost;
}
);
layerId = m003;
paths = (
{
closed = 1;
nodes = (
"82 0 LINE",
"492 1228 LINE",
"751 138 LINE",
"781 138 LINE",
"1346 1228 LINE",
"1412 0 LINE",
"1474 0 LINE",
"1398 1400 LINE",
"1372 1400 LINE",
"785 268 LINE",
"514 1400 LINE",
"488 1400 LINE",
"22 0 LINE"
);
}
);
width = 1692;
},
{
anchors = (
{
name = bottom;
position = "{864, 0}";
},
{
name = top;
position = "{1060, 1400}";
}
);
hints = (
{
horizontal = 1;
origin = "{0, 12}";
target = up;
type = BottomGhost;
},
{
horizontal = 1;
origin = "{0, 11}";
target = down;
type = TopGhost;
}
);
layerId = m004;
paths = (
{
closed = 1;
nodes = (
"328 0 LINE",
"580 756 LINE",
"760 0 LINE",
"968 0 LINE",
"1360 756 LINE",
"1400 0 LINE",
"1706 0 LINE",
"1630 1400 LINE",
"1374 1400 LINE",
"944 574 LINE",
"746 1400 LINE",
"490 1400 LINE",
"22 0 LINE"
);
}
);
width = 1924;
},
{
anchors = (
{
name = bottom;
position = "{885, 0}";
},
{
name = top;
position = "{885, 1400}";
}
);
hints = (
{
horizontal = 1;
origin = "{0, 12}";
target = up;
type = BottomGhost;
},
{
horizontal = 1;
origin = "{0, 11}";
target = down;
type = TopGhost;
}
);
layerId = "F7B0483F-D4AC-485F-91A2-832BFA93C9DB";
paths = (
{
closed = 1;
nodes = (
"262 0 LINE",
"469 1071 LINE",
"839 92 LINE",
"929 92 LINE",
"1299 1071 LINE",
"1506 0 LINE",
"1649 0 LINE",
"1377 1400 LINE",
"1275 1400 LINE",
"885 370 LINE",
"493 1400 LINE",
"391 1400 LINE",
"120 0 LINE"
);
}
);
width = 1769.33333;
},
{
anchors = (
{
name = bottom;
position = "{787, 0}";
},
{
name = top;
position = "{983, 1400}";
}
);
hints = (
{
horizontal = 1;
origin = "{0, 12}";
target = up;
type = BottomGhost;
},
{
horizontal = 1;
origin = "{0, 11}";
target = down;
type = TopGhost;
}
);
layerId = "A034D368-5B08-4DC5-B558-B81FD113CC46";
paths = (
{
closed = 1;
nodes = (
"164 0 LINE",
"521 1071 LINE",
"754 92 LINE",
"843 92 LINE",
"1351 1071 LINE",
"1408 0 LINE",
"1551 0 LINE",
"1475 1400 LINE",
"1373 1400 LINE",
"838 370 LINE",
"591 1400 LINE",
"489 1400 LINE",
"22 0 LINE"
);
}
);
width = 1769.33333;
}
);
leftKerningGroup = M;
rightKerningGroup = M;
unicode = 004D;
},
{
glyphname = N;
lastChange = "2021-10-25 19:38:01 +0000";
layers = (
{
anchors = (
{
name = bottom;
position = "{688, 0}";
},
{
name = top;
position = "{688, 1400}";
}
);
hints = (
{
horizontal = 1;
origin = "{0, 9}";
target = up;
type = BottomGhost;
},
{
horizontal = 1;
origin = "{0, 8}";
target = down;
type = TopGhost;
},
{
origin = "{0, 9}";
target = "{0, 0}";
type = Stem;
},
{
origin = "{0, 6}";
target = "{0, 3}";
type = Stem;
}
);
layerId = "10BC12B3-5274-42E3-B5BC-F74F362F0DF4";
paths = (
{
closed = 1;
nodes = (
"420 0 LINE",
"420 858 LINE",
"932 0 LINE",
"1256 0 LINE",
"1256 1400 LINE",
"956 1400 LINE",
"956 542 LINE",
"444 1400 LINE",
"120 1400 LINE",
"120 0 LINE"
);
}
);
width = 1376;
},
{
anchors = (
{
name = bottom;
position = "{609, 0}";
},
{
name = top;
position = "{609, 1400}";
}
);
hints = (
{
horizontal = 1;
origin = "{0, 9}";
target = up;
type = BottomGhost;
},
{
horizontal = 1;
origin = "{0, 8}";
target = down;
type = TopGhost;
},
{
origin = "{0, 9}";
target = "{0, 0}";
type = Stem;
},
{
origin = "{0, 6}";
target = "{0, 3}";
type = Stem;
}
);
layerId = "9AF1F7D9-E035-453E-B2A8-46DE370997D0";
paths = (
{
closed = 1;
nodes = (
"180 0 LINE",
"180 1292 LINE",
"1034 0 LINE",
"1098 0 LINE",
"1098 1400 LINE",
"1038 1400 LINE",
"1038 108 LINE",
"186 1400 LINE",
"120 1400 LINE",
"120 0 LINE"
);
}
);
width = 1218;
},
{
anchors = (
{
name = bottom;
position = "{511, 0}";
},
{
name = top;
position = "{707, 1400}";
}
);
hints = (
{
horizontal = 1;
origin = "{0, 9}";
target = up;
type = BottomGhost;
},
{
horizontal = 1;
origin = "{0, 8}";
target = down;
type = TopGhost;
},
{
origin = "{0, 9}";
target = "{0, 0}";
type = Stem;
},
{
origin = "{0, 6}";
target = "{0, 3}";
type = Stem;
}
);
layerId = m003;
paths = (
{
closed = 1;
nodes = (
"82 0 LINE",
"263 1292 LINE",
"936 0 LINE",
"1000 0 LINE",
"1196 1400 LINE",
"1136 1400 LINE",
"955 108 LINE",
"284 1400 LINE",
"218 1400 LINE",
"22 0 LINE"
);
}
);
width = 1218;
},
{
anchors = (
{
name = bottom;
position = "{590, 0}";
},
{
name = top;
position = "{786, 1400}";
}
);
hints = (
{
horizontal = 1;
origin = "{0, 9}";
target = up;
type = BottomGhost;
},
{
horizontal = 1;
origin = "{0, 8}";
target = down;
type = TopGhost;
},
{
origin = "{0, 9}";
target = "{0, 0}";
type = Stem;
},
{
origin = "{0, 6}";
target = "{0, 3}";
type = Stem;
}
);
layerId = m004;
paths = (
{
closed = 1;
nodes = (
"322 0 LINE",
"442 858 LINE",
"834 0 LINE",
"1158 0 LINE",
"1354 1400 LINE",
"1054 1400 LINE",
"934 542 LINE",
"542 1400 LINE",
"218 1400 LINE",
"22 0 LINE"
);
}
);
width = 1376;
},
{
anchors = (
{
name = bottom;
position = "{635, 0}";
},
{
name = top;
position = "{635, 1400}";
}
);
hints = (
{
horizontal = 1;
origin = "{0, 9}";
target = up;
type = BottomGhost;
},
{
horizontal = 1;
origin = "{0, 8}";
target = down;
type = TopGhost;
},
{
origin = "{0, 9}";
target = "{0, 0}";
type = Stem;
},
{
origin = "{0, 6}";
target = "{0, 3}";
type = Stem;
}
);
layerId = "F7B0483F-D4AC-485F-91A2-832BFA93C9DB";
paths = (
{
closed = 1;
nodes = (
"260 0 LINE",
"260 1147 LINE",
"1000 0 LINE",
"1151 0 LINE",
"1151 1400 LINE",
"1011 1400 LINE",
"1011 253 LINE",
"272 1400 LINE",
"120 1400 LINE",
"120 0 LINE"
);
}
);
width = 1270.66667;
},
{
anchors = (
{
name = bottom;
position = "{537, 0}";
},
{
name = top;
position = "{733, 1400}";
}
);
hints = (
{
horizontal = 1;
origin = "{0, 9}";
target = up;
type = BottomGhost;
},
{
horizontal = 1;
origin = "{0, 8}";
target = down;
type = TopGhost;
},
{
origin = "{0, 9}";
target = "{0, 0}";
type = Stem;
},
{
origin = "{0, 6}";
target = "{0, 3}";
type = Stem;
}
);
layerId = "A034D368-5B08-4DC5-B558-B81FD113CC46";
paths = (
{
closed = 1;
nodes = (
"162 0 LINE",
"323 1147 LINE",
"902 0 LINE",
"1053 0 LINE",
"1249 1400 LINE",
"1109 1400 LINE",
"948 253 LINE",
"370 1400 LINE",
"218 1400 LINE",
"22 0 LINE"
);
}
);
width = 1270.66667;
}
);
leftKerningGroup = H;
leftMetricsKey = H;
rightKerningGroup = H;
rightMetricsKey = H;
unicode = 004E;
},
{
glyphname = O;
lastChange = "2021-10-25 19:38:01 +0000";
layers = (
{
anchors = (
{
name = bottom;
position = "{770, 0}";
},
{
name = center;
position = "{770, 700}";
},
{
name = ogonek;
position = "{1386, 10}";
},
{
name = top;
position = "{770, 1400}";
},
{
name = topleft;
position = "{20, 1400}";
},
{
name = topright;
position = "{1520, 1400}";
}
);
hints = (
{
horizontal = 1;
origin = "{0, 11}";
target = "{1, 11}";
type = Stem;
},
{
horizontal = 1;
origin = "{0, 5}";
target = "{1, 5}";
type = Stem;
},
{
origin = "{0, 8}";
target = "{1, 2}";
type = Stem;
},
{
origin = "{1, 8}";
target = "{0, 2}";
type = Stem;
}
);
layerId = "10BC12B3-5274-42E3-B5BC-F74F362F0DF4";
paths = (
{
closed = 1;
nodes = (
"1150 -26 OFFCURVE",
"1460 300 OFFCURVE",
"1460 700 CURVE SMOOTH",
"1460 1100 OFFCURVE",
"1150 1426 OFFCURVE",
"770 1426 CURVE SMOOTH",
"390 1426 OFFCURVE",
"80 1100 OFFCURVE",
"80 700 CURVE SMOOTH",
"80 300 OFFCURVE",
"390 -26 OFFCURVE",
"770 -26 CURVE SMOOTH"
);
},
{
closed = 1;
nodes = (
"556 274 OFFCURVE",
"380 466 OFFCURVE",
"380 700 CURVE SMOOTH",
"380 934 OFFCURVE",
"556 1126 OFFCURVE",
"770 1126 CURVE SMOOTH",
"984 1126 OFFCURVE",
"1160 934 OFFCURVE",
"1160 700 CURVE SMOOTH",
"1160 466 OFFCURVE",
"984 274 OFFCURVE",
"770 274 CURVE SMOOTH"
);
}
);
width = 1540;
},
{
anchors = (
{
name = bottom;
position = "{770, 0}";
},
{
name = center;
position = "{770, 700}";
},
{
name = ogonek;
position = "{1386, 10}";
},
{
name = top;
position = "{770, 1400}";
},
{
name = topleft;
position = "{20, 1400}";
},
{
name = topright;
position = "{1520, 1400}";
}
);
hints = (
{
horizontal = 1;
origin = "{0, 11}";
target = "{1, 11}";
type = Stem;
},
{
horizontal = 1;
origin = "{0, 5}";
target = "{1, 5}";
type = Stem;
},
{
origin = "{0, 8}";
target = "{1, 2}";
type = Stem;
},
{
origin = "{1, 8}";
target = "{0, 2}";
type = Stem;
}
);
layerId = "9AF1F7D9-E035-453E-B2A8-46DE370997D0";
paths = (
{
closed = 1;
nodes = (
"1150 -26 OFFCURVE",
"1460 300 OFFCURVE",
"1460 700 CURVE SMOOTH",
"1460 1100 OFFCURVE",
"1150 1426 OFFCURVE",
"770 1426 CURVE SMOOTH",
"390 1426 OFFCURVE",
"80 1100 OFFCURVE",
"80 700 CURVE SMOOTH",
"80 300 OFFCURVE",
"390 -26 OFFCURVE",
"770 -26 CURVE SMOOTH"
);
},
{
closed = 1;
nodes = (
"422 34 OFFCURVE",
"140 334 OFFCURVE",
"140 700 CURVE SMOOTH",
"140 1060 OFFCURVE",
"418 1366 OFFCURVE",
"770 1366 CURVE SMOOTH",
"1118 1366 OFFCURVE",
"1400 1064 OFFCURVE",
"1400 700 CURVE SMOOTH",
"1400 340 OFFCURVE",
"1122 34 OFFCURVE",
"770 34 CURVE SMOOTH"
);
}
);
width = 1540;
},
{
anchors = (
{
name = bottom;
position = "{672, 0}";
},
{
name = center;
position = "{770, 700}";
},
{
name = ogonek;
position = "{1289, 10}";
},
{
name = top;
position = "{868, 1400}";
},
{
name = topleft;
position = "{118, 1400}";
},
{
name = topright;
position = "{1618, 1400}";
}
);
hints = (
{
horizontal = 1;
origin = "{0, 11}";
target = "{1, 11}";
type = Stem;
},
{
horizontal = 1;
origin = "{0, 5}";
target = "{1, 5}";
type = Stem;
},
{
origin = "{0, 8}";
target = "{1, 2}";
type = Stem;
},
{
origin = "{1, 8}";
target = "{0, 2}";
type = Stem;
}
);
layerId = m003;
paths = (
{
closed = 1;
nodes = (
"1048 -26 OFFCURVE",
"1404 300 OFFCURVE",
"1460 700 CURVE SMOOTH",
"1516 1100 OFFCURVE",
"1252 1426 OFFCURVE",
"872 1426 CURVE SMOOTH",
"492 1426 OFFCURVE",
"136 1100 OFFCURVE",
"80 700 CURVE SMOOTH",
"24 300 OFFCURVE",
"288 -26 OFFCURVE",
"668 -26 CURVE SMOOTH"
);
},
{
closed = 1;
nodes = (
"328 34 OFFCURVE",
"89 334 OFFCURVE",
"140 700 CURVE SMOOTH",
"191 1060 OFFCURVE",
"512 1366 OFFCURVE",
"864 1366 CURVE SMOOTH",
"1212 1366 OFFCURVE",
"1451 1064 OFFCURVE",
"1400 700 CURVE SMOOTH",
"1349 340 OFFCURVE",
"1028 34 OFFCURVE",
"676 34 CURVE SMOOTH"
);
}
);
width = 1540;
},
{
anchors = (
{
name = bottom;
position = "{672, 0}";
},
{
name = center;
position = "{770, 700}";
},
{
name = ogonek;
position = "{1289, 10}";
},
{
name = top;
position = "{868, 1400}";
},
{
name = topleft;
position = "{118, 1400}";
},
{
name = topright;
position = "{1618, 1400}";
}
);
hints = (
{
horizontal = 1;
origin = "{0, 11}";
target = "{1, 11}";
type = Stem;
},
{
horizontal = 1;
origin = "{0, 5}";
target = "{1, 5}";
type = Stem;
},
{
origin = "{0, 8}";
target = "{1, 2}";
type = Stem;
},
{
origin = "{1, 8}";
target = "{0, 2}";
type = Stem;
}
);
layerId = m004;
paths = (
{
closed = 1;
nodes = (
"1048 -26 OFFCURVE",
"1404 300 OFFCURVE",
"1460 700 CURVE SMOOTH",
"1516 1100 OFFCURVE",
"1252 1426 OFFCURVE",
"872 1426 CURVE SMOOTH",
"492 1426 OFFCURVE",
"136 1100 OFFCURVE",
"80 700 CURVE SMOOTH",
"24 300 OFFCURVE",
"288 -26 OFFCURVE",
"668 -26 CURVE SMOOTH"
);
},
{
closed = 1;
nodes = (
"496 274 OFFCURVE",
"347 466 OFFCURVE",
"380 700 CURVE SMOOTH",
"413 934 OFFCURVE",
"616 1126 OFFCURVE",
"830 1126 CURVE SMOOTH",
"1044 1126 OFFCURVE",
"1193 934 OFFCURVE",
"1160 700 CURVE SMOOTH",
"1127 466 OFFCURVE",
"924 274 OFFCURVE",
"710 274 CURVE SMOOTH"
);
}
);
width = 1540;
},
{
anchors = (
{
name = bottom;
position = "{770, 0}";
},
{
name = center;
position = "{770, 700}";
},
{
name = ogonek;
position = "{1386, 10}";
},
{
name = top;
position = "{770, 1400}";
},
{
name = topleft;
position = "{20, 1400}";
},
{
name = topright;
position = "{1520, 1400}";
}
);
hints = (
{
horizontal = 1;
origin = "{0, 11}";
target = "{1, 11}";
type = Stem;
},
{
horizontal = 1;
origin = "{0, 5}";
target = "{1, 5}";
type = Stem;
},
{
origin = "{0, 8}";
target = "{1, 2}";
type = Stem;
},
{
origin = "{1, 8}";
target = "{0, 2}";
type = Stem;
}
);
layerId = "F7B0483F-D4AC-485F-91A2-832BFA93C9DB";
paths = (
{
closed = 1;
nodes = (
"1150 -26 OFFCURVE",
"1460 300 OFFCURVE",
"1460 700 CURVE SMOOTH",
"1460 1100 OFFCURVE",
"1150 1426 OFFCURVE",
"770 1426 CURVE SMOOTH",
"390 1426 OFFCURVE",
"80 1100 OFFCURVE",
"80 700 CURVE SMOOTH",
"80 300 OFFCURVE",
"390 -26 OFFCURVE",
"770 -26 CURVE SMOOTH"
);
},
{
closed = 1;
nodes = (
"467 114 OFFCURVE",
"220 378 OFFCURVE",
"220 700 CURVE SMOOTH",
"220 1018 OFFCURVE",
"464 1286 OFFCURVE",
"770 1286 CURVE SMOOTH",
"1073 1286 OFFCURVE",
"1320 1021 OFFCURVE",
"1320 700 CURVE SMOOTH",
"1320 382 OFFCURVE",
"1076 114 OFFCURVE",
"770 114 CURVE SMOOTH"
);
}
);
width = 1540;
},
{
anchors = (
{
name = bottom;
position = "{672, 0}";
},
{
name = center;
position = "{770, 700}";
},
{
name = ogonek;
position = "{1289, 10}";
},
{
name = top;
position = "{868, 1400}";
},
{
name = topleft;
position = "{118, 1400}";
},
{
name = topright;
position = "{1618, 1400}";
}
);
hints = (
{
horizontal = 1;
origin = "{0, 11}";
target = "{1, 11}";
type = Stem;
},
{
horizontal = 1;
origin = "{0, 5}";
target = "{1, 5}";
type = Stem;
},
{
origin = "{0, 8}";
target = "{1, 2}";
type = Stem;
},
{
origin = "{1, 8}";
target = "{0, 2}";
type = Stem;
}
);
layerId = "A034D368-5B08-4DC5-B558-B81FD113CC46";
paths = (
{
closed = 1;
nodes = (
"1048 -26 OFFCURVE",
"1404 300 OFFCURVE",
"1460 700 CURVE SMOOTH",
"1516 1100 OFFCURVE",
"1252 1426 OFFCURVE",
"872 1426 CURVE SMOOTH",
"492 1426 OFFCURVE",
"136 1100 OFFCURVE",
"80 700 CURVE SMOOTH",
"24 300 OFFCURVE",
"288 -26 OFFCURVE",
"668 -26 CURVE SMOOTH"
);
},
{
closed = 1;
nodes = (
"384 114 OFFCURVE",
"175 378 OFFCURVE",
"220 700 CURVE SMOOTH",
"265 1018 OFFCURVE",
"547 1286 OFFCURVE",
"853 1286 CURVE SMOOTH",
"1156 1286 OFFCURVE",
"1365 1021 OFFCURVE",
"1320 700 CURVE SMOOTH",
"1275 382 OFFCURVE",
"993 114 OFFCURVE",
"687 114 CURVE SMOOTH"
);
}
);
width = 1540;
}
);
leftKerningGroup = O;
rightKerningGroup = O;
unicode = 004F;
},
{
glyphname = Oslash;
lastChange = "2021-10-25 19:38:01 +0000";
layers = (
{
anchors = (
{
name = bottom;
position = "{770, 0}";
},
{
name = top;
position = "{770, 1400}";
}
);
hints = (
{
horizontal = 1;
origin = "{0, 3}";
target = "{2, 9}";
type = Stem;
},
{
horizontal = 1;
origin = "{0, 15}";
target = "{1, 5}";
type = Stem;
},
{
origin = "{0, 18}";
target = "{1, 2}";
type = Stem;
},
{
origin = "{2, 6}";
target = "{0, 6}";
type = Stem;
}
);
layerId = "10BC12B3-5274-42E3-B5BC-F74F362F0DF4";
paths = (
{
closed = 1;
nodes = (
"548 14 LINE",
"618 -12 OFFCURVE",
"692 -26 OFFCURVE",
"770 -26 CURVE SMOOTH",
"1150 -26 OFFCURVE",
"1460 300 OFFCURVE",
"1460 700 CURVE SMOOTH",
"1460 906 OFFCURVE",
"1378 1092 OFFCURVE",
"1246 1226 CURVE",
"1332 1372 LINE",
"1072 1522 LINE",
"994 1388 LINE",
"924 1412 OFFCURVE",
"850 1426 OFFCURVE",
"770 1426 CURVE SMOOTH",
"390 1426 OFFCURVE",
"80 1100 OFFCURVE",
"80 700 CURVE SMOOTH",
"80 494 OFFCURVE",
"164 308 OFFCURVE",
"294 176 CURVE",
"210 28 LINE",
"470 -122 LINE"
);
},
{
closed = 1;
nodes = (
"408 522 OFFCURVE",
"380 608 OFFCURVE",
"380 700 CURVE SMOOTH",
"380 934 OFFCURVE",
"556 1126 OFFCURVE",
"770 1126 CURVE SMOOTH",
"794 1126 OFFCURVE",
"818 1124 OFFCURVE",
"840 1120 CURVE",
"454 452 LINE"
);
},
{
closed = 1;
nodes = (
"748 274 OFFCURVE",
"724 276 OFFCURVE",
"702 282 CURVE",
"1088 948 LINE",
"1134 878 OFFCURVE",
"1160 792 OFFCURVE",
"1160 700 CURVE SMOOTH",
"1160 466 OFFCURVE",
"984 274 OFFCURVE",
"770 274 CURVE SMOOTH"
);
}
);
width = 1540;
},
{
anchors = (
{
name = bottom;
position = "{770, 0}";
},
{
name = top;
position = "{770, 1400}";
}
);
hints = (
{
horizontal = 1;
origin = "{0, 3}";
target = "{2, 9}";
type = Stem;
},
{
horizontal = 1;
origin = "{0, 15}";
target = "{1, 5}";
type = Stem;
},
{
origin = "{0, 18}";
target = "{1, 2}";
type = Stem;
},
{
origin = "{2, 6}";
target = "{0, 6}";
type = Stem;
}
);
layerId = "9AF1F7D9-E035-453E-B2A8-46DE370997D0";
paths = (
{
closed = 1;
nodes = (
"438 64 LINE",
"538 8 OFFCURVE",
"650 -26 OFFCURVE",
"770 -26 CURVE SMOOTH",
"1150 -26 OFFCURVE",
"1460 300 OFFCURVE",
"1460 700 CURVE SMOOTH",
"1460 952 OFFCURVE",
"1338 1174 OFFCURVE",
"1154 1304 CURVE",
"1228 1432 LINE",
"1176 1462 LINE",
"1104 1336 LINE",
"1004 1394 OFFCURVE",
"892 1426 OFFCURVE",
"770 1426 CURVE SMOOTH",
"390 1426 OFFCURVE",
"80 1100 OFFCURVE",
"80 700 CURVE SMOOTH",
"80 450 OFFCURVE",
"204 228 OFFCURVE",
"388 96 CURVE",
"314 -32 LINE",
"366 -62 LINE"
);
},
{
closed = 1;
nodes = (
"250 270 OFFCURVE",
"140 472 OFFCURVE",
"140 700 CURVE SMOOTH",
"140 1060 OFFCURVE",
"418 1366 OFFCURVE",
"770 1366 CURVE SMOOTH",
"880 1366 OFFCURVE",
"984 1336 OFFCURVE",
"1074 1284 CURVE",
"418 150 LINE"
);
},
{
closed = 1;
nodes = (
"662 34 OFFCURVE",
"558 64 OFFCURVE",
"468 116 CURVE",
"1124 1252 LINE",
"1290 1130 OFFCURVE",
"1400 928 OFFCURVE",
"1400 700 CURVE SMOOTH",
"1400 340 OFFCURVE",
"1122 34 OFFCURVE",
"770 34 CURVE SMOOTH"
);
}
);
width = 1540;
},
{
anchors = (
{
name = bottom;
position = "{672, 0}";
},
{
name = top;
position = "{868, 1400}";
}
);
hints = (
{
horizontal = 1;
origin = "{0, 3}";
target = "{2, 9}";
type = Stem;
},
{
horizontal = 1;
origin = "{0, 15}";
target = "{1, 5}";
type = Stem;
},
{
origin = "{0, 18}";
target = "{1, 2}";
type = Stem;
},
{
origin = "{2, 6}";
target = "{0, 6}";
type = Stem;
}
);
layerId = m003;
paths = (
{
closed = 1;
nodes = (
"349 64 LINE",
"441 8 OFFCURVE",
"548 -26 OFFCURVE",
"668 -26 CURVE SMOOTH",
"1048 -26 OFFCURVE",
"1404 300 OFFCURVE",
"1460 700 CURVE SMOOTH",
"1495 952 OFFCURVE",
"1405 1174 OFFCURVE",
"1239 1304 CURVE",
"1331 1432 LINE",
"1283 1462 LINE",
"1193 1336 LINE",
"1102 1394 OFFCURVE",
"994 1426 OFFCURVE",
"872 1426 CURVE SMOOTH",
"492 1426 OFFCURVE",
"136 1100 OFFCURVE",
"80 700 CURVE SMOOTH",
"45 450 OFFCURVE",
"138 228 OFFCURVE",
"303 96 CURVE",
"211 -32 LINE",
"259 -62 LINE"
);
},
{
closed = 1;
nodes = (
"190 270 OFFCURVE",
"108 472 OFFCURVE",
"140 700 CURVE SMOOTH",
"191 1060 OFFCURVE",
"512 1366 OFFCURVE",
"864 1366 CURVE SMOOTH",
"974 1366 OFFCURVE",
"1073 1336 OFFCURVE",
"1156 1284 CURVE",
"341 150 LINE"
);
},
{
closed = 1;
nodes = (
"568 34 OFFCURVE",
"469 64 OFFCURVE",
"386 116 CURVE",
"1202 1252 LINE",
"1350 1130 OFFCURVE",
"1432 928 OFFCURVE",
"1400 700 CURVE SMOOTH",
"1349 340 OFFCURVE",
"1028 34 OFFCURVE",
"676 34 CURVE SMOOTH"
);
}
);
width = 1540;
},
{
anchors = (
{
name = bottom;
position = "{672, 0}";
},
{
name = top;
position = "{868, 1400}";
}
);
hints = (
{
horizontal = 1;
origin = "{0, 3}";
target = "{2, 9}";
type = Stem;
},
{
horizontal = 1;
origin = "{0, 15}";
target = "{1, 5}";
type = Stem;
},
{
origin = "{0, 18}";
target = "{1, 2}";
type = Stem;
},
{
origin = "{2, 6}";
target = "{0, 6}";
type = Stem;
}
);
layerId = m004;
paths = (
{
closed = 1;
nodes = (
"452 14 LINE",
"518 -12 OFFCURVE",
"590 -26 OFFCURVE",
"668 -26 CURVE SMOOTH",
"1048 -26 OFFCURVE",
"1404 300 OFFCURVE",
"1460 700 CURVE SMOOTH",
"1489 906 OFFCURVE",
"1433 1092 OFFCURVE",
"1320 1226 CURVE",
"1426 1372 LINE",
"1188 1522 LINE",
"1091 1388 LINE",
"1024 1412 OFFCURVE",
"952 1426 OFFCURVE",
"872 1426 CURVE SMOOTH",
"492 1426 OFFCURVE",
"136 1100 OFFCURVE",
"80 700 CURVE SMOOTH",
"51 494 OFFCURVE",
"109 308 OFFCURVE",
"220 176 CURVE",
"116 28 LINE",
"354 -122 LINE"
);
},
{
closed = 1;
nodes = (
"383 522 OFFCURVE",
"367 608 OFFCURVE",
"380 700 CURVE SMOOTH",
"413 934 OFFCURVE",
"616 1126 OFFCURVE",
"830 1126 CURVE SMOOTH",
"854 1126 OFFCURVE",
"878 1124 OFFCURVE",
"899 1120 CURVE",
"419 452 LINE"
);
},
{
closed = 1;
nodes = (
"688 274 OFFCURVE",
"664 276 OFFCURVE",
"643 282 CURVE",
"1123 948 LINE",
"1159 878 OFFCURVE",
"1173 792 OFFCURVE",
"1160 700 CURVE SMOOTH",
"1127 466 OFFCURVE",
"924 274 OFFCURVE",
"710 274 CURVE SMOOTH"
);
}
);
width = 1540;
},
{
anchors = (
{
name = bottom;
position = "{770, 0}";
},
{
name = top;
position = "{770, 1400}";
}
);
hints = (
{
horizontal = 1;
origin = "{0, 3}";
target = "{2, 9}";
type = Stem;
},
{
horizontal = 1;
origin = "{0, 15}";
target = "{1, 5}";
type = Stem;
},
{
origin = "{0, 18}";
target = "{1, 2}";
type = Stem;
},
{
origin = "{2, 6}";
target = "{0, 6}";
type = Stem;
}
);
layerId = "F7B0483F-D4AC-485F-91A2-832BFA93C9DB";
paths = (
{
closed = 1;
nodes = (
"475 47 LINE",
"565 1 OFFCURVE",
"664 -26 OFFCURVE",
"770 -26 CURVE SMOOTH",
"1150 -26 OFFCURVE",
"1460 300 OFFCURVE",
"1460 700 CURVE SMOOTH",
"1460 937 OFFCURVE",
"1351 1147 OFFCURVE",
"1185 1278 CURVE",
"1263 1412 LINE",
"1141 1482 LINE",
"1067 1353 LINE",
"977 1400 OFFCURVE",
"878 1426 OFFCURVE",
"770 1426 CURVE SMOOTH",
"390 1426 OFFCURVE",
"80 1100 OFFCURVE",
"80 700 CURVE SMOOTH",
"80 465 OFFCURVE",
"191 255 OFFCURVE",
"357 123 CURVE",
"279 -12 LINE",
"401 -82 LINE"
);
},
{
closed = 1;
nodes = (
"303 354 OFFCURVE",
"220 517 OFFCURVE",
"220 700 CURVE SMOOTH",
"220 1018 OFFCURVE",
"464 1286 OFFCURVE",
"770 1286 CURVE SMOOTH",
"851 1286 OFFCURVE",
"929 1265 OFFCURVE",
"996 1229 CURVE",
"430 251 LINE"
);
},
{
closed = 1;
nodes = (
"691 114 OFFCURVE",
"613 135 OFFCURVE",
"546 171 CURVE",
"1112 1151 LINE",
"1238 1046 OFFCURVE",
"1320 883 OFFCURVE",
"1320 700 CURVE SMOOTH",
"1320 382 OFFCURVE",
"1076 114 OFFCURVE",
"770 114 CURVE SMOOTH"
);
}
);
width = 1540;
},
{
anchors = (
{
name = bottom;
position = "{672, 0}";
},
{
name = top;
position = "{868, 1400}";
}
);
hints = (
{
horizontal = 1;
origin = "{0, 3}";
target = "{2, 9}";
type = Stem;
},
{
horizontal = 1;
origin = "{0, 15}";
target = "{1, 5}";
type = Stem;
},
{
origin = "{0, 18}";
target = "{1, 2}";
type = Stem;
},
{
origin = "{2, 6}";
target = "{0, 6}";
type = Stem;
}
);
layerId = "A034D368-5B08-4DC5-B558-B81FD113CC46";
paths = (
{
closed = 1;
nodes = (
"383 47 LINE",
"467 1 OFFCURVE",
"562 -26 OFFCURVE",
"668 -26 CURVE SMOOTH",
"1048 -26 OFFCURVE",
"1404 300 OFFCURVE",
"1460 700 CURVE SMOOTH",
"1493 937 OFFCURVE",
"1414 1147 OFFCURVE",
"1266 1278 CURVE",
"1363 1412 LINE",
"1251 1482 LINE",
"1159 1353 LINE",
"1076 1400 OFFCURVE",
"980 1426 OFFCURVE",
"872 1426 CURVE SMOOTH",
"492 1426 OFFCURVE",
"136 1100 OFFCURVE",
"80 700 CURVE SMOOTH",
"47 465 OFFCURVE",
"128 255 OFFCURVE",
"275 123 CURVE",
"179 -12 LINE",
"291 -82 LINE"
);
},
{
closed = 1;
nodes = (
"254 354 OFFCURVE",
"194 517 OFFCURVE",
"220 700 CURVE SMOOTH",
"265 1018 OFFCURVE",
"547 1286 OFFCURVE",
"853 1286 CURVE SMOOTH",
"934 1286 OFFCURVE",
"1008 1265 OFFCURVE",
"1070 1229 CURVE",
"367 251 LINE"
);
},
{
closed = 1;
nodes = (
"608 114 OFFCURVE",
"534 135 OFFCURVE",
"472 171 CURVE",
"1176 1151 LINE",
"1286 1046 OFFCURVE",
"1346 883 OFFCURVE",
"1320 700 CURVE SMOOTH",
"1275 382 OFFCURVE",
"993 114 OFFCURVE",
"687 114 CURVE SMOOTH"
);
}
);
width = 1540;
}
);
leftKerningGroup = O;
leftMetricsKey = O;
rightKerningGroup = O;
rightMetricsKey = O;
unicode = 00D8;
},
{
glyphname = OE;
lastChange = "2021-10-25 19:38:01 +0000";
layers = (
{
anchors = (
{
name = bottom;
position = "{1048, 0}";
},
{
name = top;
position = "{1048, 1400}";
}
);
hints = (
{
horizontal = 1;
origin = "{0, 24}";
target = "{1, 11}";
type = Stem;
},
{
horizontal = 1;
origin = "{0, 7}";
target = "{0, 10}";
type = Stem;
},
{
horizontal = 1;
origin = "{0, 14}";
target = "{0, 11}";
type = Stem;
},
{
horizontal = 1;
origin = "{0, 3}";
target = "{0, 6}";
type = Stem;
},
{
horizontal = 1;
origin = "{0, 18}";
target = "{1, 5}";
type = Stem;
},
{
origin = "{0, 21}";
target = "{1, 2}";
type = Stem;
},
{
origin = "{1, 8}";
target = "{0, 6}";
type = Stem;
}
);
layerId = "10BC12B3-5274-42E3-B5BC-F74F362F0DF4";
paths = (
{
closed = 1;
nodes = (
"916 -26 OFFCURVE",
"1052 22 OFFCURVE",
"1164 104 CURVE",
"1164 0 LINE",
"1996 0 LINE",
"1996 300 LINE",
"1464 300 LINE",
"1464 550 LINE",
"1900 550 LINE",
"1900 850 LINE",
"1464 850 LINE",
"1464 1100 LINE",
"1996 1100 LINE",
"1996 1400 LINE",
"1164 1400 LINE",
"1164 1296 LINE",
"1052 1378 OFFCURVE",
"916 1426 OFFCURVE",
"770 1426 CURVE SMOOTH",
"390 1426 OFFCURVE",
"80 1100 OFFCURVE",
"80 700 CURVE SMOOTH",
"80 300 OFFCURVE",
"390 -26 OFFCURVE",
"770 -26 CURVE SMOOTH"
);
},
{
closed = 1;
nodes = (
"556 274 OFFCURVE",
"380 466 OFFCURVE",
"380 700 CURVE SMOOTH",
"380 934 OFFCURVE",
"556 1126 OFFCURVE",
"770 1126 CURVE SMOOTH",
"984 1126 OFFCURVE",
"1160 934 OFFCURVE",
"1160 700 CURVE SMOOTH",
"1160 466 OFFCURVE",
"984 274 OFFCURVE",
"770 274 CURVE SMOOTH"
);
}
);
width = 2096;
},
{
anchors = (
{
name = bottom;
position = "{1103, 0}";
},
{
name = top;
position = "{1103, 1400}";
}
);
hints = (
{
horizontal = 1;
origin = "{0, 24}";
target = "{1, 11}";
type = Stem;
},
{
horizontal = 1;
origin = "{0, 7}";
target = "{0, 10}";
type = Stem;
},
{
horizontal = 1;
origin = "{0, 14}";
target = "{0, 11}";
type = Stem;
},
{
horizontal = 1;
origin = "{0, 3}";
target = "{0, 6}";
type = Stem;
},
{
horizontal = 1;
origin = "{0, 18}";
target = "{1, 5}";
type = Stem;
},
{
origin = "{0, 21}";
target = "{1, 2}";
type = Stem;
},
{
origin = "{0, 3}";
target = "{0, 6}";
type = Stem;
}
);
layerId = "9AF1F7D9-E035-453E-B2A8-46DE370997D0";
paths = (
{
closed = 1;
nodes = (
"1050 -26 OFFCURVE",
"1292 152 OFFCURVE",
"1400 404 CURVE",
"1400 0 LINE",
"2106 0 LINE",
"2106 60 LINE",
"1460 60 LINE",
"1460 670 LINE",
"2010 670 LINE",
"2010 730 LINE",
"1460 730 LINE",
"1460 1340 LINE",
"2106 1340 LINE",
"2106 1400 LINE",
"1400 1400 LINE",
"1400 996 LINE",
"1292 1248 OFFCURVE",
"1050 1426 OFFCURVE",
"770 1426 CURVE SMOOTH",
"390 1426 OFFCURVE",
"80 1100 OFFCURVE",
"80 700 CURVE SMOOTH",
"80 300 OFFCURVE",
"390 -26 OFFCURVE",
"770 -26 CURVE SMOOTH"
);
},
{
closed = 1;
nodes = (
"422 34 OFFCURVE",
"140 334 OFFCURVE",
"140 700 CURVE SMOOTH",
"140 1060 OFFCURVE",
"418 1366 OFFCURVE",
"770 1366 CURVE SMOOTH",
"1118 1366 OFFCURVE",
"1400 1064 OFFCURVE",
"1400 700 CURVE SMOOTH",
"1400 340 OFFCURVE",
"1122 34 OFFCURVE",
"770 34 CURVE SMOOTH"
);
}
);
width = 2206;
},
{
anchors = (
{
name = bottom;
position = "{1005, 0}";
},
{
name = top;
position = "{1201, 1400}";
}
);
hints = (
{
horizontal = 1;
origin = "{0, 24}";
target = "{1, 11}";
type = Stem;
},
{
horizontal = 1;
origin = "{0, 7}";
target = "{0, 10}";
type = Stem;
},
{
horizontal = 1;
origin = "{0, 14}";
target = "{0, 11}";
type = Stem;
},
{
horizontal = 1;
origin = "{0, 3}";
target = "{0, 6}";
type = Stem;
},
{
horizontal = 1;
origin = "{0, 18}";
target = "{1, 5}";
type = Stem;
},
{
origin = "{0, 21}";
target = "{1, 2}";
type = Stem;
},
{
origin = "{0, 3}";
target = "{0, 6}";
type = Stem;
}
);
layerId = m003;
paths = (
{
closed = 1;
nodes = (
"948 -26 OFFCURVE",
"1215 152 OFFCURVE",
"1358 404 CURVE",
"1302 0 LINE",
"2008 0 LINE",
"2016 60 LINE",
"1370 60 LINE",
"1456 670 LINE",
"2006 670 LINE",
"2014 730 LINE",
"1464 730 LINE",
"1550 1340 LINE",
"2196 1340 LINE",
"2204 1400 LINE",
"1498 1400 LINE",
"1442 996 LINE",
"1369 1248 OFFCURVE",
"1152 1426 OFFCURVE",
"872 1426 CURVE SMOOTH",
"492 1426 OFFCURVE",
"136 1100 OFFCURVE",
"80 700 CURVE SMOOTH",
"24 300 OFFCURVE",
"288 -26 OFFCURVE",
"668 -26 CURVE SMOOTH"
);
},
{
closed = 1;
nodes = (
"328 34 OFFCURVE",
"89 334 OFFCURVE",
"140 700 CURVE SMOOTH",
"191 1060 OFFCURVE",
"512 1366 OFFCURVE",
"864 1366 CURVE SMOOTH",
"1212 1366 OFFCURVE",
"1451 1064 OFFCURVE",
"1400 700 CURVE SMOOTH",
"1349 340 OFFCURVE",
"1028 34 OFFCURVE",
"676 34 CURVE SMOOTH"
);
}
);
width = 2206;
},
{
anchors = (
{
name = bottom;
position = "{950, 0}";
},
{
name = top;
position = "{1146, 1400}";
}
);
hints = (
{
horizontal = 1;
origin = "{0, 24}";
target = "{1, 11}";
type = Stem;
},
{
horizontal = 1;
origin = "{0, 7}";
target = "{0, 10}";
type = Stem;
},
{
horizontal = 1;
origin = "{0, 14}";
target = "{0, 11}";
type = Stem;
},
{
horizontal = 1;
origin = "{0, 3}";
target = "{0, 6}";
type = Stem;
},
{
horizontal = 1;
origin = "{0, 18}";
target = "{1, 5}";
type = Stem;
},
{
origin = "{0, 21}";
target = "{1, 2}";
type = Stem;
},
{
origin = "{1, 8}";
target = "{0, 6}";
type = Stem;
}
);
layerId = m004;
paths = (
{
closed = 1;
nodes = (
"814 -26 OFFCURVE",
"957 22 OFFCURVE",
"1080 104 CURVE",
"1066 0 LINE",
"1898 0 LINE",
"1940 300 LINE",
"1408 300 LINE",
"1443 550 LINE",
"1879 550 LINE",
"1921 850 LINE",
"1485 850 LINE",
"1520 1100 LINE",
"2052 1100 LINE",
"2094 1400 LINE",
"1262 1400 LINE",
"1248 1296 LINE",
"1147 1378 OFFCURVE",
"1018 1426 OFFCURVE",
"872 1426 CURVE SMOOTH",
"492 1426 OFFCURVE",
"136 1100 OFFCURVE",
"80 700 CURVE SMOOTH",
"24 300 OFFCURVE",
"288 -26 OFFCURVE",
"668 -26 CURVE SMOOTH"
);
},
{
closed = 1;
nodes = (
"496 274 OFFCURVE",
"347 466 OFFCURVE",
"380 700 CURVE SMOOTH",
"413 934 OFFCURVE",
"616 1126 OFFCURVE",
"830 1126 CURVE SMOOTH",
"1044 1126 OFFCURVE",
"1193 934 OFFCURVE",
"1160 700 CURVE SMOOTH",
"1127 466 OFFCURVE",
"924 274 OFFCURVE",
"710 274 CURVE SMOOTH"
);
}
);
width = 2096;
},
{
anchors = (
{
name = bottom;
position = "{1085, 0}";
},
{
name = top;
position = "{1085, 1400}";
}
);
hints = (
{
horizontal = 1;
origin = "{0, 24}";
target = "{1, 11}";
type = Stem;
},
{
horizontal = 1;
origin = "{0, 7}";
target = "{0, 10}";
type = Stem;
},
{
horizontal = 1;
origin = "{0, 14}";
target = "{0, 11}";
type = Stem;
},
{
horizontal = 1;
origin = "{0, 3}";
target = "{0, 6}";
type = Stem;
},
{
horizontal = 1;
origin = "{0, 18}";
target = "{1, 5}";
type = Stem;
},
{
origin = "{0, 21}";
target = "{1, 2}";
type = Stem;
},
{
origin = "{0, 3}";
target = "{0, 6}";
type = Stem;
}
);
layerId = "F7B0483F-D4AC-485F-91A2-832BFA93C9DB";
paths = (
{
closed = 1;
nodes = (
"1005 -26 OFFCURVE",
"1212 109 OFFCURVE",
"1321 304 CURVE",
"1321 0 LINE",
"2069 0 LINE",
"2069 140 LINE",
"1461 140 LINE",
"1461 630 LINE",
"1973 630 LINE",
"1973 770 LINE",
"1461 770 LINE",
"1461 1260 LINE",
"2069 1260 LINE",
"2069 1400 LINE",
"1321 1400 LINE",
"1321 1096 LINE",
"1212 1291 OFFCURVE",
"1005 1426 OFFCURVE",
"770 1426 CURVE SMOOTH",
"390 1426 OFFCURVE",
"80 1100 OFFCURVE",
"80 700 CURVE SMOOTH",
"80 300 OFFCURVE",
"390 -26 OFFCURVE",
"770 -26 CURVE SMOOTH"
);
},
{
closed = 1;
nodes = (
"467 114 OFFCURVE",
"220 378 OFFCURVE",
"220 700 CURVE SMOOTH",
"220 1018 OFFCURVE",
"464 1286 OFFCURVE",
"770 1286 CURVE SMOOTH",
"1073 1286 OFFCURVE",
"1320 1021 OFFCURVE",
"1320 700 CURVE SMOOTH",
"1320 382 OFFCURVE",
"1076 114 OFFCURVE",
"770 114 CURVE SMOOTH"
);
}
);
width = 2169.33333;
},
{
anchors = (
{
name = bottom;
position = "{987, 0}";
},
{
name = top;
position = "{1183, 1400}";
}
);
hints = (
{
horizontal = 1;
origin = "{0, 24}";
target = "{1, 11}";
type = Stem;
},
{
horizontal = 1;
origin = "{0, 7}";
target = "{0, 10}";
type = Stem;
},
{
horizontal = 1;
origin = "{0, 14}";
target = "{0, 11}";
type = Stem;
},
{
horizontal = 1;
origin = "{0, 3}";
target = "{0, 6}";
type = Stem;
},
{
horizontal = 1;
origin = "{0, 18}";
target = "{1, 5}";
type = Stem;
},
{
origin = "{0, 21}";
target = "{1, 2}";
type = Stem;
},
{
origin = "{0, 3}";
target = "{0, 6}";
type = Stem;
}
);
layerId = "A034D368-5B08-4DC5-B558-B81FD113CC46";
paths = (
{
closed = 1;
nodes = (
"903 -26 OFFCURVE",
"1129 109 OFFCURVE",
"1265 304 CURVE",
"1223 0 LINE",
"1971 0 LINE",
"1991 140 LINE",
"1383 140 LINE",
"1452 630 LINE",
"1964 630 LINE",
"1983 770 LINE",
"1471 770 LINE",
"1540 1260 LINE",
"2148 1260 LINE",
"2167 1400 LINE",
"1419 1400 LINE",
"1377 1096 LINE",
"1295 1291 OFFCURVE",
"1107 1426 OFFCURVE",
"872 1426 CURVE SMOOTH",
"492 1426 OFFCURVE",
"136 1100 OFFCURVE",
"80 700 CURVE SMOOTH",
"24 300 OFFCURVE",
"288 -26 OFFCURVE",
"668 -26 CURVE SMOOTH"
);
},
{
closed = 1;
nodes = (
"384 114 OFFCURVE",
"175 378 OFFCURVE",
"220 700 CURVE SMOOTH",
"265 1018 OFFCURVE",
"547 1286 OFFCURVE",
"853 1286 CURVE SMOOTH",
"1156 1286 OFFCURVE",
"1365 1021 OFFCURVE",
"1320 700 CURVE SMOOTH",
"1275 382 OFFCURVE",
"993 114 OFFCURVE",
"687 114 CURVE SMOOTH"
);
}
);
width = 2169.33333;
}
);
leftKerningGroup = O;
leftMetricsKey = O;
rightKerningGroup = E;
rightMetricsKey = E;
unicode = 0152;
},
{
glyphname = P;
lastChange = "2021-10-25 19:38:01 +0000";
layers = (
{
anchors = (
{
name = bottom;
position = "{570, 0}";
},
{
name = top;
position = "{570, 1400}";
}
);
hints = (
{
horizontal = 1;
origin = "{0, 10}";
target = up;
type = BottomGhost;
},
{
horizontal = 1;
origin = "{0, 1}";
target = "{1, 8}";
type = Stem;
},
{
horizontal = 1;
origin = "{0, 9}";
target = "{1, 0}";
type = Stem;
},
{
origin = "{0, 10}";
target = "{0, 0}";
type = Stem;
},
{
origin = "{1, 4}";
target = "{0, 5}";
type = Stem;
}
);
layerId = "10BC12B3-5274-42E3-B5BC-F74F362F0DF4";
paths = (
{
closed = 1;
nodes = (
"420 0 LINE",
"420 544 LINE",
"648 544 LINE SMOOTH",
"870 544 OFFCURVE",
"1060 736 OFFCURVE",
"1060 972 CURVE SMOOTH",
"1060 1204 OFFCURVE",
"878 1400 OFFCURVE",
"648 1400 CURVE SMOOTH",
"120 1400 LINE",
"120 0 LINE"
);
},
{
closed = 1;
nodes = (
"420 1144 LINE",
"614 1144 LINE SMOOTH",
"694 1144 OFFCURVE",
"760 1076 OFFCURVE",
"760 994 CURVE SMOOTH",
"760 912 OFFCURVE",
"694 844 OFFCURVE",
"614 844 CURVE SMOOTH",
"420 844 LINE"
);
}
);
width = 1140;
},
{
anchors = (
{
name = bottom;
position = "{500, 0}";
},
{
name = top;
position = "{500, 1400}";
}
);
hints = (
{
horizontal = 1;
origin = "{0, 10}";
target = up;
type = BottomGhost;
},
{
horizontal = 1;
origin = "{0, 1}";
target = "{1, 8}";
type = Stem;
},
{
horizontal = 1;
origin = "{0, 9}";
target = "{1, 0}";
type = Stem;
},
{
origin = "{0, 10}";
target = "{0, 0}";
type = Stem;
},
{
origin = "{1, 4}";
target = "{0, 5}";
type = Stem;
}
);
layerId = "9AF1F7D9-E035-453E-B2A8-46DE370997D0";
paths = (
{
closed = 1;
nodes = (
"180 0 LINE",
"180 600 LINE",
"528 600 LINE SMOOTH",
"742 600 OFFCURVE",
"920 770 OFFCURVE",
"920 1000 CURVE SMOOTH",
"920 1228 OFFCURVE",
"748 1400 OFFCURVE",
"528 1400 CURVE SMOOTH",
"120 1400 LINE",
"120 0 LINE"
);
},
{
closed = 1;
nodes = (
"180 1340 LINE",
"528 1340 LINE SMOOTH",
"710 1340 OFFCURVE",
"860 1196 OFFCURVE",
"860 1000 CURVE SMOOTH",
"860 804 OFFCURVE",
"710 660 OFFCURVE",
"528 660 CURVE SMOOTH",
"180 660 LINE"
);
}
);
width = 1000;
},
{
anchors = (
{
name = bottom;
position = "{402, 0}";
},
{
name = top;
position = "{598, 1400}";
}
);
hints = (
{
horizontal = 1;
origin = "{0, 10}";
target = up;
type = BottomGhost;
},
{
horizontal = 1;
origin = "{0, 1}";
target = "{1, 8}";
type = Stem;
},
{
horizontal = 1;
origin = "{0, 9}";
target = "{1, 0}";
type = Stem;
},
{
origin = "{0, 10}";
target = "{0, 0}";
type = Stem;
},
{
origin = "{1, 4}";
target = "{0, 5}";
type = Stem;
}
);
layerId = m003;
paths = (
{
closed = 1;
nodes = (
"82 0 LINE",
"166 600 LINE",
"514 600 LINE SMOOTH",
"728 600 OFFCURVE",
"930 770 OFFCURVE",
"962 1000 CURVE SMOOTH",
"994 1228 OFFCURVE",
"846 1400 OFFCURVE",
"626 1400 CURVE SMOOTH",
"218 1400 LINE",
"22 0 LINE"
);
},
{
closed = 1;
nodes = (
"270 1340 LINE",
"618 1340 LINE SMOOTH",
"800 1340 OFFCURVE",
"930 1196 OFFCURVE",
"902 1000 CURVE SMOOTH",
"875 804 OFFCURVE",
"704 660 OFFCURVE",
"522 660 CURVE SMOOTH",
"174 660 LINE"
);
}
);
width = 1000;
},
{
anchors = (
{
name = bottom;
position = "{472, 0}";
},
{
name = top;
position = "{668, 1400}";
}
);
hints = (
{
horizontal = 1;
origin = "{0, 10}";
target = up;
type = BottomGhost;
},
{
horizontal = 1;
origin = "{0, 1}";
target = "{1, 8}";
type = Stem;
},
{
horizontal = 1;
origin = "{0, 9}";
target = "{1, 0}";
type = Stem;
},
{
origin = "{0, 10}";
target = "{0, 0}";
type = Stem;
},
{
origin = "{1, 4}";
target = "{0, 5}";
type = Stem;
}
);
layerId = m004;
paths = (
{
closed = 1;
nodes = (
"322 0 LINE",
"398 544 LINE",
"626 544 LINE SMOOTH",
"848 544 OFFCURVE",
"1065 736 OFFCURVE",
"1098 972 CURVE SMOOTH",
"1131 1204 OFFCURVE",
"976 1400 OFFCURVE",
"746 1400 CURVE SMOOTH",
"218 1400 LINE",
"22 0 LINE"
);
},
{
closed = 1;
nodes = (
"482 1144 LINE",
"676 1144 LINE SMOOTH",
"756 1144 OFFCURVE",
"813 1076 OFFCURVE",
"801 994 CURVE SMOOTH",
"790 912 OFFCURVE",
"714 844 OFFCURVE",
"634 844 CURVE SMOOTH",
"440 844 LINE"
);
}
);
width = 1140;
},
{
anchors = (
{
name = bottom;
position = "{523, 0}";
},
{
name = top;
position = "{523, 1400}";
}
);
hints = (
{
horizontal = 1;
origin = "{0, 10}";
target = up;
type = BottomGhost;
},
{
horizontal = 1;
origin = "{0, 1}";
target = "{1, 8}";
type = Stem;
},
{
horizontal = 1;
origin = "{0, 9}";
target = "{1, 0}";
type = Stem;
},
{
origin = "{0, 10}";
target = "{0, 0}";
type = Stem;
},
{
origin = "{1, 4}";
target = "{0, 5}";
type = Stem;
}
);
layerId = "F7B0483F-D4AC-485F-91A2-832BFA93C9DB";
paths = (
{
closed = 1;
nodes = (
"260 0 LINE",
"260 581 LINE",
"568 581 LINE SMOOTH",
"785 581 OFFCURVE",
"967 759 OFFCURVE",
"967 991 CURVE SMOOTH",
"967 1220 OFFCURVE",
"791 1400 OFFCURVE",
"568 1400 CURVE SMOOTH",
"120 1400 LINE",
"120 0 LINE"
);
},
{
closed = 1;
nodes = (
"260 1275 LINE",
"557 1275 LINE SMOOTH",
"705 1275 OFFCURVE",
"827 1156 OFFCURVE",
"827 998 CURVE SMOOTH",
"827 840 OFFCURVE",
"705 721 OFFCURVE",
"557 721 CURVE SMOOTH",
"260 721 LINE"
);
}
);
width = 1046.66667;
},
{
anchors = (
{
name = bottom;
position = "{425, 0}";
},
{
name = top;
position = "{621, 1400}";
}
);
hints = (
{
horizontal = 1;
origin = "{0, 10}";
target = up;
type = BottomGhost;
},
{
horizontal = 1;
origin = "{0, 1}";
target = "{1, 8}";
type = Stem;
},
{
horizontal = 1;
origin = "{0, 9}";
target = "{1, 0}";
type = Stem;
},
{
origin = "{0, 10}";
target = "{0, 0}";
type = Stem;
},
{
origin = "{1, 4}";
target = "{0, 5}";
type = Stem;
}
);
layerId = "A034D368-5B08-4DC5-B558-B81FD113CC46";
paths = (
{
closed = 1;
nodes = (
"162 0 LINE",
"243 581 LINE",
"551 581 LINE SMOOTH",
"768 581 OFFCURVE",
"975 759 OFFCURVE",
"1007 991 CURVE SMOOTH",
"1040 1220 OFFCURVE",
"889 1400 OFFCURVE",
"666 1400 CURVE SMOOTH",
"218 1400 LINE",
"22 0 LINE"
);
},
{
closed = 1;
nodes = (
"341 1275 LINE",
"637 1275 LINE SMOOTH",
"785 1275 OFFCURVE",
"891 1156 OFFCURVE",
"868 998 CURVE SMOOTH",
"847 840 OFFCURVE",
"707 721 OFFCURVE",
"559 721 CURVE SMOOTH",
"263 721 LINE"
);
}
);
width = 1046.66667;
}
);
leftKerningGroup = H;
leftMetricsKey = H;
rightKerningGroup = P;
unicode = 0050;
},
{
glyphname = Thorn;
lastChange = "2021-10-25 19:38:01 +0000";
layers = (
{
anchors = (
{
name = bottom;
position = "{570, 0}";
},
{
name = top;
position = "{570, 1400}";
}
);
hints = (
{
horizontal = 1;
origin = "{0, 12}";
target = up;
type = BottomGhost;
},
{
horizontal = 1;
origin = "{0, 1}";
target = "{1, 8}";
type = Stem;
},
{
horizontal = 1;
origin = "{1, 0}";
target = "{0, 9}";
type = Stem;
},
{
horizontal = 1;
origin = "{0, 11}";
target = down;
type = TopGhost;
},
{
origin = "{0, 12}";
target = "{0, 0}";
type = Stem;
},
{
origin = "{1, 4}";
target = "{0, 5}";
type = Stem;
}
);
layerId = "10BC12B3-5274-42E3-B5BC-F74F362F0DF4";
paths = (
{
closed = 1;
nodes = (
"420 0 LINE",
"420 272 LINE",
"648 272 LINE SMOOTH",
"870 272 OFFCURVE",
"1060 464 OFFCURVE",
"1060 700 CURVE SMOOTH",
"1060 932 OFFCURVE",
"878 1128 OFFCURVE",
"648 1128 CURVE SMOOTH",
"420 1128 LINE",
"420 1400 LINE",
"120 1400 LINE",
"120 0 LINE"
);
},
{
closed = 1;
nodes = (
"420 872 LINE",
"614 872 LINE SMOOTH",
"694 872 OFFCURVE",
"760 804 OFFCURVE",
"760 722 CURVE SMOOTH",
"760 640 OFFCURVE",
"694 572 OFFCURVE",
"614 572 CURVE SMOOTH",
"420 572 LINE"
);
}
);
width = 1120;
},
{
anchors = (
{
name = bottom;
position = "{500, 0}";
},
{
name = top;
position = "{500, 1400}";
}
);
hints = (
{
horizontal = 1;
origin = "{0, 12}";
target = up;
type = BottomGhost;
},
{
horizontal = 1;
origin = "{0, 1}";
target = "{1, 8}";
type = Stem;
},
{
horizontal = 1;
origin = "{1, 0}";
target = "{0, 9}";
type = Stem;
},
{
horizontal = 1;
origin = "{0, 11}";
target = down;
type = TopGhost;
},
{
origin = "{0, 12}";
target = "{0, 0}";
type = Stem;
},
{
origin = "{1, 4}";
target = "{0, 5}";
type = Stem;
}
);
layerId = "9AF1F7D9-E035-453E-B2A8-46DE370997D0";
paths = (
{
closed = 1;
nodes = (
"180 0 LINE",
"180 300 LINE",
"528 300 LINE SMOOTH",
"742 300 OFFCURVE",
"920 470 OFFCURVE",
"920 700 CURVE SMOOTH",
"920 928 OFFCURVE",
"748 1100 OFFCURVE",
"528 1100 CURVE SMOOTH",
"180 1100 LINE",
"180 1400 LINE",
"120 1400 LINE",
"120 0 LINE"
);
},
{
closed = 1;
nodes = (
"180 1040 LINE",
"528 1040 LINE SMOOTH",
"710 1040 OFFCURVE",
"860 896 OFFCURVE",
"860 700 CURVE SMOOTH",
"860 504 OFFCURVE",
"710 360 OFFCURVE",
"528 360 CURVE SMOOTH",
"180 360 LINE"
);
}
);
width = 980;
},
{
anchors = (
{
name = bottom;
position = "{402, 0}";
},
{
name = top;
position = "{598, 1400}";
}
);
hints = (
{
horizontal = 1;
origin = "{0, 12}";
target = up;
type = BottomGhost;
},
{
horizontal = 1;
origin = "{0, 1}";
target = "{1, 8}";
type = Stem;
},
{
horizontal = 1;
origin = "{1, 0}";
target = "{0, 9}";
type = Stem;
},
{
horizontal = 1;
origin = "{0, 11}";
target = down;
type = TopGhost;
},
{
origin = "{0, 12}";
target = "{0, 0}";
type = Stem;
},
{
origin = "{1, 4}";
target = "{0, 5}";
type = Stem;
}
);
layerId = m003;
paths = (
{
closed = 1;
nodes = (
"82 0 LINE",
"124 300 LINE",
"472 300 LINE SMOOTH",
"686 300 OFFCURVE",
"888 470 OFFCURVE",
"920 700 CURVE SMOOTH",
"952 928 OFFCURVE",
"804 1100 OFFCURVE",
"584 1100 CURVE SMOOTH",
"236 1100 LINE",
"278 1400 LINE",
"218 1400 LINE",
"22 0 LINE"
);
},
{
closed = 1;
nodes = (
"228 1040 LINE",
"576 1040 LINE SMOOTH",
"758 1040 OFFCURVE",
"888 896 OFFCURVE",
"860 700 CURVE SMOOTH",
"832 504 OFFCURVE",
"662 360 OFFCURVE",
"480 360 CURVE SMOOTH",
"132 360 LINE"
);
}
);
width = 980;
},
{
anchors = (
{
name = bottom;
position = "{472, 0}";
},
{
name = top;
position = "{668, 1400}";
}
);
hints = (
{
horizontal = 1;
origin = "{0, 12}";
target = up;
type = BottomGhost;
},
{
horizontal = 1;
origin = "{0, 1}";
target = "{1, 8}";
type = Stem;
},
{
horizontal = 1;
origin = "{1, 0}";
target = "{0, 9}";
type = Stem;
},
{
horizontal = 1;
origin = "{0, 11}";
target = down;
type = TopGhost;
},
{
origin = "{0, 12}";
target = "{0, 0}";
type = Stem;
},
{
origin = "{1, 4}";
target = "{0, 5}";
type = Stem;
}
);
layerId = m004;
paths = (
{
closed = 1;
nodes = (
"322 0 LINE",
"360 272 LINE",
"588 272 LINE SMOOTH",
"810 272 OFFCURVE",
"1027 464 OFFCURVE",
"1060 700 CURVE SMOOTH",
"1093 932 OFFCURVE",
"938 1128 OFFCURVE",
"708 1128 CURVE SMOOTH",
"480 1128 LINE",
"518 1400 LINE",
"218 1400 LINE",
"22 0 LINE"
);
},
{
closed = 1;
nodes = (
"444 872 LINE",
"638 872 LINE SMOOTH",
"718 872 OFFCURVE",
"775 804 OFFCURVE",
"763 722 CURVE SMOOTH",
"752 640 OFFCURVE",
"676 572 OFFCURVE",
"596 572 CURVE SMOOTH",
"402 572 LINE"
);
}
);
width = 1120;
},
{
anchors = (
{
name = bottom;
position = "{523, 0}";
},
{
name = top;
position = "{523, 1400}";
}
);
hints = (
{
horizontal = 1;
origin = "{0, 12}";
target = up;
type = BottomGhost;
},
{
horizontal = 1;
origin = "{0, 1}";
target = "{1, 8}";
type = Stem;
},
{
horizontal = 1;
origin = "{1, 0}";
target = "{0, 9}";
type = Stem;
},
{
horizontal = 1;
origin = "{0, 11}";
target = down;
type = TopGhost;
},
{
origin = "{0, 12}";
target = "{0, 0}";
type = Stem;
},
{
origin = "{1, 4}";
target = "{0, 5}";
type = Stem;
}
);
layerId = "F7B0483F-D4AC-485F-91A2-832BFA93C9DB";
paths = (
{
closed = 1;
nodes = (
"260 0 LINE",
"260 291 LINE",
"568 291 LINE SMOOTH",
"785 291 OFFCURVE",
"967 468 OFFCURVE",
"967 700 CURVE SMOOTH",
"967 929 OFFCURVE",
"791 1109 OFFCURVE",
"568 1109 CURVE SMOOTH",
"260 1109 LINE",
"260 1400 LINE",
"120 1400 LINE",
"120 0 LINE"
);
},
{
closed = 1;
nodes = (
"260 984 LINE",
"557 984 LINE SMOOTH",
"705 984 OFFCURVE",
"827 865 OFFCURVE",
"827 707 CURVE SMOOTH",
"827 549 OFFCURVE",
"705 431 OFFCURVE",
"557 431 CURVE SMOOTH",
"260 431 LINE"
);
}
);
width = 1026.66667;
},
{
anchors = (
{
name = bottom;
position = "{425, 0}";
},
{
name = top;
position = "{621, 1400}";
}
);
hints = (
{
horizontal = 1;
origin = "{0, 12}";
target = up;
type = BottomGhost;
},
{
horizontal = 1;
origin = "{0, 1}";
target = "{1, 8}";
type = Stem;
},
{
horizontal = 1;
origin = "{1, 0}";
target = "{0, 9}";
type = Stem;
},
{
horizontal = 1;
origin = "{0, 11}";
target = down;
type = TopGhost;
},
{
origin = "{0, 12}";
target = "{0, 0}";
type = Stem;
},
{
origin = "{1, 4}";
target = "{0, 5}";
type = Stem;
}
);
layerId = "A034D368-5B08-4DC5-B558-B81FD113CC46";
paths = (
{
closed = 1;
nodes = (
"162 0 LINE",
"203 291 LINE",
"511 291 LINE SMOOTH",
"727 291 OFFCURVE",
"934 468 OFFCURVE",
"967 700 CURVE SMOOTH",
"999 929 OFFCURVE",
"849 1109 OFFCURVE",
"625 1109 CURVE SMOOTH",
"317 1109 LINE",
"358 1400 LINE",
"218 1400 LINE",
"22 0 LINE"
);
},
{
closed = 1;
nodes = (
"300 984 LINE",
"597 984 LINE SMOOTH",
"745 984 OFFCURVE",
"850 865 OFFCURVE",
"828 707 CURVE SMOOTH",
"805 549 OFFCURVE",
"667 431 OFFCURVE",
"519 431 CURVE SMOOTH",
"222 431 LINE"
);
}
);
width = 1026.66667;
}
);
leftKerningGroup = l;
leftMetricsKey = H;
rightKerningGroup = o;
rightMetricsKey = p;
unicode = 00DE;
},
{
glyphname = Q;
lastChange = "2021-10-25 19:38:01 +0000";
layers = (
{
anchors = (
{
name = bottom;
position = "{792, 0}";
},
{
name = top;
position = "{792, 1400}";
}
);
hints = (
{
horizontal = 1;
origin = "{0, 13}";
target = "{1, 17}";
type = Stem;
},
{
horizontal = 1;
origin = "{1, 5}";
target = "{0, 7}";
type = Stem;
},
{
origin = "{0, 10}";
target = "{1, 2}";
type = Stem;
},
{
origin = "{1, 8}";
target = "{0, 4}";
type = Stem;
}
);
layerId = "10BC12B3-5274-42E3-B5BC-F74F362F0DF4";
paths = (
{
closed = 1;
nodes = (
"1504 160 LINE",
"1350 314 LINE",
"1418 428 OFFCURVE",
"1460 562 OFFCURVE",
"1460 708 CURVE SMOOTH",
"1460 1108 OFFCURVE",
"1150 1434 OFFCURVE",
"770 1434 CURVE SMOOTH",
"390 1434 OFFCURVE",
"80 1108 OFFCURVE",
"80 708 CURVE SMOOTH",
"80 306 OFFCURVE",
"390 -18 OFFCURVE",
"770 -18 CURVE SMOOTH",
"908 -18 OFFCURVE",
"1036 24 OFFCURVE",
"1142 96 CURVE",
"1292 -52 LINE"
);
},
{
closed = 1;
nodes = (
"556 282 OFFCURVE",
"380 472 OFFCURVE",
"380 708 CURVE SMOOTH",
"380 942 OFFCURVE",
"556 1134 OFFCURVE",
"770 1134 CURVE SMOOTH",
"984 1134 OFFCURVE",
"1160 942 OFFCURVE",
"1160 708 CURVE SMOOTH",
"1160 648 OFFCURVE",
"1148 590 OFFCURVE",
"1126 538 CURVE",
"1052 612 LINE",
"840 400 LINE",
"924 316 LINE",
"876 294 OFFCURVE",
"824 282 OFFCURVE",
"770 282 CURVE SMOOTH"
);
}
);
width = 1584;
},
{
anchors = (
{
name = bottom;
position = "{769, 0}";
},
{
name = top;
position = "{769, 1400}";
}
);
hints = (
{
horizontal = 1;
origin = "{0, 17}";
target = up;
type = BottomGhost;
},
{
horizontal = 1;
origin = "{0, 7}";
target = "{1, 5}";
type = Stem;
},
{
horizontal = 1;
origin = "{0, 13}";
target = "{1, 17}";
type = Stem;
},
{
origin = "{0, 10}";
target = "{1, 2}";
type = Stem;
},
{
origin = "{1, 8}";
target = "{0, 4}";
type = Stem;
}
);
layerId = "9AF1F7D9-E035-453E-B2A8-46DE370997D0";
paths = (
{
closed = 1;
nodes = (
"1454 32 LINE",
"1276 208 LINE",
"1390 338 OFFCURVE",
"1458 510 OFFCURVE",
"1458 700 CURVE SMOOTH",
"1458 1100 OFFCURVE",
"1150 1426 OFFCURVE",
"770 1426 CURVE SMOOTH",
"388 1426 OFFCURVE",
"80 1100 OFFCURVE",
"80 700 CURVE SMOOTH",
"80 300 OFFCURVE",
"388 -26 OFFCURVE",
"770 -26 CURVE SMOOTH",
"948 -26 OFFCURVE",
"1112 46 OFFCURVE",
"1236 166 CURVE",
"1412 -10 LINE"
);
},
{
closed = 1;
nodes = (
"424 34 OFFCURVE",
"140 334 OFFCURVE",
"140 700 CURVE SMOOTH",
"140 1058 OFFCURVE",
"418 1366 OFFCURVE",
"770 1366 CURVE SMOOTH",
"1114 1366 OFFCURVE",
"1398 1066 OFFCURVE",
"1398 700 CURVE SMOOTH",
"1398 536 OFFCURVE",
"1340 376 OFFCURVE",
"1234 252 CURVE",
"966 520 LINE",
"924 476 LINE",
"1192 208 LINE",
"1082 98 OFFCURVE",
"924 34 OFFCURVE",
"770 34 CURVE SMOOTH"
);
}
);
width = 1538;
},
{
anchors = (
{
name = bottom;
position = "{671, 0}";
},
{
name = top;
position = "{867, 1400}";
}
);
hints = (
{
horizontal = 1;
origin = "{0, 17}";
target = up;
type = BottomGhost;
},
{
horizontal = 1;
origin = "{0, 7}";
target = "{1, 5}";
type = Stem;
},
{
horizontal = 1;
origin = "{0, 13}";
target = "{1, 17}";
type = Stem;
},
{
origin = "{0, 10}";
target = "{1, 2}";
type = Stem;
},
{
origin = "{1, 8}";
target = "{0, 4}";
type = Stem;
}
);
layerId = m003;
paths = (
{
closed = 1;
nodes = (
"1360 32 LINE",
"1207 208 LINE",
"1339 338 OFFCURVE",
"1431 510 OFFCURVE",
"1458 700 CURVE SMOOTH",
"1514 1100 OFFCURVE",
"1252 1426 OFFCURVE",
"872 1426 CURVE SMOOTH",
"490 1426 OFFCURVE",
"136 1100 OFFCURVE",
"80 700 CURVE SMOOTH",
"24 300 OFFCURVE",
"286 -26 OFFCURVE",
"668 -26 CURVE SMOOTH",
"846 -26 OFFCURVE",
"1020 46 OFFCURVE",
"1161 166 CURVE",
"1312 -10 LINE"
);
},
{
closed = 1;
nodes = (
"330 34 OFFCURVE",
"89 334 OFFCURVE",
"140 700 CURVE SMOOTH",
"190 1058 OFFCURVE",
"512 1366 OFFCURVE",
"864 1366 CURVE SMOOTH",
"1208 1366 OFFCURVE",
"1449 1066 OFFCURVE",
"1398 700 CURVE SMOOTH",
"1375 536 OFFCURVE",
"1294 376 OFFCURVE",
"1171 252 CURVE",
"941 520 LINE",
"893 476 LINE",
"1123 208 LINE",
"997 98 OFFCURVE",
"830 34 OFFCURVE",
"676 34 CURVE SMOOTH"
);
}
);
width = 1538;
},
{
anchors = (
{
name = bottom;
position = "{694, 0}";
},
{
name = top;
position = "{890, 1400}";
}
);
hints = (
{
horizontal = 1;
origin = "{0, 13}";
target = "{1, 17}";
type = Stem;
},
{
horizontal = 1;
origin = "{1, 5}";
target = "{0, 7}";
type = Stem;
},
{
origin = "{0, 10}";
target = "{1, 2}";
type = Stem;
},
{
origin = "{1, 8}";
target = "{0, 4}";
type = Stem;
}
);
layerId = m004;
paths = (
{
closed = 1;
nodes = (
"1428 160 LINE",
"1296 314 LINE",
"1380 428 OFFCURVE",
"1441 562 OFFCURVE",
"1461 708 CURVE SMOOTH",
"1517 1108 OFFCURVE",
"1253 1434 OFFCURVE",
"873 1434 CURVE SMOOTH",
"493 1434 OFFCURVE",
"137 1108 OFFCURVE",
"81 708 CURVE SMOOTH",
"25 306 OFFCURVE",
"289 -18 OFFCURVE",
"669 -18 CURVE SMOOTH",
"807 -18 OFFCURVE",
"941 24 OFFCURVE",
"1057 96 CURVE",
"1186 -52 LINE"
);
},
{
closed = 1;
nodes = (
"497 282 OFFCURVE",
"348 472 OFFCURVE",
"381 708 CURVE SMOOTH",
"414 942 OFFCURVE",
"617 1134 OFFCURVE",
"831 1134 CURVE SMOOTH",
"1045 1134 OFFCURVE",
"1194 942 OFFCURVE",
"1161 708 CURVE SMOOTH",
"1153 648 OFFCURVE",
"1133 590 OFFCURVE",
"1103 538 CURVE",
"1040 612 LINE",
"798 400 LINE",
"870 316 LINE",
"819 294 OFFCURVE",
"765 282 OFFCURVE",
"711 282 CURVE SMOOTH"
);
}
);
width = 1584;
},
{
anchors = (
{
name = bottom;
position = "{777, 0}";
},
{
name = top;
position = "{777, 1400}";
}
);
hints = (
{
horizontal = 1;
origin = "{0, 17}";
target = up;
type = BottomGhost;
},
{
horizontal = 1;
origin = "{0, 7}";
target = "{1, 5}";
type = Stem;
},
{
horizontal = 1;
origin = "{0, 13}";
target = "{1, 17}";
type = Stem;
},
{
origin = "{0, 10}";
target = "{1, 2}";
type = Stem;
},
{
origin = "{1, 8}";
target = "{0, 4}";
type = Stem;
}
);
layerId = "F7B0483F-D4AC-485F-91A2-832BFA93C9DB";
paths = (
{
closed = 1;
nodes = (
"1471 75 LINE",
"1301 243 LINE",
"1399 368 OFFCURVE",
"1459 527 OFFCURVE",
"1459 703 CURVE SMOOTH",
"1459 1103 OFFCURVE",
"1150 1429 OFFCURVE",
"770 1429 CURVE SMOOTH",
"389 1429 OFFCURVE",
"80 1103 OFFCURVE",
"80 703 CURVE SMOOTH",
"80 302 OFFCURVE",
"389 -23 OFFCURVE",
"770 -23 CURVE SMOOTH",
"935 -23 OFFCURVE",
"1087 39 OFFCURVE",
"1205 143 CURVE",
"1372 -24 LINE"
);
},
{
closed = 1;
nodes = (
"468 117 OFFCURVE",
"220 380 OFFCURVE",
"220 703 CURVE SMOOTH",
"220 1019 OFFCURVE",
"464 1289 OFFCURVE",
"770 1289 CURVE SMOOTH",
"1071 1289 OFFCURVE",
"1319 1025 OFFCURVE",
"1319 703 CURVE SMOOTH",
"1319 573 OFFCURVE",
"1276 447 OFFCURVE",
"1198 347 CURVE",
"995 551 LINE",
"896 451 LINE",
"1103 244 LINE",
"1013 163 OFFCURVE",
"891 117 OFFCURVE",
"770 117 CURVE SMOOTH"
);
}
);
width = 1553.33333;
},
{
anchors = (
{
name = bottom;
position = "{679, 0}";
},
{
name = top;
position = "{875, 1400}";
}
);
hints = (
{
horizontal = 1;
origin = "{0, 17}";
target = up;
type = BottomGhost;
},
{
horizontal = 1;
origin = "{0, 7}";
target = "{1, 5}";
type = Stem;
},
{
horizontal = 1;
origin = "{0, 13}";
target = "{1, 17}";
type = Stem;
},
{
origin = "{0, 10}";
target = "{1, 2}";
type = Stem;
},
{
origin = "{1, 8}";
target = "{0, 4}";
type = Stem;
}
);
layerId = "A034D368-5B08-4DC5-B558-B81FD113CC46";
paths = (
{
closed = 1;
nodes = (
"1383 75 LINE",
"1237 243 LINE",
"1353 368 OFFCURVE",
"1434 527 OFFCURVE",
"1459 703 CURVE SMOOTH",
"1515 1103 OFFCURVE",
"1252 1429 OFFCURVE",
"872 1429 CURVE SMOOTH",
"491 1429 OFFCURVE",
"136 1103 OFFCURVE",
"80 703 CURVE SMOOTH",
"24 302 OFFCURVE",
"287 -23 OFFCURVE",
"668 -23 CURVE SMOOTH",
"833 -23 OFFCURVE",
"994 39 OFFCURVE",
"1126 143 CURVE",
"1270 -24 LINE"
);
},
{
closed = 1;
nodes = (
"386 117 OFFCURVE",
"175 380 OFFCURVE",
"220 703 CURVE SMOOTH",
"265 1019 OFFCURVE",
"547 1289 OFFCURVE",
"853 1289 CURVE SMOOTH",
"1154 1289 OFFCURVE",
"1364 1025 OFFCURVE",
"1319 703 CURVE SMOOTH",
"1301 573 OFFCURVE",
"1240 447 OFFCURVE",
"1148 347 CURVE",
"974 551 LINE",
"861 451 LINE",
"1039 244 LINE",
"938 163 OFFCURVE",
"808 117 OFFCURVE",
"688 117 CURVE SMOOTH"
);
}
);
width = 1553.33333;
}
);
leftKerningGroup = O;
rightKerningGroup = O;
unicode = 0051;
},
{
glyphname = R;
lastChange = "2021-10-25 19:38:01 +0000";
layers = (
{
anchors = (
{
name = bottom;
position = "{633, 0}";
},
{
name = top;
position = "{524, 1400}";
}
);
hints = (
{
horizontal = 1;
origin = "{0, 13}";
target = up;
type = BottomGhost;
},
{
horizontal = 1;
origin = "{0, 1}";
target = "{1, 8}";
type = Stem;
},
{
horizontal = 1;
origin = "{0, 12}";
target = "{1, 0}";
type = Stem;
},
{
origin = "{0, 13}";
target = "{0, 0}";
type = Stem;
},
{
origin = "{1, 4}";
target = "{0, 8}";
type = Stem;
}
);
layerId = "10BC12B3-5274-42E3-B5BC-F74F362F0DF4";
paths = (
{
closed = 1;
nodes = (
"420 0 LINE",
"420 544 LINE",
"524 544 LINE",
"840 0 LINE",
"1186 0 LINE",
"854 572 LINE",
"1004 644 OFFCURVE",
"1100 792 OFFCURVE",
"1100 972 CURVE SMOOTH",
"1100 1206 OFFCURVE",
"920 1400 OFFCURVE",
"690 1400 CURVE SMOOTH",
"120 1400 LINE",
"120 0 LINE"
);
},
{
closed = 1;
nodes = (
"420 1144 LINE",
"654 1144 LINE SMOOTH",
"734 1144 OFFCURVE",
"800 1076 OFFCURVE",
"800 994 CURVE SMOOTH",
"800 912 OFFCURVE",
"734 844 OFFCURVE",
"654 844 CURVE SMOOTH",
"420 844 LINE"
);
}
);
width = 1266;
},
{
anchors = (
{
name = bottom;
position = "{505, 0}";
},
{
name = top;
position = "{394, 1400}";
}
);
hints = (
{
horizontal = 1;
origin = "{0, 13}";
target = up;
type = BottomGhost;
},
{
horizontal = 1;
origin = "{0, 1}";
target = "{1, 8}";
type = Stem;
},
{
horizontal = 1;
origin = "{0, 12}";
target = "{1, 0}";
type = Stem;
},
{
horizontal = 1;
origin = "{0, 5}";
target = "{1, 8}";
type = Stem;
},
{
origin = "{0, 13}";
target = "{0, 0}";
type = Stem;
},
{
origin = "{1, 4}";
target = "{0, 8}";
type = Stem;
}
);
layerId = "9AF1F7D9-E035-453E-B2A8-46DE370997D0";
paths = (
{
closed = 1;
nodes = (
"180 0 LINE",
"180 600 LINE",
"512 600 LINE",
"860 0 LINE",
"930 0 LINE",
"582 602 LINE",
"780 618 OFFCURVE",
"940 782 OFFCURVE",
"940 1000 CURVE SMOOTH",
"940 1228 OFFCURVE",
"768 1400 OFFCURVE",
"548 1400 CURVE SMOOTH",
"120 1400 LINE",
"120 0 LINE"
);
},
{
closed = 1;
nodes = (
"180 1340 LINE",
"548 1340 LINE SMOOTH",
"730 1340 OFFCURVE",
"880 1196 OFFCURVE",
"880 1000 CURVE SMOOTH",
"880 804 OFFCURVE",
"730 660 OFFCURVE",
"548 660 CURVE SMOOTH",
"180 660 LINE"
);
}
);
width = 1040;
},
{
anchors = (
{
name = bottom;
position = "{407, 0}";
},
{
name = top;
position = "{492, 1400}";
}
);
hints = (
{
horizontal = 1;
origin = "{0, 13}";
target = up;
type = BottomGhost;
},
{
horizontal = 1;
origin = "{0, 1}";
target = "{1, 8}";
type = Stem;
},
{
horizontal = 1;
origin = "{0, 12}";
target = "{1, 0}";
type = Stem;
},
{
horizontal = 1;
origin = "{0, 5}";
target = "{1, 8}";
type = Stem;
},
{
origin = "{0, 13}";
target = "{0, 0}";
type = Stem;
},
{
origin = "{1, 4}";
target = "{0, 8}";
type = Stem;
}
);
layerId = m003;
paths = (
{
closed = 1;
nodes = (
"82 0 LINE",
"166 600 LINE",
"498 600 LINE",
"762 0 LINE",
"832 0 LINE",
"568 602 LINE",
"768 618 OFFCURVE",
"952 782 OFFCURVE",
"982 1000 CURVE SMOOTH",
"1014 1228 OFFCURVE",
"866 1400 OFFCURVE",
"646 1400 CURVE SMOOTH",
"218 1400 LINE",
"22 0 LINE"
);
},
{
closed = 1;
nodes = (
"270 1340 LINE",
"638 1340 LINE SMOOTH",
"820 1340 OFFCURVE",
"950 1196 OFFCURVE",
"922 1000 CURVE SMOOTH",
"895 804 OFFCURVE",
"724 660 OFFCURVE",
"542 660 CURVE SMOOTH",
"174 660 LINE"
);
}
);
width = 1040;
},
{
anchors = (
{
name = bottom;
position = "{535, 0}";
},
{
name = top;
position = "{622, 1400}";
}
);
hints = (
{
horizontal = 1;
origin = "{0, 13}";
target = up;
type = BottomGhost;
},
{
horizontal = 1;
origin = "{0, 1}";
target = "{1, 8}";
type = Stem;
},
{
horizontal = 1;
origin = "{0, 12}";
target = "{1, 0}";
type = Stem;
},
{
origin = "{0, 13}";
target = "{0, 0}";
type = Stem;
},
{
origin = "{1, 4}";
target = "{0, 8}";
type = Stem;
}
);
layerId = m004;
paths = (
{
closed = 1;
nodes = (
"322 0 LINE",
"398 544 LINE",
"502 544 LINE",
"742 0 LINE",
"1088 0 LINE",
"836 572 LINE",
"996 644 OFFCURVE",
"1113 792 OFFCURVE",
"1138 972 CURVE SMOOTH",
"1171 1206 OFFCURVE",
"1018 1400 OFFCURVE",
"788 1400 CURVE SMOOTH",
"218 1400 LINE",
"22 0 LINE"
);
},
{
closed = 1;
nodes = (
"482 1144 LINE",
"716 1144 LINE SMOOTH",
"796 1144 OFFCURVE",
"853 1076 OFFCURVE",
"841 994 CURVE SMOOTH",
"830 912 OFFCURVE",
"754 844 OFFCURVE",
"674 844 CURVE SMOOTH",
"440 844 LINE"
);
}
);
width = 1266;
},
{
anchors = (
{
name = bottom;
position = "{548, 0}";
},
{
name = top;
position = "{437, 1400}";
}
);
hints = (
{
horizontal = 1;
origin = "{0, 13}";
target = up;
type = BottomGhost;
},
{
horizontal = 1;
origin = "{0, 1}";
target = "{1, 8}";
type = Stem;
},
{
horizontal = 1;
origin = "{0, 12}";
target = "{1, 0}";
type = Stem;
},
{
horizontal = 1;
origin = "{0, 5}";
target = "{1, 8}";
type = Stem;
},
{
origin = "{0, 13}";
target = "{0, 0}";
type = Stem;
},
{
origin = "{1, 4}";
target = "{0, 8}";
type = Stem;
}
);
layerId = "F7B0483F-D4AC-485F-91A2-832BFA93C9DB";
paths = (
{
closed = 1;
nodes = (
"260 0 LINE",
"260 581 LINE",
"516 581 LINE",
"853 0 LINE",
"1015 0 LINE",
"673 592 LINE",
"855 627 OFFCURVE",
"993 785 OFFCURVE",
"993 991 CURVE SMOOTH",
"993 1221 OFFCURVE",
"819 1400 OFFCURVE",
"595 1400 CURVE SMOOTH",
"120 1400 LINE",
"120 0 LINE"
);
},
{
closed = 1;
nodes = (
"260 1275 LINE",
"583 1275 LINE SMOOTH",
"731 1275 OFFCURVE",
"853 1156 OFFCURVE",
"853 998 CURVE SMOOTH",
"853 840 OFFCURVE",
"731 721 OFFCURVE",
"583 721 CURVE SMOOTH",
"260 721 LINE"
);
}
);
width = 1115.33333;
},
{
anchors = (
{
name = bottom;
position = "{450, 0}";
},
{
name = top;
position = "{535, 1400}";
}
);
hints = (
{
horizontal = 1;
origin = "{0, 13}";
target = up;
type = BottomGhost;
},
{
horizontal = 1;
origin = "{0, 1}";
target = "{1, 8}";
type = Stem;
},
{
horizontal = 1;
origin = "{0, 12}";
target = "{1, 0}";
type = Stem;
},
{
horizontal = 1;
origin = "{0, 5}";
target = "{1, 8}";
type = Stem;
},
{
origin = "{0, 13}";
target = "{0, 0}";
type = Stem;
},
{
origin = "{1, 4}";
target = "{0, 8}";
type = Stem;
}
);
layerId = "A034D368-5B08-4DC5-B558-B81FD113CC46";
paths = (
{
closed = 1;
nodes = (
"162 0 LINE",
"243 581 LINE",
"499 581 LINE",
"755 0 LINE",
"917 0 LINE",
"657 592 LINE",
"844 627 OFFCURVE",
"1006 785 OFFCURVE",
"1034 991 CURVE SMOOTH",
"1066 1221 OFFCURVE",
"917 1400 OFFCURVE",
"693 1400 CURVE SMOOTH",
"218 1400 LINE",
"22 0 LINE"
);
},
{
closed = 1;
nodes = (
"341 1275 LINE",
"664 1275 LINE SMOOTH",
"812 1275 OFFCURVE",
"918 1156 OFFCURVE",
"895 998 CURVE SMOOTH",
"873 840 OFFCURVE",
"734 721 OFFCURVE",
"586 721 CURVE SMOOTH",
"263 721 LINE"
);
}
);
width = 1115.33333;
}
);
leftKerningGroup = H;
leftMetricsKey = H;
rightKerningGroup = R;
unicode = 0052;
},
{
glyphname = S;
lastChange = "2021-10-25 19:38:01 +0000";
layers = (
{
anchors = (
{
name = bottom;
position = "{715, 0}";
},
{
name = top;
position = "{632, 1400}";
}
);
hints = (
{
horizontal = 1;
origin = "{0, 37}";
target = "{0, 30}";
type = Stem;
},
{
horizontal = 1;
origin = "{0, 18}";
target = "{0, 11}";
type = Stem;
},
{
origin = "{0, 34}";
target = "{0, 8}";
type = Stem;
},
{
origin = "{0, 27}";
target = "{0, 2}";
type = Stem;
}
);
layerId = "10BC12B3-5274-42E3-B5BC-F74F362F0DF4";
paths = (
{
closed = 1;
nodes = (
"918 -26 OFFCURVE",
"1164 150 OFFCURVE",
"1164 412 CURVE SMOOTH",
"1164 670 OFFCURVE",
"920 808 OFFCURVE",
"632 850 CURVE SMOOTH",
"506 868 OFFCURVE",
"400 880 OFFCURVE",
"400 988 CURVE SMOOTH",
"400 1066 OFFCURVE",
"516 1126 OFFCURVE",
"632 1124 CURVE SMOOTH",
"762 1124 OFFCURVE",
"862 1066 OFFCURVE",
"882 1008 CURVE",
"1164 1110 LINE",
"1094 1308 OFFCURVE",
"868 1426 OFFCURVE",
"632 1426 CURVE SMOOTH",
"350 1426 OFFCURVE",
"100 1250 OFFCURVE",
"100 988 CURVE SMOOTH",
"100 714 OFFCURVE",
"328 594 OFFCURVE",
"632 550 CURVE SMOOTH",
"744 534 OFFCURVE",
"864 496 OFFCURVE",
"864 412 CURVE SMOOTH",
"864 330 OFFCURVE",
"752 274 OFFCURVE",
"632 274 CURVE SMOOTH",
"502 274 OFFCURVE",
"402 334 OFFCURVE",
"382 392 CURVE",
"100 288 LINE",
"172 92 OFFCURVE",
"396 -26 OFFCURVE",
"632 -26 CURVE SMOOTH"
);
}
);
width = 1264;
},
{
anchors = (
{
name = bottom;
position = "{663, 0}";
},
{
name = top;
position = "{599, 1400}";
}
);
hints = (
{
horizontal = 1;
origin = "{0, 37}";
target = "{0, 30}";
type = Stem;
},
{
horizontal = 1;
origin = "{0, 18}";
target = "{0, 11}";
type = Stem;
},
{
origin = "{0, 21}";
target = "{0, 8}";
type = Stem;
},
{
origin = "{0, 27}";
target = "{0, 2}";
type = Stem;
}
);
layerId = "9AF1F7D9-E035-453E-B2A8-46DE370997D0";
paths = (
{
closed = 1;
nodes = (
"858 -26 OFFCURVE",
"1088 120 OFFCURVE",
"1088 350 CURVE SMOOTH",
"1088 576 OFFCURVE",
"856 682 OFFCURVE",
"598 730 CURVE SMOOTH",
"352 776 OFFCURVE",
"170 826 OFFCURVE",
"170 1042 CURVE SMOOTH",
"170 1232 OFFCURVE",
"370 1358 OFFCURVE",
"598 1358 CURVE SMOOTH",
"780 1358 OFFCURVE",
"984 1276 OFFCURVE",
"1040 1118 CURVE",
"1098 1138 LINE",
"1028 1320 OFFCURVE",
"806 1418 OFFCURVE",
"598 1418 CURVE SMOOTH",
"340 1418 OFFCURVE",
"110 1272 OFFCURVE",
"110 1042 CURVE SMOOTH",
"110 790 OFFCURVE",
"320 718 OFFCURVE",
"598 666 CURVE SMOOTH",
"814 626 OFFCURVE",
"1028 546 OFFCURVE",
"1028 350 CURVE SMOOTH",
"1028 158 OFFCURVE",
"824 34 OFFCURVE",
"598 34 CURVE SMOOTH",
"416 34 OFFCURVE",
"212 116 OFFCURVE",
"156 274 CURVE",
"100 252 LINE",
"160 78 OFFCURVE",
"380 -26 OFFCURVE",
"598 -26 CURVE SMOOTH"
);
}
);
width = 1198;
},
{
anchors = (
{
name = bottom;
position = "{565, 0}";
},
{
name = top;
position = "{697, 1400}";
}
);
hints = (
{
horizontal = 1;
origin = "{0, 37}";
target = "{0, 30}";
type = Stem;
},
{
horizontal = 1;
origin = "{0, 18}";
target = "{0, 11}";
type = Stem;
},
{
origin = "{0, 21}";
target = "{0, 8}";
type = Stem;
},
{
origin = "{0, 27}";
target = "{0, 2}";
type = Stem;
}
);
layerId = m003;
paths = (
{
closed = 1;
nodes = (
"756 -26 OFFCURVE",
"1006 120 OFFCURVE",
"1039 350 CURVE SMOOTH",
"1071 576 OFFCURVE",
"853 682 OFFCURVE",
"602 730 CURVE SMOOTH",
"363 776 OFFCURVE",
"188 826 OFFCURVE",
"218 1042 CURVE SMOOTH",
"245 1232 OFFCURVE",
"462 1358 OFFCURVE",
"690 1358 CURVE SMOOTH",
"872 1358 OFFCURVE",
"1065 1276 OFFCURVE",
"1099 1118 CURVE",
"1160 1138 LINE",
"1115 1320 OFFCURVE",
"907 1418 OFFCURVE",
"699 1418 CURVE SMOOTH",
"441 1418 OFFCURVE",
"190 1272 OFFCURVE",
"158 1042 CURVE SMOOTH",
"123 790 OFFCURVE",
"323 718 OFFCURVE",
"593 666 CURVE SMOOTH",
"804 626 OFFCURVE",
"1006 546 OFFCURVE",
"979 350 CURVE SMOOTH",
"952 158 OFFCURVE",
"730 34 OFFCURVE",
"504 34 CURVE SMOOTH",
"322 34 OFFCURVE",
"130 116 OFFCURVE",
"96 274 CURVE",
"37 252 LINE",
"73 78 OFFCURVE",
"278 -26 OFFCURVE",
"496 -26 CURVE SMOOTH"
);
}
);
width = 1198;
},
{
anchors = (
{
name = bottom;
position = "{617, 0}";
},
{
name = top;
position = "{730, 1400}";
}
);
hints = (
{
horizontal = 1;
origin = "{0, 37}";
target = "{0, 30}";
type = Stem;
},
{
horizontal = 1;
origin = "{0, 18}";
target = "{0, 11}";
type = Stem;
},
{
origin = "{0, 34}";
target = "{0, 8}";
type = Stem;
},
{
origin = "{0, 27}";
target = "{0, 2}";
type = Stem;
}
);
layerId = m004;
paths = (
{
closed = 1;
nodes = (
"816 -26 OFFCURVE",
"1087 150 OFFCURVE",
"1124 412 CURVE SMOOTH",
"1160 670 OFFCURVE",
"935 808 OFFCURVE",
"653 850 CURVE SMOOTH",
"530 868 OFFCURVE",
"425 880 OFFCURVE",
"440 988 CURVE SMOOTH",
"451 1066 OFFCURVE",
"576 1126 OFFCURVE",
"692 1124 CURVE SMOOTH",
"822 1124 OFFCURVE",
"913 1066 OFFCURVE",
"925 1008 CURVE",
"1222 1110 LINE",
"1179 1308 OFFCURVE",
"970 1426 OFFCURVE",
"734 1426 CURVE SMOOTH",
"452 1426 OFFCURVE",
"177 1250 OFFCURVE",
"140 988 CURVE SMOOTH",
"102 714 OFFCURVE",
"313 594 OFFCURVE",
"611 550 CURVE SMOOTH",
"721 534 OFFCURVE",
"835 496 OFFCURVE",
"824 412 CURVE SMOOTH",
"812 330 OFFCURVE",
"692 274 OFFCURVE",
"572 274 CURVE SMOOTH",
"442 274 OFFCURVE",
"351 334 OFFCURVE",
"339 392 CURVE",
"42 288 LINE",
"87 92 OFFCURVE",
"294 -26 OFFCURVE",
"530 -26 CURVE SMOOTH"
);
}
);
width = 1264;
},
{
anchors = (
{
name = bottom;
position = "{680, 0}";
},
{
name = top;
position = "{610, 1400}";
}
);
hints = (
{
horizontal = 1;
origin = "{0, 37}";
target = "{0, 30}";
type = Stem;
},
{
horizontal = 1;
origin = "{0, 18}";
target = "{0, 11}";
type = Stem;
},
{
origin = "{0, 21}";
target = "{0, 8}";
type = Stem;
},
{
origin = "{0, 27}";
target = "{0, 2}";
type = Stem;
}
);
layerId = "F7B0483F-D4AC-485F-91A2-832BFA93C9DB";
paths = (
{
closed = 1;
nodes = (
"878 -26 OFFCURVE",
"1113 130 OFFCURVE",
"1113 371 CURVE SMOOTH",
"1113 607 OFFCURVE",
"877 724 OFFCURVE",
"609 770 CURVE SMOOTH",
"403 807 OFFCURVE",
"247 844 OFFCURVE",
"247 1024 CURVE SMOOTH",
"247 1177 OFFCURVE",
"419 1281 OFFCURVE",
"609 1280 CURVE SMOOTH",
"774 1280 OFFCURVE",
"943 1206 OFFCURVE",
"987 1081 CURVE",
"1120 1129 LINE",
"1050 1316 OFFCURVE",
"827 1421 OFFCURVE",
"609 1421 CURVE SMOOTH",
"343 1421 OFFCURVE",
"107 1265 OFFCURVE",
"107 1024 CURVE SMOOTH",
"107 765 OFFCURVE",
"323 677 OFFCURVE",
"609 627 CURVE SMOOTH",
"791 595 OFFCURVE",
"973 529 OFFCURVE",
"973 371 CURVE SMOOTH",
"973 215 OFFCURVE",
"800 114 OFFCURVE",
"609 114 CURVE SMOOTH",
"445 114 OFFCURVE",
"275 189 OFFCURVE",
"231 313 CURVE",
"100 264 LINE",
"164 83 OFFCURVE",
"385 -26 OFFCURVE",
"609 -26 CURVE SMOOTH"
);
}
);
width = 1220;
},
{
anchors = (
{
name = bottom;
position = "{582, 0}";
},
{
name = top;
position = "{708, 1400}";
}
);
hints = (
{
horizontal = 1;
origin = "{0, 37}";
target = "{0, 30}";
type = Stem;
},
{
horizontal = 1;
origin = "{0, 18}";
target = "{0, 11}";
type = Stem;
},
{
origin = "{0, 21}";
target = "{0, 8}";
type = Stem;
},
{
origin = "{0, 27}";
target = "{0, 2}";
type = Stem;
}
);
layerId = "A034D368-5B08-4DC5-B558-B81FD113CC46";
paths = (
{
closed = 1;
nodes = (
"776 -26 OFFCURVE",
"1033 130 OFFCURVE",
"1067 371 CURVE SMOOTH",
"1101 607 OFFCURVE",
"880 724 OFFCURVE",
"619 770 CURVE SMOOTH",
"419 807 OFFCURVE",
"267 844 OFFCURVE",
"292 1024 CURVE SMOOTH",
"314 1177 OFFCURVE",
"500 1281 OFFCURVE",
"691 1280 CURVE SMOOTH",
"855 1280 OFFCURVE",
"1014 1206 OFFCURVE",
"1041 1081 CURVE",
"1181 1129 LINE",
"1136 1316 OFFCURVE",
"928 1421 OFFCURVE",
"711 1421 CURVE SMOOTH",
"445 1421 OFFCURVE",
"186 1265 OFFCURVE",
"152 1024 CURVE SMOOTH",
"116 765 OFFCURVE",
"320 677 OFFCURVE",
"599 627 CURVE SMOOTH",
"776 595 OFFCURVE",
"949 529 OFFCURVE",
"927 371 CURVE SMOOTH",
"905 215 OFFCURVE",
"717 114 OFFCURVE",
"527 114 CURVE SMOOTH",
"362 114 OFFCURVE",
"204 189 OFFCURVE",
"177 313 CURVE",
"39 264 LINE",
"78 83 OFFCURVE",
"283 -26 OFFCURVE",
"507 -26 CURVE SMOOTH"
);
}
);
width = 1220;
}
);
leftKerningGroup = S;
rightKerningGroup = S;
unicode = 0053;
},
{
glyphname = Germandbls;
lastChange = "2021-10-25 19:38:01 +0000";
layers = (
{
anchors = (
{
name = bottom;
position = "{623, 0}";
},
{
name = top;
position = "{623, 1400}";
}
);
hints = (
{
horizontal = 1;
origin = "{0, 37}";
target = "{0, 19}";
type = Stem;
},
{
horizontal = 1;
place = "{594, 144}";
type = Stem;
},
{
horizontal = 1;
origin = "{0, 33}";
target = "{0, 4}";
type = Stem;
},
{
origin = "{0, 37}";
target = "{0, 0}";
type = Stem;
},
{
origin = "{0, 7}";
target = "{0, 30}";
type = Stem;
},
{
origin = "{0, 15}";
target = "{0, 24}";
type = Stem;
}
);
layerId = "10BC12B3-5274-42E3-B5BC-F74F362F0DF4";
paths = (
{
closed = 1;
nodes = (
"420 0 LINE",
"420 950 LINE SMOOTH",
"420 1058 OFFCURVE",
"508 1144 OFFCURVE",
"594 1144 CURVE SMOOTH",
"680 1144 OFFCURVE",
"758 1148 OFFCURVE",
"758 1074 CURVE SMOOTH",
"758 1040 OFFCURVE",
"590 858 OFFCURVE",
"590 704 CURVE SMOOTH",
"590 594 LINE",
"672 594 LINE SMOOTH",
"776 594 OFFCURVE",
"920 556 OFFCURVE",
"920 424 CURVE SMOOTH",
"920 292 OFFCURVE",
"776 254 OFFCURVE",
"672 254 CURVE SMOOTH",
"590 254 LINE",
"650 0 LINE",
"704 0 LINE SMOOTH",
"936 0 OFFCURVE",
"1186 150 OFFCURVE",
"1186 422 CURVE SMOOTH",
"1186 586 OFFCURVE",
"1010 770 OFFCURVE",
"832 734 CURVE",
"974 906 OFFCURVE",
"1058 972 OFFCURVE",
"1058 1068 CURVE SMOOTH",
"1058 1248 OFFCURVE",
"858 1400 OFFCURVE",
"650 1400 CURVE SMOOTH",
"358 1400 OFFCURVE",
"120 1162 OFFCURVE",
"120 870 CURVE SMOOTH",
"120 0 LINE"
);
}
);
width = 1246;
},
{
anchors = (
{
name = bottom;
position = "{535, 0}";
},
{
name = top;
position = "{535, 1400}";
}
);
hints = (
{
horizontal = 1;
origin = "{0, 37}";
target = "{0, 19}";
type = Stem;
},
{
horizontal = 1;
origin = "{0, 11}";
target = "{0, 27}";
type = Stem;
},
{
horizontal = 1;
origin = "{0, 4}";
target = "{0, 33}";
type = Stem;
},
{
origin = "{0, 37}";
target = "{0, 0}";
type = Stem;
},
{
origin = "{0, 7}";
target = "{0, 30}";
type = Stem;
},
{
origin = "{0, 15}";
target = "{0, 24}";
type = Stem;
}
);
layerId = "9AF1F7D9-E035-453E-B2A8-46DE370997D0";
paths = (
{
closed = 1;
nodes = (
"180 0 LINE",
"180 994 LINE SMOOTH",
"180 1184 OFFCURVE",
"332 1338 OFFCURVE",
"522 1338 CURVE SMOOTH",
"672 1338 OFFCURVE",
"804 1282 OFFCURVE",
"806 1152 CURVE SMOOTH",
"808 1032 OFFCURVE",
"510 754 OFFCURVE",
"518 694 CURVE SMOOTH",
"522 662 LINE",
"588 662 LINE SMOOTH",
"754 662 OFFCURVE",
"950 568 OFFCURVE",
"950 364 CURVE SMOOTH",
"950 156 OFFCURVE",
"756 60 OFFCURVE",
"590 60 CURVE SMOOTH",
"496 60 LINE",
"516 0 LINE",
"590 0 LINE SMOOTH",
"788 0 OFFCURVE",
"1010 122 OFFCURVE",
"1010 362 CURVE SMOOTH",
"1010 588 OFFCURVE",
"802 740 OFFCURVE",
"602 720 CURVE",
"800 992 OFFCURVE",
"876 1070 OFFCURVE",
"876 1152 CURVE SMOOTH",
"876 1320 OFFCURVE",
"716 1398 OFFCURVE",
"526 1398 CURVE SMOOTH",
"302 1398 OFFCURVE",
"120 1216 OFFCURVE",
"120 992 CURVE SMOOTH",
"120 0 LINE"
);
}
);
width = 1070;
},
{
anchors = (
{
name = bottom;
position = "{437, 0}";
},
{
name = top;
position = "{633, 1400}";
}
);
hints = (
{
horizontal = 1;
origin = "{0, 37}";
target = "{0, 19}";
type = Stem;
},
{
horizontal = 1;
origin = "{0, 11}";
target = "{0, 27}";
type = Stem;
},
{
horizontal = 1;
origin = "{0, 4}";
target = "{0, 33}";
type = Stem;
},
{
origin = "{0, 37}";
target = "{0, 0}";
type = Stem;
},
{
origin = "{0, 7}";
target = "{0, 30}";
type = Stem;
},
{
origin = "{0, 15}";
target = "{0, 24}";
type = Stem;
}
);
layerId = m003;
paths = (
{
closed = 1;
nodes = (
"82 0 LINE",
"221 994 LINE SMOOTH",
"248 1184 OFFCURVE",
"422 1338 OFFCURVE",
"612 1338 CURVE SMOOTH",
"762 1338 OFFCURVE",
"886 1282 OFFCURVE",
"870 1152 CURVE SMOOTH",
"855 1032 OFFCURVE",
"518 754 OFFCURVE",
"517 694 CURVE SMOOTH",
"517 662 LINE",
"583 662 LINE SMOOTH",
"749 662 OFFCURVE",
"931 568 OFFCURVE",
"903 364 CURVE SMOOTH",
"874 156 OFFCURVE",
"666 60 OFFCURVE",
"500 60 CURVE SMOOTH",
"406 60 LINE",
"418 0 LINE",
"492 0 LINE SMOOTH",
"690 0 OFFCURVE",
"929 122 OFFCURVE",
"962 362 CURVE SMOOTH",
"994 588 OFFCURVE",
"808 740 OFFCURVE",
"605 720 CURVE",
"841 992 OFFCURVE",
"928 1070 OFFCURVE",
"940 1152 CURVE SMOOTH",
"963 1320 OFFCURVE",
"814 1398 OFFCURVE",
"624 1398 CURVE SMOOTH",
"400 1398 OFFCURVE",
"193 1216 OFFCURVE",
"161 992 CURVE SMOOTH",
"22 0 LINE"
);
}
);
width = 1070;
},
{
anchors = (
{
name = bottom;
position = "{525, 0}";
},
{
name = top;
position = "{721, 1400}";
}
);
hints = (
{
horizontal = 1;
origin = "{0, 37}";
target = "{0, 19}";
type = Stem;
},
{
horizontal = 1;
place = "{496, 46}";
type = Stem;
},
{
horizontal = 1;
origin = "{0, 33}";
target = "{0, 4}";
type = Stem;
},
{
origin = "{0, 37}";
target = "{0, 0}";
type = Stem;
},
{
origin = "{0, 7}";
target = "{0, 30}";
type = Stem;
},
{
origin = "{0, 15}";
target = "{0, 24}";
type = Stem;
}
);
layerId = m004;
paths = (
{
closed = 1;
nodes = (
"322 0 LINE",
"455 950 LINE SMOOTH",
"470 1058 OFFCURVE",
"570 1144 OFFCURVE",
"656 1144 CURVE SMOOTH",
"742 1144 OFFCURVE",
"821 1148 OFFCURVE",
"811 1074 CURVE SMOOTH",
"806 1040 OFFCURVE",
"612 858 OFFCURVE",
"591 704 CURVE SMOOTH",
"575 594 LINE",
"657 594 LINE SMOOTH",
"761 594 OFFCURVE",
"900 556 OFFCURVE",
"881 424 CURVE SMOOTH",
"863 292 OFFCURVE",
"713 254 OFFCURVE",
"609 254 CURVE SMOOTH",
"527 254 LINE",
"552 0 LINE",
"606 0 LINE SMOOTH",
"838 0 OFFCURVE",
"1109 150 OFFCURVE",
"1147 422 CURVE SMOOTH",
"1170 586 OFFCURVE",
"1020 770 OFFCURVE",
"837 734 CURVE",
"1003 906 OFFCURVE",
"1096 972 OFFCURVE",
"1110 1068 CURVE SMOOTH",
"1135 1248 OFFCURVE",
"956 1400 OFFCURVE",
"748 1400 CURVE SMOOTH",
"456 1400 OFFCURVE",
"185 1162 OFFCURVE",
"144 870 CURVE SMOOTH",
"22 0 LINE"
);
}
);
width = 1246;
},
{
anchors = (
{
name = bottom;
position = "{564, 0}";
},
{
name = top;
position = "{564, 1400}";
}
);
hints = (
{
horizontal = 1;
origin = "{0, 37}";
target = "{0, 19}";
type = Stem;
},
{
horizontal = 1;
origin = "{0, 11}";
target = "{0, 27}";
type = Stem;
},
{
horizontal = 1;
origin = "{0, 4}";
target = "{0, 33}";
type = Stem;
},
{
origin = "{0, 37}";
target = "{0, 0}";
type = Stem;
},
{
origin = "{0, 7}";
target = "{0, 30}";
type = Stem;
},
{
origin = "{0, 15}";
target = "{0, 24}";
type = Stem;
}
);
layerId = "F7B0483F-D4AC-485F-91A2-832BFA93C9DB";
paths = (
{
closed = 1;
nodes = (
"260 0 LINE",
"260 979 LINE SMOOTH",
"260 1142 OFFCURVE",
"391 1273 OFFCURVE",
"546 1273 CURVE SMOOTH",
"675 1273 OFFCURVE",
"789 1237 OFFCURVE",
"790 1126 CURVE SMOOTH",
"791 1035 OFFCURVE",
"537 789 OFFCURVE",
"542 697 CURVE SMOOTH",
"545 639 LINE",
"616 639 LINE SMOOTH",
"761 639 OFFCURVE",
"940 564 OFFCURVE",
"940 384 CURVE SMOOTH",
"940 201 OFFCURVE",
"763 125 OFFCURVE",
"617 125 CURVE SMOOTH",
"527 125 LINE",
"561 0 LINE",
"628 0 LINE SMOOTH",
"837 0 OFFCURVE",
"1069 131 OFFCURVE",
"1069 382 CURVE SMOOTH",
"1069 587 OFFCURVE",
"871 750 OFFCURVE",
"679 725 CURVE",
"858 963 OFFCURVE",
"937 1037 OFFCURVE",
"937 1124 CURVE SMOOTH",
"937 1296 OFFCURVE",
"763 1399 OFFCURVE",
"567 1399 CURVE SMOOTH",
"321 1399 OFFCURVE",
"120 1198 OFFCURVE",
"120 951 CURVE SMOOTH",
"120 0 LINE"
);
}
);
width = 1128.66667;
},
{
anchors = (
{
name = bottom;
position = "{466, 0}";
},
{
name = top;
position = "{662, 1400}";
}
);
hints = (
{
horizontal = 1;
origin = "{0, 37}";
target = "{0, 19}";
type = Stem;
},
{
horizontal = 1;
origin = "{0, 11}";
target = "{0, 27}";
type = Stem;
},
{
horizontal = 1;
origin = "{0, 4}";
target = "{0, 33}";
type = Stem;
},
{
origin = "{0, 37}";
target = "{0, 0}";
type = Stem;
},
{
origin = "{0, 7}";
target = "{0, 30}";
type = Stem;
},
{
origin = "{0, 15}";
target = "{0, 24}";
type = Stem;
}
);
layerId = "A034D368-5B08-4DC5-B558-B81FD113CC46";
paths = (
{
closed = 1;
nodes = (
"162 0 LINE",
"299 979 LINE SMOOTH",
"322 1142 OFFCURVE",
"471 1273 OFFCURVE",
"627 1273 CURVE SMOOTH",
"755 1273 OFFCURVE",
"864 1237 OFFCURVE",
"850 1126 CURVE SMOOTH",
"839 1035 OFFCURVE",
"549 789 OFFCURVE",
"542 697 CURVE SMOOTH",
"536 639 LINE",
"608 639 LINE SMOOTH",
"753 639 OFFCURVE",
"921 564 OFFCURVE",
"896 384 CURVE SMOOTH",
"870 201 OFFCURVE",
"682 125 OFFCURVE",
"536 125 CURVE SMOOTH",
"446 125 LINE",
"463 0 LINE",
"530 0 LINE SMOOTH",
"739 0 OFFCURVE",
"989 131 OFFCURVE",
"1024 382 CURVE SMOOTH",
"1053 587 OFFCURVE",
"879 750 OFFCURVE",
"682 725 CURVE",
"895 963 OFFCURVE",
"984 1037 OFFCURVE",
"997 1124 CURVE SMOOTH",
"1020 1296 OFFCURVE",
"861 1399 OFFCURVE",
"665 1399 CURVE SMOOTH",
"419 1399 OFFCURVE",
"190 1198 OFFCURVE",
"155 951 CURVE SMOOTH",
"22 0 LINE"
);
}
);
width = 1128.66667;
}
);
leftKerningGroup = Germandbls;
rightKerningGroup = Germandbls;
unicode = 1E9E;
},
{
glyphname = T;
lastChange = "2021-10-25 19:38:01 +0000";
layers = (
{
anchors = (
{
name = bottom;
position = "{630, 0}";
},
{
name = center;
position = "{630, 700}";
},
{
name = top;
position = "{630, 1400}";
}
);
hints = (
{
horizontal = 1;
origin = "{0, 3}";
target = up;
type = BottomGhost;
},
{
horizontal = 1;
origin = "{0, 0}";
target = "{0, 1}";
type = Stem;
},
{
origin = "{0, 3}";
target = "{0, 4}";
type = Stem;
}
);
layerId = "10BC12B3-5274-42E3-B5BC-F74F362F0DF4";
paths = (
{
closed = 1;
nodes = (
"80 1400 LINE",
"80 1100 LINE",
"480 1100 LINE",
"480 0 LINE",
"780 0 LINE",
"780 1100 LINE",
"1180 1100 LINE",
"1180 1400 LINE"
);
}
);
width = 1260;
},
{
anchors = (
{
name = bottom;
position = "{628, 0}";
},
{
name = center;
position = "{629, 700}";
},
{
name = top;
position = "{629, 1400}";
}
);
hints = (
{
horizontal = 1;
origin = "{0, 3}";
target = up;
type = BottomGhost;
},
{
horizontal = 1;
origin = "{0, 0}";
target = "{0, 1}";
type = Stem;
},
{
origin = "{0, 3}";
target = "{0, 4}";
type = Stem;
}
);
layerId = "9AF1F7D9-E035-453E-B2A8-46DE370997D0";
paths = (
{
closed = 1;
nodes = (
"80 1400 LINE",
"80 1340 LINE",
"598 1340 LINE",
"598 0 LINE",
"658 0 LINE",
"658 1340 LINE",
"1178 1340 LINE",
"1178 1400 LINE"
);
}
);
width = 1258;
},
{
anchors = (
{
name = bottom;
position = "{530, 0}";
},
{
name = center;
position = "{629, 700}";
},
{
name = top;
position = "{727, 1400}";
}
);
hints = (
{
horizontal = 1;
origin = "{0, 3}";
target = up;
type = BottomGhost;
},
{
horizontal = 1;
origin = "{0, 0}";
target = "{0, 1}";
type = Stem;
},
{
origin = "{0, 3}";
target = "{0, 4}";
type = Stem;
}
);
layerId = m003;
paths = (
{
closed = 1;
nodes = (
"178 1400 LINE",
"170 1340 LINE",
"688 1340 LINE",
"500 0 LINE",
"560 0 LINE",
"748 1340 LINE",
"1268 1340 LINE",
"1276 1400 LINE"
);
}
);
width = 1258;
},
{
anchors = (
{
name = bottom;
position = "{532, 0}";
},
{
name = center;
position = "{630, 700}";
},
{
name = top;
position = "{728, 1400}";
}
);
hints = (
{
horizontal = 1;
origin = "{0, 3}";
target = up;
type = BottomGhost;
},
{
horizontal = 1;
origin = "{0, 0}";
target = "{0, 1}";
type = Stem;
},
{
origin = "{0, 3}";
target = "{0, 4}";
type = Stem;
}
);
layerId = m004;
paths = (
{
closed = 1;
nodes = (
"178 1400 LINE",
"136 1100 LINE",
"536 1100 LINE",
"382 0 LINE",
"682 0 LINE",
"836 1100 LINE",
"1236 1100 LINE",
"1278 1400 LINE"
);
}
);
width = 1260;
},
{
anchors = (
{
name = bottom;
position = "{629, 0}";
},
{
name = center;
position = "{629, 700}";
},
{
name = top;
position = "{629, 1400}";
}
);
hints = (
{
horizontal = 1;
origin = "{0, 3}";
target = up;
type = BottomGhost;
},
{
horizontal = 1;
origin = "{0, 0}";
target = "{0, 1}";
type = Stem;
},
{
origin = "{0, 3}";
target = "{0, 4}";
type = Stem;
}
);
layerId = "F7B0483F-D4AC-485F-91A2-832BFA93C9DB";
paths = (
{
closed = 1;
nodes = (
"80 1400 LINE",
"80 1260 LINE",
"559 1260 LINE",
"559 0 LINE",
"699 0 LINE",
"699 1260 LINE",
"1179 1260 LINE",
"1179 1400 LINE"
);
}
);
width = 1258.66667;
},
{
anchors = (
{
name = bottom;
position = "{531, 0}";
},
{
name = center;
position = "{629, 700}";
},
{
name = top;
position = "{727, 1400}";
}
);
hints = (
{
horizontal = 1;
origin = "{0, 3}";
target = up;
type = BottomGhost;
},
{
horizontal = 1;
origin = "{0, 0}";
target = "{0, 1}";
type = Stem;
},
{
origin = "{0, 3}";
target = "{0, 4}";
type = Stem;
}
);
layerId = "A034D368-5B08-4DC5-B558-B81FD113CC46";
paths = (
{
closed = 1;
nodes = (
"178 1400 LINE",
"159 1260 LINE",
"637 1260 LINE",
"461 0 LINE",
"601 0 LINE",
"777 1260 LINE",
"1257 1260 LINE",
"1277 1400 LINE"
);
}
);
width = 1258.66667;
}
);
leftKerningGroup = T;
rightKerningGroup = T;
unicode = 0054;
},
{
glyphname = U;
lastChange = "2021-10-25 19:38:01 +0000";
layers = (
{
anchors = (
{
name = bottom;
position = "{689, 0}";
},
{
name = ogonek;
position = "{862, 0}";
},
{
name = top;
position = "{689, 1400}";
},
{
name = topright;
position = "{1358, 1400}";
}
);
hints = (
{
horizontal = 1;
origin = "{0, 17}";
target = "{0, 8}";
type = Stem;
},
{
horizontal = 1;
origin = "{0, 13}";
target = down;
type = TopGhost;
},
{
origin = "{0, 14}";
target = "{0, 11}";
type = Stem;
},
{
origin = "{0, 5}";
target = "{0, 2}";
type = Stem;
}
);
layerId = "10BC12B3-5274-42E3-B5BC-F74F362F0DF4";
paths = (
{
closed = 1;
nodes = (
"1026 -26 OFFCURVE",
"1258 246 OFFCURVE",
"1258 584 CURVE SMOOTH",
"1258 1400 LINE",
"958 1400 LINE",
"958 584 LINE SMOOTH",
"958 412 OFFCURVE",
"862 274 OFFCURVE",
"690 274 CURVE SMOOTH",
"520 274 OFFCURVE",
"420 414 OFFCURVE",
"420 584 CURVE SMOOTH",
"420 1400 LINE",
"120 1400 LINE",
"120 584 LINE SMOOTH",
"120 246 OFFCURVE",
"354 -26 OFFCURVE",
"690 -26 CURVE SMOOTH"
);
}
);
width = 1378;
},
{
anchors = (
{
name = bottom;
position = "{650, 0}";
},
{
name = ogonek;
position = "{739, -16}";
},
{
name = top;
position = "{650, 1400}";
},
{
name = topright;
position = "{1280, 1400}";
}
);
hints = (
{
horizontal = 1;
origin = "{0, 17}";
target = "{0, 8}";
type = Stem;
},
{
horizontal = 1;
origin = "{0, 13}";
target = down;
type = TopGhost;
},
{
origin = "{0, 14}";
target = "{0, 11}";
type = Stem;
},
{
origin = "{0, 5}";
target = "{0, 2}";
type = Stem;
}
);
layerId = "9AF1F7D9-E035-453E-B2A8-46DE370997D0";
paths = (
{
closed = 1;
nodes = (
"986 -26 OFFCURVE",
"1180 246 OFFCURVE",
"1180 584 CURVE SMOOTH",
"1180 1400 LINE",
"1120 1400 LINE",
"1120 584 LINE SMOOTH",
"1120 288 OFFCURVE",
"958 34 OFFCURVE",
"650 34 CURVE SMOOTH",
"346 34 OFFCURVE",
"180 284 OFFCURVE",
"180 584 CURVE SMOOTH",
"180 1400 LINE",
"120 1400 LINE",
"120 584 LINE SMOOTH",
"120 246 OFFCURVE",
"314 -26 OFFCURVE",
"650 -26 CURVE SMOOTH"
);
}
);
width = 1300;
},
{
anchors = (
{
name = bottom;
position = "{552, 0}";
},
{
name = ogonek;
position = "{638, -16}";
},
{
name = top;
position = "{748, 1400}";
},
{
name = topright;
position = "{1378, 1400}";
}
);
hints = (
{
horizontal = 1;
origin = "{0, 17}";
target = "{0, 8}";
type = Stem;
},
{
horizontal = 1;
origin = "{0, 13}";
target = down;
type = TopGhost;
},
{
origin = "{0, 14}";
target = "{0, 11}";
type = Stem;
},
{
origin = "{0, 5}";
target = "{0, 2}";
type = Stem;
}
);
layerId = m003;
paths = (
{
closed = 1;
nodes = (
"884 -26 OFFCURVE",
"1116 246 OFFCURVE",
"1164 584 CURVE SMOOTH",
"1278 1400 LINE",
"1218 1400 LINE",
"1104 584 LINE SMOOTH",
"1062 288 OFFCURVE",
"864 34 OFFCURVE",
"556 34 CURVE SMOOTH",
"252 34 OFFCURVE",
"122 284 OFFCURVE",
"164 584 CURVE SMOOTH",
"278 1400 LINE",
"218 1400 LINE",
"104 584 LINE SMOOTH",
"56 246 OFFCURVE",
"212 -26 OFFCURVE",
"548 -26 CURVE SMOOTH"
);
}
);
width = 1300;
},
{
anchors = (
{
name = bottom;
position = "{591, 0}";
},
{
name = ogonek;
position = "{764, 0}";
},
{
name = top;
position = "{787, 1400}";
},
{
name = topright;
position = "{1456, 1400}";
}
);
hints = (
{
horizontal = 1;
origin = "{0, 17}";
target = "{0, 8}";
type = Stem;
},
{
horizontal = 1;
origin = "{0, 13}";
target = down;
type = TopGhost;
},
{
origin = "{0, 14}";
target = "{0, 11}";
type = Stem;
},
{
origin = "{0, 5}";
target = "{0, 2}";
type = Stem;
}
);
layerId = m004;
paths = (
{
closed = 1;
nodes = (
"924 -26 OFFCURVE",
"1194 246 OFFCURVE",
"1242 584 CURVE SMOOTH",
"1356 1400 LINE",
"1056 1400 LINE",
"942 584 LINE SMOOTH",
"918 412 OFFCURVE",
"802 274 OFFCURVE",
"630 274 CURVE SMOOTH",
"460 274 OFFCURVE",
"380 414 OFFCURVE",
"404 584 CURVE SMOOTH",
"518 1400 LINE",
"218 1400 LINE",
"104 584 LINE SMOOTH",
"56 246 OFFCURVE",
"252 -26 OFFCURVE",
"588 -26 CURVE SMOOTH"
);
}
);
width = 1378;
},
{
anchors = (
{
name = bottom;
position = "{663, 0}";
},
{
name = ogonek;
position = "{780, -11}";
},
{
name = top;
position = "{663, 1400}";
},
{
name = topright;
position = "{1306, 1400}";
}
);
hints = (
{
horizontal = 1;
origin = "{0, 17}";
target = "{0, 8}";
type = Stem;
},
{
horizontal = 1;
origin = "{0, 13}";
target = down;
type = TopGhost;
},
{
origin = "{0, 14}";
target = "{0, 11}";
type = Stem;
},
{
origin = "{0, 5}";
target = "{0, 2}";
type = Stem;
}
);
layerId = "F7B0483F-D4AC-485F-91A2-832BFA93C9DB";
paths = (
{
closed = 1;
nodes = (
"999 -26 OFFCURVE",
"1206 246 OFFCURVE",
"1206 584 CURVE SMOOTH",
"1206 1400 LINE",
"1066 1400 LINE",
"1066 584 LINE SMOOTH",
"1066 329 OFFCURVE",
"926 114 OFFCURVE",
"663 114 CURVE SMOOTH",
"404 114 OFFCURVE",
"260 327 OFFCURVE",
"260 584 CURVE SMOOTH",
"260 1400 LINE",
"120 1400 LINE",
"120 584 LINE SMOOTH",
"120 246 OFFCURVE",
"327 -26 OFFCURVE",
"663 -26 CURVE SMOOTH"
);
}
);
width = 1326;
},
{
anchors = (
{
name = bottom;
position = "{565, 0}";
},
{
name = ogonek;
position = "{680, -11}";
},
{
name = top;
position = "{761, 1400}";
},
{
name = topright;
position = "{1404, 1400}";
}
);
hints = (
{
horizontal = 1;
origin = "{0, 17}";
target = "{0, 8}";
type = Stem;
},
{
horizontal = 1;
origin = "{0, 13}";
target = down;
type = TopGhost;
},
{
origin = "{0, 14}";
target = "{0, 11}";
type = Stem;
},
{
origin = "{0, 5}";
target = "{0, 2}";
type = Stem;
}
);
layerId = "A034D368-5B08-4DC5-B558-B81FD113CC46";
paths = (
{
closed = 1;
nodes = (
"897 -26 OFFCURVE",
"1142 246 OFFCURVE",
"1190 584 CURVE SMOOTH",
"1304 1400 LINE",
"1164 1400 LINE",
"1050 584 LINE SMOOTH",
"1014 329 OFFCURVE",
"843 114 OFFCURVE",
"581 114 CURVE SMOOTH",
"321 114 OFFCURVE",
"208 327 OFFCURVE",
"244 584 CURVE SMOOTH",
"358 1400 LINE",
"218 1400 LINE",
"104 584 LINE SMOOTH",
"56 246 OFFCURVE",
"225 -26 OFFCURVE",
"561 -26 CURVE SMOOTH"
);
}
);
width = 1326;
}
);
leftKerningGroup = U;
rightKerningGroup = U;
unicode = 0055;
},
{
glyphname = V;
lastChange = "2021-10-25 19:38:01 +0000";
layers = (
{
anchors = (
{
name = bottom;
position = "{802, 0}";
},
{
name = top;
position = "{802, 1400}";
}
);
hints = (
{
horizontal = 1;
origin = "{0, 6}";
target = up;
type = BottomGhost;
},
{
horizontal = 1;
origin = "{0, 5}";
target = down;
type = TopGhost;
}
);
layerId = "10BC12B3-5274-42E3-B5BC-F74F362F0DF4";
paths = (
{
closed = 1;
nodes = (
"996 0 LINE",
"1504 1400 LINE",
"1186 1400 LINE",
"802 344 LINE",
"418 1400 LINE",
"100 1400 LINE",
"608 0 LINE"
);
}
);
width = 1604;
},
{
anchors = (
{
name = bottom;
position = "{559, 0}";
},
{
name = top;
position = "{559, 1400}";
}
);
hints = (
{
horizontal = 1;
origin = "{0, 6}";
target = up;
type = BottomGhost;
},
{
horizontal = 1;
origin = "{0, 5}";
target = down;
type = TopGhost;
}
);
layerId = "9AF1F7D9-E035-453E-B2A8-46DE370997D0";
paths = (
{
closed = 1;
nodes = (
"588 0 LINE",
"1098 1400 LINE",
"1034 1400 LINE",
"558 92 LINE",
"84 1400 LINE",
"20 1400 LINE",
"528 0 LINE"
);
}
);
width = 1118;
},
{
anchors = (
{
name = bottom;
position = "{461, 0}";
},
{
name = top;
position = "{657, 1400}";
}
);
hints = (
{
horizontal = 1;
origin = "{0, 6}";
target = up;
type = BottomGhost;
},
{
horizontal = 1;
origin = "{0, 5}";
target = down;
type = TopGhost;
}
);
layerId = m003;
paths = (
{
closed = 1;
nodes = (
"490 0 LINE",
"1196 1400 LINE",
"1132 1400 LINE",
"473 92 LINE",
"182 1400 LINE",
"118 1400 LINE",
"430 0 LINE"
);
}
);
width = 1118;
},
{
anchors = (
{
name = bottom;
position = "{704, 0}";
},
{
name = top;
position = "{900, 1400}";
}
);
hints = (
{
horizontal = 1;
origin = "{0, 6}";
target = up;
type = BottomGhost;
},
{
horizontal = 1;
origin = "{0, 5}";
target = down;
type = TopGhost;
}
);
layerId = m004;
paths = (
{
closed = 1;
nodes = (
"898 0 LINE",
"1602 1400 LINE",
"1284 1400 LINE",
"752 344 LINE",
"516 1400 LINE",
"198 1400 LINE",
"510 0 LINE"
);
}
);
width = 1604;
},
{
anchors = (
{
name = bottom;
position = "{640, 0}";
},
{
name = top;
position = "{640, 1400}";
}
);
hints = (
{
horizontal = 1;
origin = "{0, 6}";
target = up;
type = BottomGhost;
},
{
horizontal = 1;
origin = "{0, 5}";
target = down;
type = TopGhost;
}
);
layerId = "F7B0483F-D4AC-485F-91A2-832BFA93C9DB";
paths = (
{
closed = 1;
nodes = (
"724 0 LINE",
"1233 1400 LINE",
"1085 1400 LINE",
"639 176 LINE",
"195 1400 LINE",
"47 1400 LINE",
"555 0 LINE"
);
}
);
width = 1280;
},
{
anchors = (
{
name = bottom;
position = "{542, 0}";
},
{
name = top;
position = "{738, 1400}";
}
);
hints = (
{
horizontal = 1;
origin = "{0, 6}";
target = up;
type = BottomGhost;
},
{
horizontal = 1;
origin = "{0, 5}";
target = down;
type = TopGhost;
}
);
layerId = "A034D368-5B08-4DC5-B558-B81FD113CC46";
paths = (
{
closed = 1;
nodes = (
"626 0 LINE",
"1331 1400 LINE",
"1183 1400 LINE",
"566 176 LINE",
"293 1400 LINE",
"145 1400 LINE",
"457 0 LINE"
);
}
);
width = 1280;
}
);
leftKerningGroup = W;
leftMetricsKey = W;
rightKerningGroup = W;
rightMetricsKey = W;
unicode = 0056;
},
{
glyphname = W;
lastChange = "2021-10-25 19:38:01 +0000";
layers = (
{
anchors = (
{
name = bottom;
position = "{980, 0}";
},
{
name = top;
position = "{980, 1400}";
}
);
hints = (
{
horizontal = 1;
origin = "{0, 12}";
target = up;
type = BottomGhost;
},
{
horizontal = 1;
origin = "{0, 11}";
target = down;
type = TopGhost;
}
);
layerId = "10BC12B3-5274-42E3-B5BC-F74F362F0DF4";
paths = (
{
closed = 1;
nodes = (
"796 0 LINE",
"980 726 LINE",
"1166 0 LINE",
"1504 0 LINE",
"1860 1400 LINE",
"1550 1400 LINE",
"1334 552 LINE",
"1118 1400 LINE",
"842 1400 LINE",
"626 552 LINE",
"410 1400 LINE",
"100 1400 LINE",
"458 0 LINE"
);
}
);
width = 1960;
},
{
anchors = (
{
name = bottom;
position = "{776, 0}";
},
{
name = top;
position = "{776, 1400}";
}
);
hints = (
{
horizontal = 1;
origin = "{0, 12}";
target = "{0, 9}";
type = Stem;
},
{
horizontal = 1;
origin = "{0, 11}";
target = down;
type = TopGhost;
}
);
layerId = "9AF1F7D9-E035-453E-B2A8-46DE370997D0";
paths = (
{
closed = 1;
nodes = (
"456 0 LINE",
"776 1250 LINE",
"1096 0 LINE",
"1176 0 LINE",
"1532 1400 LINE",
"1470 1400 LINE",
"1136 86 LINE",
"800 1400 LINE",
"752 1400 LINE",
"418 86 LINE",
"82 1400 LINE",
"20 1400 LINE",
"378 0 LINE"
);
}
);
width = 1552;
},
{
anchors = (
{
name = bottom;
position = "{678, 0}";
},
{
name = top;
position = "{874, 1400}";
}
);
hints = (
{
horizontal = 1;
origin = "{0, 12}";
target = "{0, 9}";
type = Stem;
},
{
horizontal = 1;
origin = "{0, 11}";
target = down;
type = TopGhost;
}
);
layerId = m003;
paths = (
{
closed = 1;
nodes = (
"358 0 LINE",
"853 1250 LINE",
"998 0 LINE",
"1078 0 LINE",
"1630 1400 LINE",
"1568 1400 LINE",
"1050 86 LINE",
"898 1400 LINE",
"850 1400 LINE",
"332 86 LINE",
"180 1400 LINE",
"118 1400 LINE",
"280 0 LINE"
);
}
);
width = 1552;
},
{
anchors = (
{
name = bottom;
position = "{882, 0}";
},
{
name = top;
position = "{1078, 1400}";
}
);
hints = (
{
horizontal = 1;
origin = "{0, 12}";
target = up;
type = BottomGhost;
},
{
horizontal = 1;
origin = "{0, 11}";
target = down;
type = TopGhost;
}
);
layerId = m004;
paths = (
{
closed = 1;
nodes = (
"698 0 LINE",
"984 726 LINE",
"1068 0 LINE",
"1406 0 LINE",
"1958 1400 LINE",
"1648 1400 LINE",
"1313 552 LINE",
"1216 1400 LINE",
"940 1400 LINE",
"605 552 LINE",
"508 1400 LINE",
"198 1400 LINE",
"360 0 LINE"
);
}
);
width = 1960;
},
{
anchors = (
{
name = bottom;
position = "{844, 0}";
},
{
name = top;
position = "{844, 1400}";
}
);
hints = (
{
horizontal = 1;
origin = "{0, 12}";
target = "{0, 9}";
type = Stem;
},
{
horizontal = 1;
origin = "{0, 11}";
target = down;
type = TopGhost;
}
);
layerId = "F7B0483F-D4AC-485F-91A2-832BFA93C9DB";
paths = (
{
closed = 1;
nodes = (
"569 0 LINE",
"844 1075 LINE",
"1119 0 LINE",
"1285 0 LINE",
"1641 1400 LINE",
"1497 1400 LINE",
"1202 241 LINE",
"906 1400 LINE",
"782 1400 LINE",
"487 241 LINE",
"191 1400 LINE",
"47 1400 LINE",
"405 0 LINE"
);
}
);
width = 1688;
},
{
anchors = (
{
name = bottom;
position = "{746, 0}";
},
{
name = top;
position = "{942, 1400}";
}
);
hints = (
{
horizontal = 1;
origin = "{0, 12}";
target = "{0, 9}";
type = Stem;
},
{
horizontal = 1;
origin = "{0, 11}";
target = down;
type = TopGhost;
}
);
layerId = "A034D368-5B08-4DC5-B558-B81FD113CC46";
paths = (
{
closed = 1;
nodes = (
"471 0 LINE",
"897 1075 LINE",
"1021 0 LINE",
"1187 0 LINE",
"1739 1400 LINE",
"1595 1400 LINE",
"1138 241 LINE",
"1004 1400 LINE",
"880 1400 LINE",
"423 241 LINE",
"289 1400 LINE",
"145 1400 LINE",
"307 0 LINE"
);
}
);
width = 1688;
}
);
leftKerningGroup = W;
rightKerningGroup = W;
unicode = 0057;
},
{
glyphname = X;
lastChange = "2021-10-25 19:38:01 +0000";
layers = (
{
anchors = (
{
name = bottom;
position = "{758, 0}";
},
{
name = top;
position = "{758, 1400}";
}
);
hints = (
{
horizontal = 1;
origin = "{0, 11}";
target = up;
type = BottomGhost;
},
{
horizontal = 1;
origin = "{0, 9}";
target = down;
type = TopGhost;
}
);
layerId = "10BC12B3-5274-42E3-B5BC-F74F362F0DF4";
paths = (
{
closed = 1;
nodes = (
"432 0 LINE",
"758 448 LINE",
"1084 0 LINE",
"1456 0 LINE",
"944 704 LINE",
"1450 1400 LINE",
"1080 1400 LINE",
"758 958 LINE",
"436 1400 LINE",
"66 1400 LINE",
"572 704 LINE",
"60 0 LINE"
);
}
);
width = 1516;
},
{
anchors = (
{
name = bottom;
position = "{610, 0}";
},
{
name = top;
position = "{610, 1400}";
}
);
hints = (
{
horizontal = 1;
origin = "{0, 11}";
target = up;
type = BottomGhost;
},
{
horizontal = 1;
origin = "{0, 9}";
target = down;
type = TopGhost;
}
);
layerId = "9AF1F7D9-E035-453E-B2A8-46DE370997D0";
paths = (
{
closed = 1;
nodes = (
"136 0 LINE",
"610 652 LINE",
"1086 0 LINE",
"1160 0 LINE",
"648 704 LINE",
"1154 1400 LINE",
"1080 1400 LINE",
"610 754 LINE",
"140 1400 LINE",
"66 1400 LINE",
"574 704 LINE",
"60 0 LINE"
);
}
);
width = 1220;
},
{
anchors = (
{
name = bottom;
position = "{512, 0}";
},
{
name = top;
position = "{708, 1400}";
}
);
hints = (
{
horizontal = 1;
origin = "{0, 11}";
target = up;
type = BottomGhost;
},
{
horizontal = 1;
origin = "{0, 9}";
target = down;
type = TopGhost;
}
);
layerId = m003;
paths = (
{
closed = 1;
nodes = (
"38 0 LINE",
"603 652 LINE",
"988 0 LINE",
"1062 0 LINE",
"649 704 LINE",
"1252 1400 LINE",
"1178 1400 LINE",
"618 754 LINE",
"238 1400 LINE",
"164 1400 LINE",
"575 704 LINE",
"-38 0 LINE"
);
}
);
width = 1220;
},
{
anchors = (
{
name = bottom;
position = "{660, 0}";
},
{
name = top;
position = "{856, 1400}";
}
);
hints = (
{
horizontal = 1;
origin = "{0, 11}";
target = up;
type = BottomGhost;
},
{
horizontal = 1;
origin = "{0, 9}";
target = down;
type = TopGhost;
}
);
layerId = m004;
paths = (
{
closed = 1;
nodes = (
"334 0 LINE",
"723 448 LINE",
"986 0 LINE",
"1358 0 LINE",
"945 704 LINE",
"1548 1400 LINE",
"1178 1400 LINE",
"794 958 LINE",
"534 1400 LINE",
"164 1400 LINE",
"573 704 LINE",
"-38 0 LINE"
);
}
);
width = 1516;
},
{
anchors = (
{
name = bottom;
position = "{659, 0}";
},
{
name = top;
position = "{659, 1400}";
}
);
hints = (
{
horizontal = 1;
origin = "{0, 11}";
target = up;
type = BottomGhost;
},
{
horizontal = 1;
origin = "{0, 9}";
target = down;
type = TopGhost;
}
);
layerId = "F7B0483F-D4AC-485F-91A2-832BFA93C9DB";
paths = (
{
closed = 1;
nodes = (
"235 0 LINE",
"659 584 LINE",
"1085 0 LINE",
"1259 0 LINE",
"747 704 LINE",
"1253 1400 LINE",
"1080 1400 LINE",
"659 822 LINE",
"239 1400 LINE",
"66 1400 LINE",
"573 704 LINE",
"60 0 LINE"
);
}
);
width = 1318.66667;
},
{
anchors = (
{
name = bottom;
position = "{561, 0}";
},
{
name = top;
position = "{757, 1400}";
}
);
hints = (
{
horizontal = 1;
origin = "{0, 11}";
target = up;
type = BottomGhost;
},
{
horizontal = 1;
origin = "{0, 9}";
target = down;
type = TopGhost;
}
);
layerId = "A034D368-5B08-4DC5-B558-B81FD113CC46";
paths = (
{
closed = 1;
nodes = (
"137 0 LINE",
"643 584 LINE",
"987 0 LINE",
"1161 0 LINE",
"748 704 LINE",
"1351 1400 LINE",
"1178 1400 LINE",
"677 822 LINE",
"337 1400 LINE",
"164 1400 LINE",
"574 704 LINE",
"-38 0 LINE"
);
}
);
width = 1318.66667;
}
);
leftKerningGroup = X;
rightKerningGroup = X;
unicode = 0058;
},
{
glyphname = Y;
lastChange = "2021-10-25 19:38:01 +0000";
layers = (
{
anchors = (
{
name = bottom;
position = "{696, 0}";
},
{
name = top;
position = "{696, 1400}";
},
{
name = topleft;
position = "{20, 1400}";
}
);
hints = (
{
horizontal = 1;
origin = "{0, 4}";
target = up;
type = BottomGhost;
},
{
horizontal = 1;
origin = "{0, 2}";
target = down;
type = TopGhost;
},
{
origin = "{0, 4}";
target = "{0, 5}";
type = Stem;
}
);
layerId = "10BC12B3-5274-42E3-B5BC-F74F362F0DF4";
paths = (
{
closed = 1;
nodes = (
"696 956 LINE",
"414 1400 LINE",
"60 1400 LINE",
"546 630 LINE",
"546 0 LINE",
"846 0 LINE",
"846 630 LINE",
"1332 1400 LINE",
"978 1400 LINE"
);
}
);
width = 1392;
},
{
anchors = (
{
name = bottom;
position = "{554, 0}";
},
{
name = top;
position = "{554, 1400}";
},
{
name = topleft;
position = "{20, 1400}";
}
);
hints = (
{
horizontal = 1;
origin = "{0, 4}";
target = up;
type = BottomGhost;
},
{
horizontal = 1;
origin = "{0, 2}";
target = down;
type = TopGhost;
},
{
origin = "{0, 4}";
target = "{0, 5}";
type = Stem;
}
);
layerId = "9AF1F7D9-E035-453E-B2A8-46DE370997D0";
paths = (
{
closed = 1;
nodes = (
"554 702 LINE",
"130 1400 LINE",
"60 1400 LINE",
"524 636 LINE",
"524 0 LINE",
"584 0 LINE",
"584 636 LINE",
"1048 1400 LINE",
"978 1400 LINE"
);
}
);
width = 1108;
},
{
anchors = (
{
name = bottom;
position = "{456, 0}";
},
{
name = top;
position = "{652, 1400}";
},
{
name = topleft;
position = "{118, 1400}";
}
);
hints = (
{
horizontal = 1;
origin = "{0, 4}";
target = up;
type = BottomGhost;
},
{
horizontal = 1;
origin = "{0, 2}";
target = down;
type = TopGhost;
},
{
origin = "{0, 4}";
target = "{0, 5}";
type = Stem;
}
);
layerId = m003;
paths = (
{
closed = 1;
nodes = (
"554 702 LINE",
"228 1400 LINE",
"158 1400 LINE",
"515 636 LINE",
"426 0 LINE",
"486 0 LINE",
"575 636 LINE",
"1146 1400 LINE",
"1076 1400 LINE"
);
}
);
width = 1108;
},
{
anchors = (
{
name = bottom;
position = "{598, 0}";
},
{
name = top;
position = "{794, 1400}";
},
{
name = topleft;
position = "{118, 1400}";
}
);
hints = (
{
horizontal = 1;
origin = "{0, 4}";
target = up;
type = BottomGhost;
},
{
horizontal = 1;
origin = "{0, 2}";
target = down;
type = TopGhost;
},
{
origin = "{0, 4}";
target = "{0, 5}";
type = Stem;
}
);
layerId = m004;
paths = (
{
closed = 1;
nodes = (
"732 956 LINE",
"512 1400 LINE",
"158 1400 LINE",
"536 630 LINE",
"448 0 LINE",
"748 0 LINE",
"836 630 LINE",
"1430 1400 LINE",
"1076 1400 LINE"
);
}
);
width = 1392;
},
{
anchors = (
{
name = bottom;
position = "{601, 0}";
},
{
name = top;
position = "{601, 1400}";
},
{
name = topleft;
position = "{20, 1400}";
}
);
hints = (
{
horizontal = 1;
origin = "{0, 4}";
target = up;
type = BottomGhost;
},
{
horizontal = 1;
origin = "{0, 2}";
target = down;
type = TopGhost;
},
{
origin = "{0, 4}";
target = "{0, 5}";
type = Stem;
}
);
layerId = "F7B0483F-D4AC-485F-91A2-832BFA93C9DB";
paths = (
{
closed = 1;
nodes = (
"601 787 LINE",
"225 1400 LINE",
"60 1400 LINE",
"531 634 LINE",
"531 0 LINE",
"671 0 LINE",
"671 634 LINE",
"1143 1400 LINE",
"978 1400 LINE"
);
}
);
width = 1202.66667;
},
{
anchors = (
{
name = bottom;
position = "{503, 0}";
},
{
name = top;
position = "{699, 1400}";
},
{
name = topleft;
position = "{118, 1400}";
}
);
hints = (
{
horizontal = 1;
origin = "{0, 4}";
target = up;
type = BottomGhost;
},
{
horizontal = 1;
origin = "{0, 2}";
target = down;
type = TopGhost;
},
{
origin = "{0, 4}";
target = "{0, 5}";
type = Stem;
}
);
layerId = "A034D368-5B08-4DC5-B558-B81FD113CC46";
paths = (
{
closed = 1;
nodes = (
"613 787 LINE",
"323 1400 LINE",
"158 1400 LINE",
"522 634 LINE",
"433 0 LINE",
"573 0 LINE",
"662 634 LINE",
"1241 1400 LINE",
"1076 1400 LINE"
);
}
);
width = 1202.66667;
}
);
leftKerningGroup = Y;
rightKerningGroup = Y;
unicode = 0059;
},
{
glyphname = Z;
lastChange = "2021-10-25 19:38:01 +0000";
layers = (
{
anchors = (
{
name = bottom;
position = "{646, 0}";
},
{
name = center;
position = "{646, 700}";
},
{
name = top;
position = "{646, 1400}";
}
);
hints = (
{
horizontal = 1;
origin = "{0, 9}";
target = "{0, 8}";
type = Stem;
},
{
horizontal = 1;
origin = "{0, 5}";
target = "{0, 6}";
type = Stem;
}
);
layerId = "10BC12B3-5274-42E3-B5BC-F74F362F0DF4";
paths = (
{
closed = 1;
nodes = (
"1212 0 LINE",
"1212 300 LINE",
"486 300 LINE",
"1212 1100 LINE",
"1212 1400 LINE",
"80 1400 LINE",
"80 1100 LINE",
"806 1100 LINE",
"80 300 LINE",
"80 0 LINE"
);
}
);
width = 1292;
},
{
anchors = (
{
name = bottom;
position = "{646, 0}";
},
{
name = center;
position = "{646, 700}";
},
{
name = top;
position = "{646, 1400}";
}
);
hints = (
{
horizontal = 1;
origin = "{0, 9}";
target = "{0, 8}";
type = Stem;
},
{
horizontal = 1;
origin = "{0, 5}";
target = "{0, 6}";
type = Stem;
}
);
layerId = "9AF1F7D9-E035-453E-B2A8-46DE370997D0";
paths = (
{
closed = 1;
nodes = (
"1212 0 LINE",
"1212 60 LINE",
"158 60 LINE",
"1212 1340 LINE",
"1212 1400 LINE",
"80 1400 LINE",
"80 1340 LINE",
"1134 1340 LINE",
"80 60 LINE",
"80 0 LINE"
);
}
);
width = 1292;
},
{
anchors = (
{
name = bottom;
position = "{548, 0}";
},
{
name = center;
position = "{646, 700}";
},
{
name = top;
position = "{744, 1400}";
}
);
hints = (
{
horizontal = 1;
origin = "{0, 9}";
target = "{0, 8}";
type = Stem;
},
{
horizontal = 1;
origin = "{0, 5}";
target = "{0, 6}";
type = Stem;
}
);
layerId = m003;
paths = (
{
closed = 1;
nodes = (
"1114 0 LINE",
"1122 60 LINE",
"68 60 LINE",
"1302 1340 LINE",
"1310 1400 LINE",
"178 1400 LINE",
"170 1340 LINE",
"1224 1340 LINE",
"-10 60 LINE",
"-18 0 LINE"
);
}
);
width = 1292;
},
{
anchors = (
{
name = bottom;
position = "{548, 0}";
},
{
name = center;
position = "{646, 700}";
},
{
name = top;
position = "{744, 1400}";
}
);
hints = (
{
horizontal = 1;
origin = "{0, 9}";
target = "{0, 8}";
type = Stem;
},
{
horizontal = 1;
origin = "{0, 5}";
target = "{0, 6}";
type = Stem;
}
);
layerId = m004;
paths = (
{
closed = 1;
nodes = (
"1114 0 LINE",
"1156 300 LINE",
"430 300 LINE",
"1268 1100 LINE",
"1310 1400 LINE",
"178 1400 LINE",
"136 1100 LINE",
"862 1100 LINE",
"24 300 LINE",
"-18 0 LINE"
);
}
);
width = 1292;
},
{
anchors = (
{
name = bottom;
position = "{646, 0}";
},
{
name = center;
position = "{646, 700}";
},
{
name = top;
position = "{646, 1400}";
}
);
hints = (
{
horizontal = 1;
origin = "{0, 9}";
target = "{0, 8}";
type = Stem;
},
{
horizontal = 1;
origin = "{0, 5}";
target = "{0, 6}";
type = Stem;
}
);
layerId = "F7B0483F-D4AC-485F-91A2-832BFA93C9DB";
paths = (
{
closed = 1;
nodes = (
"1212 0 LINE",
"1212 140 LINE",
"267 140 LINE",
"1212 1260 LINE",
"1212 1400 LINE",
"80 1400 LINE",
"80 1260 LINE",
"1025 1260 LINE",
"80 140 LINE",
"80 0 LINE"
);
}
);
width = 1292;
},
{
anchors = (
{
name = bottom;
position = "{548, 0}";
},
{
name = center;
position = "{646, 700}";
},
{
name = top;
position = "{744, 1400}";
}
);
hints = (
{
horizontal = 1;
origin = "{0, 9}";
target = "{0, 8}";
type = Stem;
},
{
horizontal = 1;
origin = "{0, 5}";
target = "{0, 6}";
type = Stem;
}
);
layerId = "A034D368-5B08-4DC5-B558-B81FD113CC46";
paths = (
{
closed = 1;
nodes = (
"1114 0 LINE",
"1133 140 LINE",
"189 140 LINE",
"1291 1260 LINE",
"1310 1400 LINE",
"178 1400 LINE",
"159 1260 LINE",
"1103 1260 LINE",
"1 140 LINE",
"-18 0 LINE"
);
}
);
width = 1292;
}
);
leftKerningGroup = Z;
rightKerningGroup = Z;
unicode = 005A;
},
{
glyphname = a;
lastChange = "2021-10-25 19:38:18 +0000";
layers = (
{
anchors = (
{
name = bottom;
position = "{623, 0}";
},
{
name = ogonek;
position = "{1138, 0}";
},
{
name = top;
position = "{623, 1000}";
}
);
hints = (
{
horizontal = 1;
origin = "{0, 9}";
target = "{0, 12}";
type = Stem;
},
{
horizontal = 1;
origin = "{0, 16}";
target = down;
type = TopGhost;
},
{
horizontal = 1;
origin = "{0, 3}";
target = "{0, 0}";
type = Stem;
},
{
horizontal = 1;
origin = "{0, 13}";
target = up;
type = BottomGhost;
},
{
origin = "{0, 16}";
target = "{0, 14}";
type = Stem;
}
);
layerId = "10BC12B3-5274-42E3-B5BC-F74F362F0DF4";
paths = (
{
closed = 1;
nodes = (
"852 904 LINE",
"778 974 OFFCURVE",
"685 1028 OFFCURVE",
"570 1028 CURVE SMOOTH",
"287 1028 OFFCURVE",
"59 798 OFFCURVE",
"60 514 CURVE SMOOTH",
"59 216 OFFCURVE",
"300 -26 OFFCURVE",
"598 -26 CURVE SMOOTH",
"698 -26 OFFCURVE",
"773 20 OFFCURVE",
"823 90 CURVE",
"837 0 LINE",
"1138 0 LINE",
"1138 1000 LINE",
"838 1000 LINE"
);
},
{
closed = 1;
nodes = (
"468 262 OFFCURVE",
"368 368 OFFCURVE",
"368 500 CURVE SMOOTH",
"368 632 OFFCURVE",
"465 738 OFFCURVE",
"590 738 CURVE SMOOTH",
"714 738 OFFCURVE",
"814 632 OFFCURVE",
"814 500 CURVE SMOOTH",
"814 368 OFFCURVE",
"714 262 OFFCURVE",
"590 262 CURVE SMOOTH"
);
}
);
width = 1218;
},
{
anchors = (
{
name = bottom;
position = "{582, 0}";
},
{
name = ogonek;
position = "{1054, 0}";
},
{
name = top;
position = "{582, 1000}";
}
);
hints = (
{
horizontal = 1;
origin = "{0, 9}";
target = "{1, 11}";
type = Stem;
},
{
horizontal = 1;
origin = "{0, 16}";
target = down;
type = TopGhost;
},
{
horizontal = 1;
origin = "{0, 3}";
target = "{1, 5}";
type = Stem;
},
{
horizontal = 1;
origin = "{0, 13}";
target = up;
type = BottomGhost;
},
{
origin = "{0, 6}";
target = "{1, 2}";
type = Stem;
},
{
origin = "{0, 13}";
target = "{0, 14}";
type = Stem;
},
{
origin = "{1, 8}";
target = "{0, 14}";
type = Stem;
}
);
layerId = "9AF1F7D9-E035-453E-B2A8-46DE370997D0";
paths = (
{
closed = 1;
nodes = (
"994 768 LINE",
"922 924 OFFCURVE",
"780 1028 OFFCURVE",
"586 1028 CURVE SMOOTH",
"296 1028 OFFCURVE",
"60 792 OFFCURVE",
"60 500 CURVE SMOOTH",
"60 210 OFFCURVE",
"296 -26 OFFCURVE",
"586 -26 CURVE SMOOTH",
"780 -26 OFFCURVE",
"922 78 OFFCURVE",
"994 234 CURVE",
"994 0 LINE",
"1054 0 LINE",
"1054 1000 LINE",
"994 1000 LINE"
);
},
{
closed = 1;
nodes = (
"336 34 OFFCURVE",
"120 238 OFFCURVE",
"120 500 CURVE SMOOTH",
"120 758 OFFCURVE",
"328 968 OFFCURVE",
"586 968 CURVE SMOOTH",
"840 968 OFFCURVE",
"990 762 OFFCURVE",
"990 500 CURVE SMOOTH",
"990 244 OFFCURVE",
"844 34 OFFCURVE",
"586 34 CURVE SMOOTH"
);
}
);
width = 1134;
},
{
anchors = (
{
name = bottom;
position = "{484, 0}";
},
{
name = ogonek;
position = "{956, 0}";
},
{
name = top;
position = "{624, 1000}";
}
);
hints = (
{
horizontal = 1;
origin = "{0, 9}";
target = "{1, 11}";
type = Stem;
},
{
horizontal = 1;
origin = "{0, 16}";
target = down;
type = TopGhost;
},
{
horizontal = 1;
origin = "{0, 3}";
target = "{1, 5}";
type = Stem;
},
{
horizontal = 1;
origin = "{0, 13}";
target = up;
type = BottomGhost;
},
{
origin = "{0, 6}";
target = "{1, 2}";
type = Stem;
},
{
origin = "{0, 13}";
target = "{0, 14}";
type = Stem;
},
{
origin = "{1, 8}";
target = "{0, 14}";
type = Stem;
}
);
layerId = m003;
paths = (
{
closed = 1;
nodes = (
"1004 768 LINE",
"953 924 OFFCURVE",
"826 1028 OFFCURVE",
"632 1028 CURVE SMOOTH",
"342 1028 OFFCURVE",
"73 792 OFFCURVE",
"32 500 CURVE SMOOTH",
"-9 210 OFFCURVE",
"194 -26 OFFCURVE",
"484 -26 CURVE SMOOTH",
"678 -26 OFFCURVE",
"835 78 OFFCURVE",
"929 234 CURVE",
"896 0 LINE",
"956 0 LINE",
"1096 1000 LINE",
"1036 1000 LINE"
);
},
{
closed = 1;
nodes = (
"242 34 OFFCURVE",
"55 238 OFFCURVE",
"92 500 CURVE SMOOTH",
"128 758 OFFCURVE",
"366 968 OFFCURVE",
"624 968 CURVE SMOOTH",
"878 968 OFFCURVE",
"999 762 OFFCURVE",
"962 500 CURVE SMOOTH",
"926 244 OFFCURVE",
"750 34 OFFCURVE",
"492 34 CURVE SMOOTH"
);
}
);
width = 1134;
},
{
anchors = (
{
name = bottom;
position = "{525, 0}";
},
{
name = ogonek;
position = "{1040, 0}";
},
{
name = top;
position = "{665, 1000}";
}
);
hints = (
{
horizontal = 1;
origin = "{0, 9}";
target = "{0, 12}";
type = Stem;
},
{
horizontal = 1;
origin = "{0, 16}";
target = down;
type = TopGhost;
},
{
horizontal = 1;
origin = "{0, 3}";
target = "{0, 0}";
type = Stem;
},
{
horizontal = 1;
origin = "{0, 13}";
target = up;
type = BottomGhost;
},
{
origin = "{0, 16}";
target = "{0, 14}";
type = Stem;
}
);
layerId = m004;
paths = (
{
closed = 1;
nodes = (
"881 904 LINE",
"817 974 OFFCURVE",
"731 1028 OFFCURVE",
"616 1028 CURVE SMOOTH",
"333 1028 OFFCURVE",
"73 798 OFFCURVE",
"34 514 CURVE SMOOTH",
"-9 216 OFFCURVE",
"198 -26 OFFCURVE",
"496 -26 CURVE SMOOTH",
"596 -26 OFFCURVE",
"677 20 OFFCURVE",
"737 90 CURVE",
"739 0 LINE",
"1040 0 LINE",
"1180 1000 LINE",
"880 1000 LINE"
);
},
{
closed = 1;
nodes = (
"406 262 OFFCURVE",
"321 368 OFFCURVE",
"340 500 CURVE SMOOTH",
"358 632 OFFCURVE",
"470 738 OFFCURVE",
"595 738 CURVE SMOOTH",
"719 738 OFFCURVE",
"804 632 OFFCURVE",
"786 500 CURVE SMOOTH",
"767 368 OFFCURVE",
"652 262 OFFCURVE",
"528 262 CURVE SMOOTH"
);
}
);
width = 1218;
},
{
anchors = (
{
name = bottom;
position = "{596, 0}";
},
{
name = ogonek;
position = "{1082, 0}";
},
{
name = top;
position = "{596, 1000}";
}
);
hints = (
{
horizontal = 1;
origin = "{0, 9}";
target = "{1, 11}";
type = Stem;
},
{
horizontal = 1;
origin = "{0, 16}";
target = down;
type = TopGhost;
},
{
horizontal = 1;
origin = "{0, 3}";
target = "{1, 5}";
type = Stem;
},
{
horizontal = 1;
origin = "{0, 13}";
target = up;
type = BottomGhost;
},
{
origin = "{0, 6}";
target = "{1, 2}";
type = Stem;
},
{
origin = "{0, 13}";
target = "{0, 14}";
type = Stem;
},
{
origin = "{1, 8}";
target = "{0, 14}";
type = Stem;
}
);
layerId = "F7B0483F-D4AC-485F-91A2-832BFA93C9DB";
paths = (
{
closed = 1;
nodes = (
"947 813 LINE",
"874 941 OFFCURVE",
"748 1028 OFFCURVE",
"581 1028 CURVE SMOOTH",
"293 1028 OFFCURVE",
"60 794 OFFCURVE",
"60 505 CURVE SMOOTH",
"60 212 OFFCURVE",
"297 -26 OFFCURVE",
"590 -26 CURVE SMOOTH",
"753 -26 OFFCURVE",
"872 59 OFFCURVE",
"937 186 CURVE",
"942 0 LINE",
"1082 0 LINE",
"1082 1000 LINE",
"942 1000 LINE"
);
},
{
closed = 1;
nodes = (
"380 110 OFFCURVE",
"203 281 OFFCURVE",
"203 500 CURVE SMOOTH",
"203 716 OFFCURVE",
"374 891 OFFCURVE",
"587 891 CURVE SMOOTH",
"798 891 OFFCURVE",
"931 719 OFFCURVE",
"931 500 CURVE SMOOTH",
"931 285 OFFCURVE",
"801 110 OFFCURVE",
"587 110 CURVE SMOOTH"
);
}
);
width = 1162;
},
{
anchors = (
{
name = bottom;
position = "{498, 0}";
},
{
name = ogonek;
position = "{984, 0}";
},
{
name = top;
position = "{638, 1000}";
}
);
hints = (
{
horizontal = 1;
origin = "{0, 9}";
target = "{1, 11}";
type = Stem;
},
{
horizontal = 1;
origin = "{0, 16}";
target = down;
type = TopGhost;
},
{
horizontal = 1;
origin = "{0, 3}";
target = "{1, 5}";
type = Stem;
},
{
horizontal = 1;
origin = "{0, 13}";
target = up;
type = BottomGhost;
},
{
origin = "{0, 6}";
target = "{1, 2}";
type = Stem;
},
{
origin = "{0, 13}";
target = "{0, 14}";
type = Stem;
},
{
origin = "{1, 8}";
target = "{0, 14}";
type = Stem;
}
);
layerId = "A034D368-5B08-4DC5-B558-B81FD113CC46";
paths = (
{
closed = 1;
nodes = (
"963 813 LINE",
"908 941 OFFCURVE",
"794 1028 OFFCURVE",
"627 1028 CURVE SMOOTH",
"339 1028 OFFCURVE",
"73 794 OFFCURVE",
"33 505 CURVE SMOOTH",
"-9 212 OFFCURVE",
"195 -26 OFFCURVE",
"488 -26 CURVE SMOOTH",
"651 -26 OFFCURVE",
"782 59 OFFCURVE",
"865 186 CURVE",
"844 0 LINE",
"984 0 LINE",
"1124 1000 LINE",
"984 1000 LINE"
);
},
{
closed = 1;
nodes = (
"297 110 OFFCURVE",
"144 281 OFFCURVE",
"175 500 CURVE SMOOTH",
"205 716 OFFCURVE",
"401 891 OFFCURVE",
"614 891 CURVE SMOOTH",
"825 891 OFFCURVE",
"934 719 OFFCURVE",
"903 500 CURVE SMOOTH",
"873 285 OFFCURVE",
"717 110 OFFCURVE",
"504 110 CURVE SMOOTH"
);
}
);
width = 1161;
}
);
leftKerningGroup = o;
leftMetricsKey = o;
rightKerningGroup = n;
rightMetricsKey = n;
unicode = 0061;
},
{
glyphname = ae;
lastChange = "2021-10-25 19:38:19 +0000";
layers = (
{
anchors = (
{
name = bottom;
position = "{774, 2}";
},
{
name = top;
position = "{807, 1002}";
}
);
hints = (
{
horizontal = 1;
place = "{-26, 180}";
type = Stem;
},
{
horizontal = 1;
place = "{402, 220}";
type = Stem;
},
{
horizontal = 1;
place = "{768, 0}";
type = Stem;
},
{
horizontal = 1;
place = "{1028, -260}";
type = Stem;
},
{
place = "{80, 290}";
type = Stem;
}
);
layerId = "10BC12B3-5274-42E3-B5BC-F74F362F0DF4";
paths = (
{
closed = 1;
nodes = (
"543 -26 OFFCURVE",
"702 61 OFFCURVE",
"774 145 CURVE",
"866 40 OFFCURVE",
"997 -26 OFFCURVE",
"1143 -26 CURVE SMOOTH",
"1343 -26 OFFCURVE",
"1515 98 OFFCURVE",
"1596 276 CURVE",
"1290 347 LINE",
"1254 303 OFFCURVE",
"1203 274 OFFCURVE",
"1146 274 CURVE SMOOTH",
"1051 274 OFFCURVE",
"995 329 OFFCURVE",
"967 401 CURVE",
"1634 401 LINE",
"1692 718 OFFCURVE",
"1465 1028 OFFCURVE",
"1143 1028 CURVE SMOOTH",
"1014 1028 OFFCURVE",
"896 976 OFFCURVE",
"807 892 CURVE",
"722 980 OFFCURVE",
"602 1028 OFFCURVE",
"476 1028 CURVE SMOOTH",
"368 1028 OFFCURVE",
"261 997 OFFCURVE",
"171 935 CURVE",
"337 686 LINE",
"379 714 OFFCURVE",
"428 728 OFFCURVE",
"480 728 CURVE SMOOTH",
"555 728 OFFCURVE",
"609 682 OFFCURVE",
"631 621 CURVE",
"370 621 LINE SMOOTH",
"177 621 OFFCURVE",
"30 470 OFFCURVE",
"30 298 CURVE SMOOTH",
"30 126 OFFCURVE",
"174 -26 OFFCURVE",
"370 -26 CURVE SMOOTH"
);
},
{
closed = 1;
nodes = (
"326 234 OFFCURVE",
"290 277 OFFCURVE",
"290 321 CURVE SMOOTH",
"290 365 OFFCURVE",
"326 401 OFFCURVE",
"370 401 CURVE SMOOTH",
"630 401 LINE",
"611 364 OFFCURVE",
"587 331 OFFCURVE",
"558 305 CURVE SMOOTH",
"508 260 OFFCURVE",
"444 234 OFFCURVE",
"370 234 CURVE SMOOTH"
);
},
{
closed = 1;
nodes = (
"985 707 OFFCURVE",
"1058 768 OFFCURVE",
"1143 768 CURVE SMOOTH",
"1229 768 OFFCURVE",
"1302 707 OFFCURVE",
"1331 621 CURVE",
"956 621 LINE"
);
}
);
width = 1703;
},
{
anchors = (
{
name = bottom;
position = "{788, 0}";
},
{
name = top;
position = "{801, 1000}";
}
);
hints = (
{
horizontal = 1;
place = "{0, 60}";
type = Stem;
},
{
horizontal = 1;
place = "{496, 60}";
type = Stem;
},
{
horizontal = 1;
place = "{994, 60}";
type = Stem;
},
{
place = "{70, 60}";
type = Stem;
},
{
place = "{848, 60}";
type = Stem;
},
{
place = "{1786, 60}";
type = Stem;
},
{
place = "{848, 60}";
type = Stem;
}
);
layerId = "9AF1F7D9-E035-453E-B2A8-46DE370997D0";
paths = (
{
closed = 1;
nodes = (
"524 -24 OFFCURVE",
"705 114 OFFCURVE",
"788 321 CURVE",
"857 118 OFFCURVE",
"1042 -26 OFFCURVE",
"1258 -26 CURVE SMOOTH",
"1458 -26 OFFCURVE",
"1630 98 OFFCURVE",
"1710 276 CURVE",
"1650 290 LINE",
"1570 130 OFFCURVE",
"1428 34 OFFCURVE",
"1258 34 CURVE SMOOTH",
"1028 34 OFFCURVE",
"838 220 OFFCURVE",
"818 470 CURVE",
"1756 470 LINE",
"1750 804 OFFCURVE",
"1544 1028 OFFCURVE",
"1258 1028 CURVE SMOOTH",
"1054 1028 OFFCURVE",
"878 899 OFFCURVE",
"801 714 CURVE",
"724 900 OFFCURVE",
"554 1028 OFFCURVE",
"352 1028 CURVE SMOOTH",
"295 1028 OFFCURVE",
"235 1017 OFFCURVE",
"177 994 CURVE",
"208 941 LINE",
"255 959 OFFCURVE",
"304 968 OFFCURVE",
"352 968 CURVE SMOOTH",
"608 968 OFFCURVE",
"767 768 OFFCURVE",
"759 531 CURVE",
"307 531 LINE SMOOTH",
"131 531 OFFCURVE",
"30 400 OFFCURVE",
"30 250 CURVE SMOOTH",
"30 83 OFFCURVE",
"151 -24 OFFCURVE",
"315 -24 CURVE SMOOTH"
);
},
{
closed = 1;
nodes = (
"165 36 OFFCURVE",
"90 138 OFFCURVE",
"90 250 CURVE SMOOTH",
"90 375 OFFCURVE",
"173 471 OFFCURVE",
"307 471 CURVE SMOOTH",
"757 471 LINE",
"754 417 OFFCURVE",
"742 364 OFFCURVE",
"721 314 CURVE SMOOTH",
"654 156 OFFCURVE",
"503 36 OFFCURVE",
"315 36 CURVE SMOOTH"
);
},
{
closed = 1;
nodes = (
"834 772 OFFCURVE",
"1020 968 OFFCURVE",
"1258 968 CURVE SMOOTH",
"1494 968 OFFCURVE",
"1688 764 OFFCURVE",
"1696 530 CURVE",
"818 530 LINE"
);
}
);
width = 1816;
},
{
anchors = (
{
name = bottom;
position = "{690, 0}";
},
{
name = top;
position = "{843, 1000}";
}
);
hints = (
{
horizontal = 1;
place = "{-98, -38}";
type = Stem;
},
{
horizontal = 1;
place = "{398, -38}";
type = Stem;
},
{
horizontal = 1;
place = "{896, -38}";
type = Stem;
},
{
place = "{-28, -38}";
type = Stem;
},
{
place = "{750, -38}";
type = Stem;
},
{
place = "{1688, -38}";
type = Stem;
},
{
place = "{750, -38}";
type = Stem;
}
);
layerId = m003;
paths = (
{
closed = 1;
nodes = (
"422 -24 OFFCURVE",
"623 114 OFFCURVE",
"735 321 CURVE",
"775 118 OFFCURVE",
"940 -26 OFFCURVE",
"1156 -26 CURVE SMOOTH",
"1356 -26 OFFCURVE",
"1545 98 OFFCURVE",
"1650 276 CURVE",
"1592 290 LINE",
"1490 130 OFFCURVE",
"1334 34 OFFCURVE",
"1164 34 CURVE SMOOTH",
"934 34 OFFCURVE",
"771 220 OFFCURVE",
"786 470 CURVE",
"1724 470 LINE",
"1765 804 OFFCURVE",
"1590 1028 OFFCURVE",
"1304 1028 CURVE SMOOTH",
"1100 1028 OFFCURVE",
"906 899 OFFCURVE",
"803 714 CURVE",
"752 900 OFFCURVE",
"600 1028 OFFCURVE",
"398 1028 CURVE SMOOTH",
"341 1028 OFFCURVE",
"280 1017 OFFCURVE",
"218 994 CURVE",
"242 941 LINE",
"291 959 OFFCURVE",
"342 968 OFFCURVE",
"390 968 CURVE SMOOTH",
"646 968 OFFCURVE",
"777 768 OFFCURVE",
"735 531 CURVE",
"283 531 LINE SMOOTH",
"107 531 OFFCURVE",
"-12 400 OFFCURVE",
"-33 250 CURVE SMOOTH",
"-57 83 OFFCURVE",
"49 -24 OFFCURVE",
"213 -24 CURVE SMOOTH"
);
},
{
closed = 1;
nodes = (
"72 36 OFFCURVE",
"11 138 OFFCURVE",
"27 250 CURVE SMOOTH",
"44 375 OFFCURVE",
"141 471 OFFCURVE",
"275 471 CURVE SMOOTH",
"725 471 LINE",
"714 417 OFFCURVE",
"695 364 OFFCURVE",
"667 314 CURVE SMOOTH",
"578 156 OFFCURVE",
"410 36 OFFCURVE",
"222 36 CURVE SMOOTH"
);
},
{
closed = 1;
nodes = (
"844 772 OFFCURVE",
"1058 968 OFFCURVE",
"1296 968 CURVE SMOOTH",
"1532 968 OFFCURVE",
"1697 764 OFFCURVE",
"1672 530 CURVE",
"794 530 LINE"
);
}
);
width = 1816;
},
{
anchors = (
{
name = bottom;
position = "{676, 2}";
},
{
name = top;
position = "{849, 1002}";
}
);
hints = (
{
horizontal = 1;
place = "{-124, 82}";
type = Stem;
},
{
horizontal = 1;
place = "{304, 122}";
type = Stem;
},
{
horizontal = 1;
place = "{670, -98}";
type = Stem;
},
{
horizontal = 1;
place = "{930, -358}";
type = Stem;
},
{
place = "{-18, 192}";
type = Stem;
}
);
layerId = m004;
paths = (
{
closed = 1;
nodes = (
"441 -26 OFFCURVE",
"612 61 OFFCURVE",
"696 145 CURVE",
"773 40 OFFCURVE",
"895 -26 OFFCURVE",
"1041 -26 CURVE SMOOTH",
"1241 -26 OFFCURVE",
"1430 98 OFFCURVE",
"1536 276 CURVE",
"1240 347 LINE",
"1198 303 OFFCURVE",
"1143 274 OFFCURVE",
"1086 274 CURVE SMOOTH",
"991 274 OFFCURVE",
"943 329 OFFCURVE",
"925 401 CURVE",
"1592 401 LINE",
"1695 718 OFFCURVE",
"1511 1028 OFFCURVE",
"1189 1028 CURVE SMOOTH",
"1060 1028 OFFCURVE",
"935 976 OFFCURVE",
"834 892 CURVE",
"761 980 OFFCURVE",
"648 1028 OFFCURVE",
"522 1028 CURVE SMOOTH",
"414 1028 OFFCURVE",
"303 997 OFFCURVE",
"204 935 CURVE",
"335 686 LINE",
"381 714 OFFCURVE",
"432 728 OFFCURVE",
"484 728 CURVE SMOOTH",
"559 728 OFFCURVE",
"606 682 OFFCURVE",
"620 621 CURVE",
"359 621 LINE SMOOTH",
"166 621 OFFCURVE",
"-2 470 OFFCURVE",
"-26 298 CURVE SMOOTH",
"-51 126 OFFCURVE",
"72 -26 OFFCURVE",
"268 -26 CURVE SMOOTH"
);
},
{
closed = 1;
nodes = (
"261 234 OFFCURVE",
"231 277 OFFCURVE",
"237 321 CURVE SMOOTH",
"243 365 OFFCURVE",
"284 401 OFFCURVE",
"328 401 CURVE SMOOTH",
"588 401 LINE",
"564 364 OFFCURVE",
"535 331 OFFCURVE",
"502 305 CURVE SMOOTH",
"446 260 OFFCURVE",
"379 234 OFFCURVE",
"305 234 CURVE SMOOTH"
);
},
{
closed = 1;
nodes = (
"986 707 OFFCURVE",
"1068 768 OFFCURVE",
"1153 768 CURVE SMOOTH",
"1239 768 OFFCURVE",
"1303 707 OFFCURVE",
"1320 621 CURVE",
"945 621 LINE"
);
}
);
width = 1703;
},
{
anchors = (
{
name = bottom;
position = "{783, 1}";
},
{
name = top;
position = "{803, 1001}";
}
);
hints = (
{
horizontal = 1;
place = "{134, 113}";
type = Stem;
},
{
horizontal = 1;
place = "{587, 40}";
type = Stem;
},
{
horizontal = 1;
place = "{1005, -47}";
type = Stem;
},
{
place = "{47, 40}";
type = Stem;
},
{
place = "{565, 40}";
type = Stem;
},
{
place = "{1182, 100}";
type = Stem;
},
{
place = "{592, 137}";
type = Stem;
}
);
layerId = "F7B0483F-D4AC-485F-91A2-832BFA93C9DB";
paths = (
{
closed = 1;
nodes = (
"530 -25 OFFCURVE",
"704 96 OFFCURVE",
"783 262 CURVE",
"860 92 OFFCURVE",
"1027 -26 OFFCURVE",
"1220 -26 CURVE SMOOTH",
"1420 -26 OFFCURVE",
"1592 98 OFFCURVE",
"1672 276 CURVE",
"1530 309 LINE",
"1465 188 OFFCURVE",
"1353 114 OFFCURVE",
"1221 114 CURVE SMOOTH",
"1036 114 OFFCURVE",
"890 256 OFFCURVE",
"868 447 CURVE",
"1715 447 LINE",
"1731 775 OFFCURVE",
"1518 1028 OFFCURVE",
"1220 1028 CURVE SMOOTH",
"1041 1028 OFFCURVE",
"884 925 OFFCURVE",
"803 773 CURVE",
"723 927 OFFCURVE",
"570 1028 OFFCURVE",
"393 1028 CURVE SMOOTH",
"319 1028 OFFCURVE",
"244 1010 OFFCURVE",
"175 974 CURVE",
"251 856 LINE",
"296 877 OFFCURVE",
"345 888 OFFCURVE",
"395 888 CURVE SMOOTH",
"590 888 OFFCURVE",
"714 739 OFFCURVE",
"716 561 CURVE",
"328 561 LINE SMOOTH",
"146 561 OFFCURVE",
"30 423 OFFCURVE",
"30 266 CURVE SMOOTH",
"30 97 OFFCURVE",
"159 -25 OFFCURVE",
"333 -25 CURVE SMOOTH"
);
},
{
closed = 1;
nodes = (
"219 102 OFFCURVE",
"157 184 OFFCURVE",
"157 274 CURVE SMOOTH",
"157 372 OFFCURVE",
"224 448 OFFCURVE",
"328 448 CURVE SMOOTH",
"715 448 LINE",
"706 399 OFFCURVE",
"690 353 OFFCURVE",
"667 311 CURVE SMOOTH",
"605 191 OFFCURVE",
"483 102 OFFCURVE",
"333 102 CURVE SMOOTH"
);
},
{
closed = 1;
nodes = (
"884 750 OFFCURVE",
"1033 901 OFFCURVE",
"1220 901 CURVE SMOOTH",
"1406 901 OFFCURVE",
"1559 745 OFFCURVE",
"1574 560 CURVE",
"864 560 LINE"
);
}
);
width = 1776;
},
{
anchors = (
{
name = bottom;
position = "{685, 1}";
},
{
name = top;
position = "{845, 1001}";
}
);
hints = (
{
horizontal = 1;
place = "{36, 15}";
type = Stem;
},
{
horizontal = 1;
place = "{489, -58}";
type = Stem;
},
{
horizontal = 1;
place = "{907, -145}";
type = Stem;
},
{
place = "{-19, -25}";
type = Stem;
},
{
place = "{500, -25}";
type = Stem;
},
{
place = "{1084, 2}";
type = Stem;
},
{
place = "{494, 39}";
type = Stem;
}
);
layerId = "A034D368-5B08-4DC5-B558-B81FD113CC46";
paths = (
{
closed = 1;
nodes = (
"428 -25 OFFCURVE",
"619 96 OFFCURVE",
"722 262 CURVE",
"774 92 OFFCURVE",
"925 -26 OFFCURVE",
"1118 -26 CURVE SMOOTH",
"1318 -26 OFFCURVE",
"1507 98 OFFCURVE",
"1612 276 CURVE",
"1475 309 LINE",
"1393 188 OFFCURVE",
"1270 114 OFFCURVE",
"1138 114 CURVE SMOOTH",
"953 114 OFFCURVE",
"828 256 OFFCURVE",
"832 447 CURVE",
"1680 447 LINE",
"1742 775 OFFCURVE",
"1564 1028 OFFCURVE",
"1266 1028 CURVE SMOOTH",
"1087 1028 OFFCURVE",
"916 925 OFFCURVE",
"813 773 CURVE",
"755 927 OFFCURVE",
"616 1028 OFFCURVE",
"439 1028 CURVE SMOOTH",
"365 1028 OFFCURVE",
"288 1010 OFFCURVE",
"213 974 CURVE",
"273 856 LINE",
"321 877 OFFCURVE",
"372 888 OFFCURVE",
"421 888 CURVE SMOOTH",
"617 888 OFFCURVE",
"720 739 OFFCURVE",
"697 561 CURVE",
"308 561 LINE SMOOTH",
"127 561 OFFCURVE",
"-9 423 OFFCURVE",
"-31 266 CURVE SMOOTH",
"-55 97 OFFCURVE",
"57 -25 OFFCURVE",
"231 -25 CURVE SMOOTH"
);
},
{
closed = 1;
nodes = (
"135 102 OFFCURVE",
"84 184 OFFCURVE",
"97 274 CURVE SMOOTH",
"110 372 OFFCURVE",
"189 448 OFFCURVE",
"293 448 CURVE SMOOTH",
"679 448 LINE",
"664 399 OFFCURVE",
"642 353 OFFCURVE",
"612 311 CURVE SMOOTH",
"534 191 OFFCURVE",
"400 102 OFFCURVE",
"250 102 CURVE SMOOTH"
);
},
{
closed = 1;
nodes = (
"891 750 OFFCURVE",
"1061 901 OFFCURVE",
"1248 901 CURVE SMOOTH",
"1434 901 OFFCURVE",
"1566 745 OFFCURVE",
"1555 560 CURVE",
"844 560 LINE"
);
}
);
width = 1776;
}
);
leftKerningGroup = ae;
rightKerningGroup = e;
rightMetricsKey = o;
unicode = 00E6;
},
